<svg xmlns="http://www.w3.org/2000/svg" width="876" height="472" font-family="monospace" font-size="12">
<rect width="876" height="472" fill="white"/>
<text x="10" y="22" font-size="15" font-weight="bold">22-biquad function-mix (insts) — cat2-22-biquad-i11-8879155f-1781456707</text>
<text x="10" y="42" font-size="11" fill="#555">total 2076267 across 26 entries; top 20 = 100.0%</text>
<text x="230" y="71" text-anchor="end">__mulsf3_pse</text>
<rect x="236" y="61" width="470" height="13" fill="#4677c8"/>
<text x="711" y="71">691566  33.3%</text>
<text x="230" y="91" text-anchor="end">__addsf3x</text>
<rect x="236" y="81" width="299" height="13" fill="#4677c8"/>
<text x="540" y="91">439917  21.2%</text>
<text x="230" y="111" text-anchor="end">run_workload</text>
<rect x="236" y="101" width="148" height="13" fill="#4677c8"/>
<text x="389" y="111">217135  10.5%</text>
<text x="230" y="131" text-anchor="end">__fp_round</text>
<rect x="236" y="121" width="131" height="13" fill="#4677c8"/>
<text x="372" y="131">193370  9.3%</text>
<text x="230" y="151" text-anchor="end">__fp_splitA</text>
<rect x="236" y="141" width="108" height="13" fill="#4677c8"/>
<text x="349" y="151">158483  7.6%</text>
<text x="230" y="171" text-anchor="end">__fp_split3</text>
<rect x="236" y="161" width="99" height="13" fill="#4677c8"/>
<text x="340" y="171">146239  7.0%</text>
<text x="230" y="191" text-anchor="end">__USER_SIGNATURE_REGION_LENGTH__</text>
<rect x="236" y="181" width="89" height="13" fill="#4677c8"/>
<text x="330" y="191">130339  6.3%</text>
<text x="230" y="211" text-anchor="end">__addsf3</text>
<rect x="236" y="201" width="24" height="13" fill="#4677c8"/>
<text x="265" y="211">35964  1.7%</text>
<text x="230" y="231" text-anchor="end">__mulsf3</text>
<rect x="236" y="221" width="15" height="13" fill="#4677c8"/>
<text x="256" y="231">21600  1.0%</text>
<text x="230" y="251" text-anchor="end">__mulsf3x</text>
<rect x="236" y="241" width="14" height="13" fill="#4677c8"/>
<text x="255" y="251">21246  1.0%</text>
<text x="230" y="271" text-anchor="end">__udivmodhi4_loop</text>
<rect x="236" y="261" width="3" height="13" fill="#4677c8"/>
<text x="244" y="271">4822  0.2%</text>
<text x="230" y="291" text-anchor="end">__udivmodhi4_ep</text>
<rect x="236" y="281" width="3" height="13" fill="#4677c8"/>
<text x="244" y="291">4307  0.2%</text>
<text x="230" y="311" text-anchor="end">__subsf3</text>
<rect x="236" y="301" width="3" height="13" fill="#4677c8"/>
<text x="244" y="311">4228  0.2%</text>
<text x="230" y="331" text-anchor="end">__floatsisf</text>
<rect x="236" y="321" width="2" height="13" fill="#4677c8"/>
<text x="243" y="331">2527  0.1%</text>
<text x="230" y="351" text-anchor="end">__fp_szero</text>
<rect x="236" y="341" width="1" height="13" fill="#4677c8"/>
<text x="242" y="351">1350  0.1%</text>
<text x="230" y="371" text-anchor="end">.do_clear_bss_start</text>
<rect x="236" y="361" width="1" height="13" fill="#4677c8"/>
<text x="242" y="371">1012  0.0%</text>
<text x="230" y="391" text-anchor="end">main</text>
<rect x="236" y="381" width="1" height="13" fill="#4677c8"/>
<text x="242" y="391">908  0.0%</text>
<text x="230" y="411" text-anchor="end">_div</text>
<rect x="236" y="401" width="1" height="13" fill="#4677c8"/>
<text x="242" y="411">413  0.0%</text>
<text x="230" y="431" text-anchor="end">.do_clear_bss_loop</text>
<rect x="236" y="421" width="1" height="13" fill="#4677c8"/>
<text x="242" y="431">336  0.0%</text>
<text x="230" y="451" text-anchor="end">__udivmodhi4</text>
<rect x="236" y="441" width="1" height="13" fill="#4677c8"/>
<text x="242" y="451">236  0.0%</text>
</svg>
