<svg xmlns="http://www.w3.org/2000/svg" width="876" height="472" font-family="monospace" font-size="12">
<rect width="876" height="472" fill="white"/>
<text x="10" y="22" font-size="15" font-weight="bold">22-biquad function-mix (cycles) — cat2-22-biquad-i1-8ddadf47-1781456703</text>
<text x="10" y="42" font-size="11" fill="#555">total 290182 across 26 entries; top 20 = 99.9%</text>
<text x="230" y="71" text-anchor="end">__mulsf3_pse</text>
<rect x="236" y="61" width="470" height="13" fill="#4677c8"/>
<text x="711" y="71">79024  27.2%</text>
<text x="230" y="91" text-anchor="end">__addsf3x</text>
<rect x="236" y="81" width="291" height="13" fill="#4677c8"/>
<text x="532" y="91">48961  16.9%</text>
<text x="230" y="111" text-anchor="end">run_workload</text>
<rect x="236" y="101" width="240" height="13" fill="#4677c8"/>
<text x="481" y="111">40333  13.9%</text>
<text x="230" y="131" text-anchor="end">__fp_round</text>
<rect x="236" y="121" width="161" height="13" fill="#4677c8"/>
<text x="402" y="131">27132  9.3%</text>
<text x="230" y="151" text-anchor="end">__USER_SIGNATURE_REGION_LENGTH__</text>
<rect x="236" y="141" width="131" height="13" fill="#4677c8"/>
<text x="372" y="151">22060  7.6%</text>
<text x="230" y="171" text-anchor="end">__fp_splitA</text>
<rect x="236" y="161" width="123" height="13" fill="#4677c8"/>
<text x="364" y="171">20684  7.1%</text>
<text x="230" y="191" text-anchor="end">__fp_split3</text>
<rect x="236" y="181" width="87" height="13" fill="#4677c8"/>
<text x="328" y="191">14617  5.0%</text>
<text x="230" y="211" text-anchor="end">__addsf3</text>
<rect x="236" y="201" width="44" height="13" fill="#4677c8"/>
<text x="285" y="211">7389  2.5%</text>
<text x="230" y="231" text-anchor="end">__mulsf3</text>
<rect x="236" y="221" width="43" height="13" fill="#4677c8"/>
<text x="284" y="231">7271  2.5%</text>
<text x="230" y="251" text-anchor="end">__mulsf3x</text>
<rect x="236" y="241" width="30" height="13" fill="#4677c8"/>
<text x="271" y="251">5065  1.7%</text>
<text x="230" y="271" text-anchor="end">__udivmodhi4_loop</text>
<rect x="236" y="261" width="28" height="13" fill="#4677c8"/>
<text x="269" y="271">4755  1.6%</text>
<text x="230" y="291" text-anchor="end">__udivmodhi4_ep</text>
<rect x="236" y="281" width="27" height="13" fill="#4677c8"/>
<text x="268" y="291">4508  1.6%</text>
<text x="230" y="311" text-anchor="end">__floatsisf</text>
<rect x="236" y="301" width="18" height="13" fill="#4677c8"/>
<text x="259" y="311">3104  1.1%</text>
<text x="230" y="331" text-anchor="end">.do_clear_bss_start</text>
<rect x="236" y="321" width="8" height="13" fill="#4677c8"/>
<text x="249" y="331">1351  0.5%</text>
<text x="230" y="351" text-anchor="end">main</text>
<rect x="236" y="341" width="6" height="13" fill="#4677c8"/>
<text x="247" y="351">1064  0.4%</text>
<text x="230" y="371" text-anchor="end">_div</text>
<rect x="236" y="361" width="4" height="13" fill="#4677c8"/>
<text x="245" y="371">686  0.2%</text>
<text x="230" y="391" text-anchor="end">.do_clear_bss_loop</text>
<rect x="236" y="381" width="4" height="13" fill="#4677c8"/>
<text x="245" y="391">672  0.2%</text>
<text x="230" y="411" text-anchor="end">__fp_szero</text>
<rect x="236" y="401" width="3" height="13" fill="#4677c8"/>
<text x="244" y="411">450  0.2%</text>
<text x="230" y="431" text-anchor="end">__subsf3</text>
<rect x="236" y="421" width="2" height="13" fill="#4677c8"/>
<text x="243" y="431">388  0.1%</text>
<text x="230" y="451" text-anchor="end">__udivmodhi4</text>
<rect x="236" y="441" width="1" height="13" fill="#4677c8"/>
<text x="242" y="451">245  0.1%</text>
</svg>
