<svg xmlns="http://www.w3.org/2000/svg" width="876" height="472" font-family="monospace" font-size="12">
<rect width="876" height="472" fill="white"/>
<text x="10" y="22" font-size="15" font-weight="bold">22-biquad function-mix (insts) — cat2-22-biquad-i1-8ddadf47-1781456703</text>
<text x="10" y="42" font-size="11" fill="#555">total 204933 across 26 entries; top 20 = 99.9%</text>
<text x="230" y="71" text-anchor="end">__mulsf3_pse</text>
<rect x="236" y="61" width="470" height="13" fill="#4677c8"/>
<text x="711" y="71">64055  31.3%</text>
<text x="230" y="91" text-anchor="end">__addsf3x</text>
<rect x="236" y="81" width="287" height="13" fill="#4677c8"/>
<text x="528" y="91">39061  19.1%</text>
<text x="230" y="111" text-anchor="end">run_workload</text>
<rect x="236" y="101" width="156" height="13" fill="#4677c8"/>
<text x="397" y="111">21285  10.4%</text>
<text x="230" y="131" text-anchor="end">__fp_round</text>
<rect x="236" y="121" width="132" height="13" fill="#4677c8"/>
<text x="373" y="131">17962  8.8%</text>
<text x="230" y="151" text-anchor="end">__fp_splitA</text>
<rect x="236" y="141" width="110" height="13" fill="#4677c8"/>
<text x="351" y="151">15055  7.3%</text>
<text x="230" y="171" text-anchor="end">__fp_split3</text>
<rect x="236" y="161" width="100" height="13" fill="#4677c8"/>
<text x="341" y="171">13565  6.6%</text>
<text x="230" y="191" text-anchor="end">__USER_SIGNATURE_REGION_LENGTH__</text>
<rect x="236" y="181" width="93" height="13" fill="#4677c8"/>
<text x="334" y="191">12699  6.2%</text>
<text x="230" y="211" text-anchor="end">__udivmodhi4_loop</text>
<rect x="236" y="201" width="30" height="13" fill="#4677c8"/>
<text x="271" y="211">4022  2.0%</text>
<text x="230" y="231" text-anchor="end">__udivmodhi4_ep</text>
<rect x="236" y="221" width="26" height="13" fill="#4677c8"/>
<text x="267" y="231">3577  1.7%</text>
<text x="230" y="251" text-anchor="end">__addsf3</text>
<rect x="236" y="241" width="24" height="13" fill="#4677c8"/>
<text x="265" y="251">3284  1.6%</text>
<text x="230" y="271" text-anchor="end">__floatsisf</text>
<rect x="236" y="261" width="19" height="13" fill="#4677c8"/>
<text x="260" y="271">2527  1.2%</text>
<text x="230" y="291" text-anchor="end">__mulsf3</text>
<rect x="236" y="281" width="16" height="13" fill="#4677c8"/>
<text x="257" y="291">2116  1.0%</text>
<text x="230" y="311" text-anchor="end">__mulsf3x</text>
<rect x="236" y="301" width="15" height="13" fill="#4677c8"/>
<text x="256" y="311">2026  1.0%</text>
<text x="230" y="331" text-anchor="end">.do_clear_bss_start</text>
<rect x="236" y="321" width="7" height="13" fill="#4677c8"/>
<text x="248" y="331">1012  0.5%</text>
<text x="230" y="351" text-anchor="end">main</text>
<rect x="236" y="341" width="7" height="13" fill="#4677c8"/>
<text x="248" y="351">908  0.4%</text>
<text x="230" y="371" text-anchor="end">__subsf3</text>
<rect x="236" y="361" width="3" height="13" fill="#4677c8"/>
<text x="244" y="371">388  0.2%</text>
<text x="230" y="391" text-anchor="end">_div</text>
<rect x="236" y="381" width="3" height="13" fill="#4677c8"/>
<text x="244" y="391">343  0.2%</text>
<text x="230" y="411" text-anchor="end">.do_clear_bss_loop</text>
<rect x="236" y="401" width="2" height="13" fill="#4677c8"/>
<text x="243" y="411">336  0.2%</text>
<text x="230" y="431" text-anchor="end">__fp_szero</text>
<rect x="236" y="421" width="2" height="13" fill="#4677c8"/>
<text x="243" y="431">300  0.1%</text>
<text x="230" y="451" text-anchor="end">__udivmodhi4</text>
<rect x="236" y="441" width="1" height="13" fill="#4677c8"/>
<text x="242" y="451">196  0.1%</text>
</svg>
