<svg xmlns="http://www.w3.org/2000/svg" width="876" height="472" font-family="monospace" font-size="12">
<rect width="876" height="472" fill="white"/>
<text x="10" y="22" font-size="15" font-weight="bold">22-biquad function calls (count) — cat2-22-biquad-i1-8ddadf47-1781456703</text>
<text x="10" y="42" font-size="11" fill="#555">total 13313 across 26 entries; top 20 = 100.0%</text>
<text x="230" y="71" text-anchor="end">__fp_splitA</text>
<rect x="236" y="61" width="470" height="13" fill="#4677c8"/>
<text x="711" y="71">1834  13.8%</text>
<text x="230" y="91" text-anchor="end">__fp_split3</text>
<rect x="236" y="81" width="470" height="13" fill="#4677c8"/>
<text x="711" y="91">1834  13.8%</text>
<text x="230" y="111" text-anchor="end">__fp_round</text>
<rect x="236" y="101" width="470" height="13" fill="#4677c8"/>
<text x="711" y="111">1834  13.8%</text>
<text x="230" y="131" text-anchor="end">__mulsf3x</text>
<rect x="236" y="121" width="260" height="13" fill="#4677c8"/>
<text x="501" y="131">1013  7.6%</text>
<text x="230" y="151" text-anchor="end">__mulsf3</text>
<rect x="236" y="141" width="260" height="13" fill="#4677c8"/>
<text x="501" y="151">1013  7.6%</text>
<text x="230" y="171" text-anchor="end">__mulsf3_pse</text>
<rect x="236" y="161" width="260" height="13" fill="#4677c8"/>
<text x="501" y="171">1013  7.6%</text>
<text x="230" y="191" text-anchor="end">__udivmodhi4_ep</text>
<rect x="236" y="181" width="213" height="13" fill="#4677c8"/>
<text x="454" y="191">833  6.3%</text>
<text x="230" y="211" text-anchor="end">__addsf3x</text>
<rect x="236" y="201" width="210" height="13" fill="#4677c8"/>
<text x="451" y="211">821  6.2%</text>
<text x="230" y="231" text-anchor="end">__addsf3</text>
<rect x="236" y="221" width="210" height="13" fill="#4677c8"/>
<text x="451" y="231">821  6.2%</text>
<text x="230" y="251" text-anchor="end">__udivmodhi4_loop</text>
<rect x="236" y="241" width="201" height="13" fill="#4677c8"/>
<text x="442" y="251">784  5.9%</text>
<text x="230" y="271" text-anchor="end">__subsf3</text>
<rect x="236" y="261" width="99" height="13" fill="#4677c8"/>
<text x="340" y="271">388  2.9%</text>
<text x="230" y="291" text-anchor="end">.do_clear_bss_start</text>
<rect x="236" y="281" width="86" height="13" fill="#4677c8"/>
<text x="327" y="291">337  2.5%</text>
<text x="230" y="311" text-anchor="end">.do_clear_bss_loop</text>
<rect x="236" y="301" width="86" height="13" fill="#4677c8"/>
<text x="327" y="311">336  2.5%</text>
<text x="230" y="331" text-anchor="end">__USER_SIGNATURE_REGION_LENGTH__</text>
<rect x="236" y="321" width="49" height="13" fill="#4677c8"/>
<text x="290" y="331">192  1.4%</text>
<text x="230" y="351" text-anchor="end">__floatsisf</text>
<rect x="236" y="341" width="13" height="13" fill="#4677c8"/>
<text x="254" y="351">52  0.4%</text>
<text x="230" y="371" text-anchor="end">__fp_szero</text>
<rect x="236" y="361" width="13" height="13" fill="#4677c8"/>
<text x="254" y="371">50  0.4%</text>
<text x="230" y="391" text-anchor="end">_div</text>
<rect x="236" y="381" width="13" height="13" fill="#4677c8"/>
<text x="254" y="391">49  0.4%</text>
<text x="230" y="411" text-anchor="end">__udivmodhi4</text>
<rect x="236" y="401" width="13" height="13" fill="#4677c8"/>
<text x="254" y="411">49  0.4%</text>
<text x="230" y="431" text-anchor="end">__divmodhi4_exit</text>
<rect x="236" y="421" width="13" height="13" fill="#4677c8"/>
<text x="254" y="431">49  0.4%</text>
<text x="230" y="451" text-anchor="end">__fp_zero</text>
<rect x="236" y="441" width="1" height="13" fill="#4677c8"/>
<text x="242" y="451">5  0.0%</text>
</svg>
