<svg xmlns="http://www.w3.org/2000/svg" width="876" height="472" font-family="monospace" font-size="12">
<rect width="876" height="472" fill="white"/>
<text x="10" y="22" font-size="15" font-weight="bold">22-biquad function-mix (cycles) — cat2-22-biquad-i11-8879155f-1781456707</text>
<text x="10" y="42" font-size="11" fill="#555">total 2953323 across 26 entries; top 20 = 100.0%</text>
<text x="230" y="71" text-anchor="end">__mulsf3_pse</text>
<rect x="236" y="61" width="470" height="13" fill="#4677c8"/>
<text x="711" y="71">852570  28.9%</text>
<text x="230" y="91" text-anchor="end">__addsf3x</text>
<rect x="236" y="81" width="303" height="13" fill="#4677c8"/>
<text x="544" y="91">550072  18.6%</text>
<text x="230" y="111" text-anchor="end">run_workload</text>
<rect x="236" y="101" width="230" height="13" fill="#4677c8"/>
<text x="471" y="111">417623  14.1%</text>
<text x="230" y="131" text-anchor="end">__fp_round</text>
<rect x="236" y="121" width="161" height="13" fill="#4677c8"/>
<text x="402" y="131">291440  9.9%</text>
<text x="230" y="151" text-anchor="end">__USER_SIGNATURE_REGION_LENGTH__</text>
<rect x="236" y="141" width="128" height="13" fill="#4677c8"/>
<text x="369" y="151">232640  7.9%</text>
<text x="230" y="171" text-anchor="end">__fp_splitA</text>
<rect x="236" y="161" width="120" height="13" fill="#4677c8"/>
<text x="361" y="171">217936  7.4%</text>
<text x="230" y="191" text-anchor="end">__fp_split3</text>
<rect x="236" y="181" width="86" height="13" fill="#4677c8"/>
<text x="327" y="191">156725  5.3%</text>
<text x="230" y="211" text-anchor="end">__addsf3</text>
<rect x="236" y="201" width="45" height="13" fill="#4677c8"/>
<text x="286" y="211">80919  2.7%</text>
<text x="230" y="231" text-anchor="end">__mulsf3</text>
<rect x="236" y="221" width="41" height="13" fill="#4677c8"/>
<text x="282" y="231">75069  2.5%</text>
<text x="230" y="251" text-anchor="end">__mulsf3x</text>
<rect x="236" y="241" width="29" height="13" fill="#4677c8"/>
<text x="270" y="251">53115  1.8%</text>
<text x="230" y="271" text-anchor="end">__udivmodhi4_loop</text>
<rect x="236" y="261" width="3" height="13" fill="#4677c8"/>
<text x="244" y="271">5715  0.2%</text>
<text x="230" y="291" text-anchor="end">__udivmodhi4_ep</text>
<rect x="236" y="281" width="3" height="13" fill="#4677c8"/>
<text x="244" y="291">5428  0.2%</text>
<text x="230" y="311" text-anchor="end">__subsf3</text>
<rect x="236" y="301" width="2" height="13" fill="#4677c8"/>
<text x="243" y="311">4228  0.1%</text>
<text x="230" y="331" text-anchor="end">__floatsisf</text>
<rect x="236" y="321" width="2" height="13" fill="#4677c8"/>
<text x="243" y="331">3104  0.1%</text>
<text x="230" y="351" text-anchor="end">__fp_szero</text>
<rect x="236" y="341" width="1" height="13" fill="#4677c8"/>
<text x="242" y="351">2025  0.1%</text>
<text x="230" y="371" text-anchor="end">.do_clear_bss_start</text>
<rect x="236" y="361" width="1" height="13" fill="#4677c8"/>
<text x="242" y="371">1351  0.0%</text>
<text x="230" y="391" text-anchor="end">main</text>
<rect x="236" y="381" width="1" height="13" fill="#4677c8"/>
<text x="242" y="391">1064  0.0%</text>
<text x="230" y="411" text-anchor="end">_div</text>
<rect x="236" y="401" width="1" height="13" fill="#4677c8"/>
<text x="242" y="411">826  0.0%</text>
<text x="230" y="431" text-anchor="end">.do_clear_bss_loop</text>
<rect x="236" y="421" width="1" height="13" fill="#4677c8"/>
<text x="242" y="431">672  0.0%</text>
<text x="230" y="451" text-anchor="end">__udivmodhi4</text>
<rect x="236" y="441" width="1" height="13" fill="#4677c8"/>
<text x="242" y="451">295  0.0%</text>
</svg>
