<svg xmlns="http://www.w3.org/2000/svg" width="736" height="472" font-family="monospace" font-size="12">
<rect width="736" height="472" fill="white"/>
<text x="10" y="22" font-size="15" font-weight="bold">22-biquad op-mix (cycles) — cat2-22-biquad-i11-8879155f-1781456707</text>
<text x="10" y="42" font-size="11" fill="#555">total 2953323 across 51 entries; top 20 = 87.6%</text>
<text x="90" y="71" text-anchor="end">adc</text>
<rect x="96" y="61" width="470" height="13" fill="#4677c8"/>
<text x="571" y="71">257187  8.7%</text>
<text x="90" y="91" text-anchor="end">call</text>
<rect x="96" y="81" width="431" height="13" fill="#4677c8"/>
<text x="532" y="91">236056  8.0%</text>
<text x="90" y="111" text-anchor="end">ret</text>
<rect x="96" y="101" width="431" height="13" fill="#4677c8"/>
<text x="532" y="111">236052  8.0%</text>
<text x="90" y="131" text-anchor="end">brbs</text>
<rect x="96" y="121" width="422" height="13" fill="#4677c8"/>
<text x="523" y="131">231057  7.8%</text>
<text x="90" y="151" text-anchor="end">add</text>
<rect x="96" y="141" width="392" height="13" fill="#4677c8"/>
<text x="493" y="151">214754  7.3%</text>
<text x="90" y="171" text-anchor="end">mul</text>
<rect x="96" y="161" width="382" height="13" fill="#4677c8"/>
<text x="483" y="171">209274  7.1%</text>
<text x="90" y="191" text-anchor="end">brbc</text>
<rect x="96" y="181" width="349" height="13" fill="#4677c8"/>
<text x="450" y="191">190739  6.5%</text>
<text x="90" y="211" text-anchor="end">ror_inst</text>
<rect x="96" y="201" width="259" height="13" fill="#4677c8"/>
<text x="360" y="211">141805  4.8%</text>
<text x="90" y="231" text-anchor="end">ldd_y</text>
<rect x="96" y="221" width="197" height="13" fill="#4677c8"/>
<text x="298" y="231">107944  3.7%</text>
<text x="90" y="251" text-anchor="end">std_y</text>
<rect x="96" y="241" width="170" height="13" fill="#4677c8"/>
<text x="271" y="251">93008  3.1%</text>
<text x="90" y="271" text-anchor="end">eor</text>
<rect x="96" y="261" width="169" height="13" fill="#4677c8"/>
<text x="270" y="271">92711  3.1%</text>
<text x="90" y="291" text-anchor="end">ldd_z</text>
<rect x="96" y="281" width="154" height="13" fill="#4677c8"/>
<text x="255" y="291">84496  2.9%</text>
<text x="90" y="311" text-anchor="end">mov</text>
<rect x="96" y="301" width="152" height="13" fill="#4677c8"/>
<text x="253" y="311">83402  2.8%</text>
<text x="90" y="331" text-anchor="end">movw</text>
<rect x="96" y="321" width="125" height="13" fill="#4677c8"/>
<text x="226" y="331">68613  2.3%</text>
<text x="90" y="351" text-anchor="end">sbci</text>
<rect x="96" y="341" width="115" height="13" fill="#4677c8"/>
<text x="216" y="351">63011  2.1%</text>
<text x="90" y="371" text-anchor="end">cpi</text>
<rect x="96" y="361" width="110" height="13" fill="#4677c8"/>
<text x="211" y="371">60239  2.0%</text>
<text x="90" y="391" text-anchor="end">jmp</text>
<rect x="96" y="381" width="109" height="13" fill="#4677c8"/>
<text x="210" y="391">59520  2.0%</text>
<text x="90" y="411" text-anchor="end">ld_x_postinc</text>
<rect x="96" y="401" width="100" height="13" fill="#4677c8"/>
<text x="201" y="411">54978  1.9%</text>
<text x="90" y="431" text-anchor="end">st_x_postinc</text>
<rect x="96" y="421" width="95" height="13" fill="#4677c8"/>
<text x="196" y="431">51848  1.8%</text>
<text x="90" y="451" text-anchor="end">cpc</text>
<rect x="96" y="441" width="94" height="13" fill="#4677c8"/>
<text x="195" y="451">51234  1.7%</text>
</svg>
