<svg xmlns="http://www.w3.org/2000/svg" width="736" height="472" font-family="monospace" font-size="12">
<rect width="736" height="472" fill="white"/>
<text x="10" y="22" font-size="15" font-weight="bold">22-biquad op-mix (cycles) — cat2-22-biquad-i1-8ddadf47-1781456703</text>
<text x="10" y="42" font-size="11" fill="#555">total 290182 across 51 entries; top 20 = 87.0%</text>
<text x="90" y="71" text-anchor="end">adc</text>
<rect x="96" y="61" width="470" height="13" fill="#4677c8"/>
<text x="571" y="71">27144  9.4%</text>
<text x="90" y="91" text-anchor="end">brbs</text>
<rect x="96" y="81" width="402" height="13" fill="#4677c8"/>
<text x="503" y="91">23195  8.0%</text>
<text x="90" y="111" text-anchor="end">call</text>
<rect x="96" y="101" width="392" height="13" fill="#4677c8"/>
<text x="493" y="111">22616  7.8%</text>
<text x="90" y="131" text-anchor="end">ret</text>
<rect x="96" y="121" width="392" height="13" fill="#4677c8"/>
<text x="493" y="131">22612  7.8%</text>
<text x="90" y="151" text-anchor="end">brbc</text>
<rect x="96" y="141" width="354" height="13" fill="#4677c8"/>
<text x="455" y="151">20428  7.0%</text>
<text x="90" y="171" text-anchor="end">add</text>
<rect x="96" y="161" width="350" height="13" fill="#4677c8"/>
<text x="451" y="171">20239  7.0%</text>
<text x="90" y="191" text-anchor="end">mul</text>
<rect x="96" y="181" width="337" height="13" fill="#4677c8"/>
<text x="438" y="191">19450  6.7%</text>
<text x="90" y="211" text-anchor="end">ror_inst</text>
<rect x="96" y="201" width="227" height="13" fill="#4677c8"/>
<text x="328" y="211">13104  4.5%</text>
<text x="90" y="231" text-anchor="end">ldd_y</text>
<rect x="96" y="221" width="170" height="13" fill="#4677c8"/>
<text x="271" y="231">9824  3.4%</text>
<text x="90" y="251" text-anchor="end">eor</text>
<rect x="96" y="241" width="154" height="13" fill="#4677c8"/>
<text x="255" y="251">8889  3.1%</text>
<text x="90" y="271" text-anchor="end">std_y</text>
<rect x="96" y="261" width="147" height="13" fill="#4677c8"/>
<text x="248" y="271">8488  2.9%</text>
<text x="90" y="291" text-anchor="end">mov</text>
<rect x="96" y="281" width="136" height="13" fill="#4677c8"/>
<text x="237" y="291">7857  2.7%</text>
<text x="90" y="311" text-anchor="end">ldd_z</text>
<rect x="96" y="301" width="133" height="13" fill="#4677c8"/>
<text x="234" y="311">7696  2.7%</text>
<text x="90" y="331" text-anchor="end">movw</text>
<rect x="96" y="321" width="116" height="13" fill="#4677c8"/>
<text x="217" y="331">6696  2.3%</text>
<text x="90" y="351" text-anchor="end">cpi</text>
<rect x="96" y="341" width="103" height="13" fill="#4677c8"/>
<text x="204" y="351">5940  2.0%</text>
<text x="90" y="371" text-anchor="end">cpc</text>
<rect x="96" y="361" width="102" height="13" fill="#4677c8"/>
<text x="203" y="371">5890  2.0%</text>
<text x="90" y="391" text-anchor="end">sbci</text>
<rect x="96" y="381" width="101" height="13" fill="#4677c8"/>
<text x="202" y="391">5839  2.0%</text>
<text x="90" y="411" text-anchor="end">st_x_postinc</text>
<rect x="96" y="401" width="100" height="13" fill="#4677c8"/>
<text x="201" y="411">5768  2.0%</text>
<text x="90" y="431" text-anchor="end">jmp</text>
<rect x="96" y="421" width="98" height="13" fill="#4677c8"/>
<text x="199" y="431">5655  1.9%</text>
<text x="90" y="451" text-anchor="end">ld_x_postinc</text>
<rect x="96" y="441" width="87" height="13" fill="#4677c8"/>
<text x="188" y="451">4998  1.7%</text>
</svg>
