<svg xmlns="http://www.w3.org/2000/svg" width="736" height="472" font-family="monospace" font-size="12">
<rect width="736" height="472" fill="white"/>
<text x="10" y="22" font-size="15" font-weight="bold">22-biquad op-mix (insts) — cat2-22-biquad-i1-8ddadf47-1781456703</text>
<text x="10" y="42" font-size="11" fill="#555">total 204933 across 51 entries; top 20 = 86.0%</text>
<text x="90" y="71" text-anchor="end">adc</text>
<rect x="96" y="61" width="470" height="13" fill="#4677c8"/>
<text x="571" y="71">27144  13.2%</text>
<text x="90" y="91" text-anchor="end">add</text>
<rect x="96" y="81" width="350" height="13" fill="#4677c8"/>
<text x="451" y="91">20239  9.9%</text>
<text x="90" y="111" text-anchor="end">brbs</text>
<rect x="96" y="101" width="323" height="13" fill="#4677c8"/>
<text x="424" y="111">18666  9.1%</text>
<text x="90" y="131" text-anchor="end">ror_inst</text>
<rect x="96" y="121" width="227" height="13" fill="#4677c8"/>
<text x="328" y="131">13104  6.4%</text>
<text x="90" y="151" text-anchor="end">brbc</text>
<rect x="96" y="141" width="199" height="13" fill="#4677c8"/>
<text x="300" y="151">11487  5.6%</text>
<text x="90" y="171" text-anchor="end">mul</text>
<rect x="96" y="161" width="168" height="13" fill="#4677c8"/>
<text x="269" y="171">9725  4.7%</text>
<text x="90" y="191" text-anchor="end">eor</text>
<rect x="96" y="181" width="154" height="13" fill="#4677c8"/>
<text x="255" y="191">8889  4.3%</text>
<text x="90" y="211" text-anchor="end">mov</text>
<rect x="96" y="201" width="136" height="13" fill="#4677c8"/>
<text x="237" y="211">7857  3.8%</text>
<text x="90" y="231" text-anchor="end">movw</text>
<rect x="96" y="221" width="116" height="13" fill="#4677c8"/>
<text x="217" y="231">6696  3.3%</text>
<text x="90" y="251" text-anchor="end">cpi</text>
<rect x="96" y="241" width="103" height="13" fill="#4677c8"/>
<text x="204" y="251">5940  2.9%</text>
<text x="90" y="271" text-anchor="end">cpc</text>
<rect x="96" y="261" width="102" height="13" fill="#4677c8"/>
<text x="203" y="271">5890  2.9%</text>
<text x="90" y="291" text-anchor="end">sbci</text>
<rect x="96" y="281" width="101" height="13" fill="#4677c8"/>
<text x="202" y="291">5839  2.8%</text>
<text x="90" y="311" text-anchor="end">call</text>
<rect x="96" y="301" width="98" height="13" fill="#4677c8"/>
<text x="199" y="311">5654  2.8%</text>
<text x="90" y="331" text-anchor="end">ret</text>
<rect x="96" y="321" width="98" height="13" fill="#4677c8"/>
<text x="199" y="331">5653  2.8%</text>
<text x="90" y="351" text-anchor="end">ldd_y</text>
<rect x="96" y="341" width="85" height="13" fill="#4677c8"/>
<text x="186" y="351">4912  2.4%</text>
<text x="90" y="371" text-anchor="end">std_y</text>
<rect x="96" y="361" width="73" height="13" fill="#4677c8"/>
<text x="174" y="371">4244  2.1%</text>
<text x="90" y="391" text-anchor="end">ldd_z</text>
<rect x="96" y="381" width="67" height="13" fill="#4677c8"/>
<text x="168" y="391">3848  1.9%</text>
<text x="90" y="411" text-anchor="end">subi</text>
<rect x="96" y="401" width="66" height="13" fill="#4677c8"/>
<text x="167" y="411">3818  1.9%</text>
<text x="90" y="431" text-anchor="end">inc</text>
<rect x="96" y="421" width="66" height="13" fill="#4677c8"/>
<text x="167" y="431">3806  1.9%</text>
<text x="90" y="451" text-anchor="end">lsr</text>
<rect x="96" y="441" width="50" height="13" fill="#4677c8"/>
<text x="151" y="451">2909  1.4%</text>
</svg>
