<svg xmlns="http://www.w3.org/2000/svg" width="785" height="472" font-family="monospace" font-size="12">
<rect width="785" height="472" fill="white"/>
<text x="10" y="22" font-size="15" font-weight="bold">21-fir function-mix (cycles) — cat2-21-fir-i1-d696000c-1781456695</text>
<text x="10" y="42" font-size="11" fill="#555">total 249264 across 25 entries; top 20 = 100.0%</text>
<text x="139" y="71" text-anchor="end">__mulsf3_pse</text>
<rect x="145" y="61" width="470" height="13" fill="#4677c8"/>
<text x="620" y="71">55715  22.4%</text>
<text x="139" y="91" text-anchor="end">run_workload</text>
<rect x="145" y="81" width="417" height="13" fill="#4677c8"/>
<text x="567" y="91">49388  19.8%</text>
<text x="139" y="111" text-anchor="end">__addsf3x</text>
<rect x="145" y="101" width="404" height="13" fill="#4677c8"/>
<text x="554" y="111">47865  19.2%</text>
<text x="139" y="131" text-anchor="end">__fp_round</text>
<rect x="145" y="121" width="191" height="13" fill="#4677c8"/>
<text x="341" y="131">22593  9.1%</text>
<text x="139" y="151" text-anchor="end">__fp_splitA</text>
<rect x="145" y="141" width="174" height="13" fill="#4677c8"/>
<text x="324" y="151">20591  8.3%</text>
<text x="139" y="171" text-anchor="end">__fp_split3</text>
<rect x="145" y="161" width="108" height="13" fill="#4677c8"/>
<text x="258" y="171">12844  5.2%</text>
<text x="139" y="191" text-anchor="end">__addsf3</text>
<rect x="145" y="181" width="62" height="13" fill="#4677c8"/>
<text x="212" y="191">7353  2.9%</text>
<text x="139" y="211" text-anchor="end">__mulsf3</text>
<rect x="145" y="201" width="55" height="13" fill="#4677c8"/>
<text x="205" y="211">6559  2.6%</text>
<text x="139" y="231" text-anchor="end">__udivmodhi4_loop</text>
<rect x="145" y="221" width="53" height="13" fill="#4677c8"/>
<text x="203" y="231">6300  2.5%</text>
<text x="139" y="251" text-anchor="end">__udivmodhi4_ep</text>
<rect x="145" y="241" width="50" height="13" fill="#4677c8"/>
<text x="200" y="251">5980  2.4%</text>
<text x="139" y="271" text-anchor="end">__mulsf3x</text>
<rect x="145" y="261" width="35" height="13" fill="#4677c8"/>
<text x="185" y="271">4165  1.7%</text>
<text x="139" y="291" text-anchor="end">__floatsisf</text>
<rect x="145" y="281" width="33" height="13" fill="#4677c8"/>
<text x="183" y="291">3868  1.6%</text>
<text x="139" y="311" text-anchor="end">__fp_szero</text>
<rect x="145" y="301" width="14" height="13" fill="#4677c8"/>
<text x="164" y="311">1674  0.7%</text>
<text x="139" y="331" text-anchor="end">main</text>
<rect x="145" y="321" width="9" height="13" fill="#4677c8"/>
<text x="159" y="331">1064  0.4%</text>
<text x="139" y="351" text-anchor="end">.do_clear_bss_start</text>
<rect x="145" y="341" width="9" height="13" fill="#4677c8"/>
<text x="159" y="351">1031  0.4%</text>
<text x="139" y="371" text-anchor="end">_div</text>
<rect x="145" y="361" width="8" height="13" fill="#4677c8"/>
<text x="158" y="371">910  0.4%</text>
<text x="139" y="391" text-anchor="end">.do_clear_bss_loop</text>
<rect x="145" y="381" width="4" height="13" fill="#4677c8"/>
<text x="154" y="391">512  0.2%</text>
<text x="139" y="411" text-anchor="end">__udivmodhi4</text>
<rect x="145" y="401" width="3" height="13" fill="#4677c8"/>
<text x="153" y="411">325  0.1%</text>
<text x="139" y="431" text-anchor="end">__divmodhi4_exit</text>
<rect x="145" y="421" width="2" height="13" fill="#4677c8"/>
<text x="152" y="431">260  0.1%</text>
<text x="139" y="451" text-anchor="end">__do_copy_data</text>
<rect x="145" y="441" width="2" height="13" fill="#4677c8"/>
<text x="152" y="451">208  0.1%</text>
</svg>
