<svg xmlns="http://www.w3.org/2000/svg" width="736" height="472" font-family="monospace" font-size="12">
<rect width="736" height="472" fill="white"/>
<text x="10" y="22" font-size="15" font-weight="bold">21-fir op-mix (cycles) — cat2-21-fir-i1-d696000c-1781456695</text>
<text x="10" y="42" font-size="11" fill="#555">total 249264 across 51 entries; top 20 = 88.2%</text>
<text x="90" y="71" text-anchor="end">adc</text>
<rect x="96" y="61" width="470" height="13" fill="#4677c8"/>
<text x="571" y="71">24636  9.9%</text>
<text x="90" y="91" text-anchor="end">brbs</text>
<rect x="96" y="81" width="446" height="13" fill="#4677c8"/>
<text x="547" y="91">23363  9.4%</text>
<text x="90" y="111" text-anchor="end">call</text>
<rect x="96" y="101" width="393" height="13" fill="#4677c8"/>
<text x="494" y="111">20584  8.3%</text>
<text x="90" y="131" text-anchor="end">ret</text>
<rect x="96" y="121" width="393" height="13" fill="#4677c8"/>
<text x="494" y="131">20580  8.3%</text>
<text x="90" y="151" text-anchor="end">brbc</text>
<rect x="96" y="141" width="358" height="13" fill="#4677c8"/>
<text x="459" y="151">18772  7.5%</text>
<text x="90" y="171" text-anchor="end">add</text>
<rect x="96" y="161" width="316" height="13" fill="#4677c8"/>
<text x="417" y="171">16568  6.6%</text>
<text x="90" y="191" text-anchor="end">mov</text>
<rect x="96" y="181" width="283" height="13" fill="#4677c8"/>
<text x="384" y="191">14835  6.0%</text>
<text x="90" y="211" text-anchor="end">mul</text>
<rect x="96" y="201" width="255" height="13" fill="#4677c8"/>
<text x="356" y="211">13384  5.4%</text>
<text x="90" y="231" text-anchor="end">ror_inst</text>
<rect x="96" y="221" width="192" height="13" fill="#4677c8"/>
<text x="293" y="231">10082  4.0%</text>
<text x="90" y="251" text-anchor="end">eor</text>
<rect x="96" y="241" width="146" height="13" fill="#4677c8"/>
<text x="247" y="251">7646  3.1%</text>
<text x="90" y="271" text-anchor="end">cpc</text>
<rect x="96" y="261" width="133" height="13" fill="#4677c8"/>
<text x="234" y="271">6973  2.8%</text>
<text x="90" y="291" text-anchor="end">movw</text>
<rect x="96" y="281" width="128" height="13" fill="#4677c8"/>
<text x="229" y="291">6709  2.7%</text>
<text x="90" y="311" text-anchor="end">ld_x_postinc</text>
<rect x="96" y="301" width="117" height="13" fill="#4677c8"/>
<text x="218" y="311">6150  2.5%</text>
<text x="90" y="331" text-anchor="end">jmp</text>
<rect x="96" y="321" width="105" height="13" fill="#4677c8"/>
<text x="206" y="331">5511  2.2%</text>
<text x="90" y="351" text-anchor="end">ldd_z</text>
<rect x="96" y="341" width="99" height="13" fill="#4677c8"/>
<text x="200" y="351">5200  2.1%</text>
<text x="90" y="371" text-anchor="end">cpi</text>
<rect x="96" y="361" width="96" height="13" fill="#4677c8"/>
<text x="197" y="371">5049  2.0%</text>
<text x="90" y="391" text-anchor="end">subi</text>
<rect x="96" y="381" width="72" height="13" fill="#4677c8"/>
<text x="173" y="391">3756  1.5%</text>
<text x="90" y="411" text-anchor="end">sbci</text>
<rect x="96" y="401" width="70" height="13" fill="#4677c8"/>
<text x="171" y="411">3682  1.5%</text>
<text x="90" y="431" text-anchor="end">cp</text>
<rect x="96" y="421" width="65" height="13" fill="#4677c8"/>
<text x="166" y="431">3408  1.4%</text>
<text x="90" y="451" text-anchor="end">rjmp</text>
<rect x="96" y="441" width="56" height="13" fill="#4677c8"/>
<text x="157" y="451">2910  1.2%</text>
</svg>
