<svg xmlns="http://www.w3.org/2000/svg" width="785" height="472" font-family="monospace" font-size="12">
<rect width="785" height="472" fill="white"/>
<text x="10" y="22" font-size="15" font-weight="bold">21-fir function calls (count) — cat2-21-fir-i1-d696000c-1781456695</text>
<text x="10" y="42" font-size="11" fill="#555">total 12197 across 25 entries; top 20 = 100.0%</text>
<text x="139" y="71" text-anchor="end">__fp_split3</text>
<rect x="145" y="61" width="470" height="13" fill="#4677c8"/>
<text x="620" y="71">1650  13.5%</text>
<text x="139" y="91" text-anchor="end">__fp_round</text>
<rect x="145" y="81" width="470" height="13" fill="#4677c8"/>
<text x="620" y="91">1650  13.5%</text>
<text x="139" y="111" text-anchor="end">__fp_splitA</text>
<rect x="145" y="101" width="470" height="13" fill="#4677c8"/>
<text x="620" y="111">1650  13.5%</text>
<text x="139" y="131" text-anchor="end">__udivmodhi4_ep</text>
<rect x="145" y="121" width="315" height="13" fill="#4677c8"/>
<text x="465" y="131">1105  9.1%</text>
<text x="139" y="151" text-anchor="end">__udivmodhi4_loop</text>
<rect x="145" y="141" width="296" height="13" fill="#4677c8"/>
<text x="446" y="151">1040  8.5%</text>
<text x="139" y="171" text-anchor="end">__mulsf3x</text>
<rect x="145" y="161" width="237" height="13" fill="#4677c8"/>
<text x="387" y="171">833  6.8%</text>
<text x="139" y="191" text-anchor="end">__mulsf3</text>
<rect x="145" y="181" width="237" height="13" fill="#4677c8"/>
<text x="387" y="191">833  6.8%</text>
<text x="139" y="211" text-anchor="end">__mulsf3_pse</text>
<rect x="145" y="201" width="237" height="13" fill="#4677c8"/>
<text x="387" y="211">833  6.8%</text>
<text x="139" y="231" text-anchor="end">__addsf3</text>
<rect x="145" y="221" width="233" height="13" fill="#4677c8"/>
<text x="383" y="231">817  6.7%</text>
<text x="139" y="251" text-anchor="end">__addsf3x</text>
<rect x="145" y="241" width="233" height="13" fill="#4677c8"/>
<text x="383" y="251">817  6.7%</text>
<text x="139" y="271" text-anchor="end">.do_clear_bss_start</text>
<rect x="145" y="261" width="73" height="13" fill="#4677c8"/>
<text x="223" y="271">257  2.1%</text>
<text x="139" y="291" text-anchor="end">.do_clear_bss_loop</text>
<rect x="145" y="281" width="73" height="13" fill="#4677c8"/>
<text x="223" y="291">256  2.1%</text>
<text x="139" y="311" text-anchor="end">__fp_szero</text>
<rect x="145" y="301" width="53" height="13" fill="#4677c8"/>
<text x="203" y="311">186  1.5%</text>
<text x="139" y="331" text-anchor="end">__udivmodhi4</text>
<rect x="145" y="321" width="19" height="13" fill="#4677c8"/>
<text x="169" y="331">65  0.5%</text>
<text x="139" y="351" text-anchor="end">__divmodhi4_exit</text>
<rect x="145" y="341" width="19" height="13" fill="#4677c8"/>
<text x="169" y="351">65  0.5%</text>
<text x="139" y="371" text-anchor="end">_div</text>
<rect x="145" y="361" width="19" height="13" fill="#4677c8"/>
<text x="169" y="371">65  0.5%</text>
<text x="139" y="391" text-anchor="end">__floatsisf</text>
<rect x="145" y="381" width="18" height="13" fill="#4677c8"/>
<text x="168" y="391">64  0.5%</text>
<text x="139" y="411" text-anchor="end">__fp_zero</text>
<rect x="145" y="401" width="1" height="13" fill="#4677c8"/>
<text x="151" y="411">4  0.0%</text>
<text x="139" y="431" text-anchor="end">main</text>
<rect x="145" y="421" width="1" height="13" fill="#4677c8"/>
<text x="151" y="431">1  0.0%</text>
<text x="139" y="451" text-anchor="end">__do_clear_bss</text>
<rect x="145" y="441" width="1" height="13" fill="#4677c8"/>
<text x="151" y="451">1  0.0%</text>
</svg>
