<svg xmlns="http://www.w3.org/2000/svg" width="736" height="472" font-family="monospace" font-size="12">
<rect width="736" height="472" fill="white"/>
<text x="10" y="22" font-size="15" font-weight="bold">31-conv2d op-mix (insts) — cat3-31-conv2d-i11-a66d5a39-1781457072</text>
<text x="10" y="42" font-size="11" fill="#555">total 1966232 across 49 entries; top 20 = 90.3%</text>
<text x="90" y="71" text-anchor="end">adc</text>
<rect x="96" y="61" width="470" height="13" fill="#4677c8"/>
<text x="571" y="71">300232  15.3%</text>
<text x="90" y="91" text-anchor="end">mov</text>
<rect x="96" y="81" width="305" height="13" fill="#4677c8"/>
<text x="406" y="91">195093  9.9%</text>
<text x="90" y="111" text-anchor="end">add</text>
<rect x="96" y="101" width="273" height="13" fill="#4677c8"/>
<text x="374" y="111">174560  8.9%</text>
<text x="90" y="131" text-anchor="end">sbc</text>
<rect x="96" y="121" width="199" height="13" fill="#4677c8"/>
<text x="300" y="131">127128  6.5%</text>
<text x="90" y="151" text-anchor="end">mul</text>
<rect x="96" y="141" width="179" height="13" fill="#4677c8"/>
<text x="280" y="151">114048  5.8%</text>
<text x="90" y="171" text-anchor="end">brbc</text>
<rect x="96" y="161" width="143" height="13" fill="#4677c8"/>
<text x="244" y="171">91186  4.6%</text>
<text x="90" y="191" text-anchor="end">std_y</text>
<rect x="96" y="181" width="127" height="13" fill="#4677c8"/>
<text x="228" y="191">81102  4.1%</text>
<text x="90" y="211" text-anchor="end">movw</text>
<rect x="96" y="201" width="126" height="13" fill="#4677c8"/>
<text x="227" y="211">80765  4.1%</text>
<text x="90" y="231" text-anchor="end">ldd_y</text>
<rect x="96" y="221" width="121" height="13" fill="#4677c8"/>
<text x="222" y="231">77308  3.9%</text>
<text x="90" y="251" text-anchor="end">eor</text>
<rect x="96" y="241" width="117" height="13" fill="#4677c8"/>
<text x="218" y="251">74762  3.8%</text>
<text x="90" y="271" text-anchor="end">call</text>
<rect x="96" y="261" width="100" height="13" fill="#4677c8"/>
<text x="201" y="271">63762  3.2%</text>
<text x="90" y="291" text-anchor="end">ret</text>
<rect x="96" y="281" width="100" height="13" fill="#4677c8"/>
<text x="201" y="291">63761  3.2%</text>
<text x="90" y="311" text-anchor="end">ldi</text>
<rect x="96" y="301" width="86" height="13" fill="#4677c8"/>
<text x="187" y="311">55039  2.8%</text>
<text x="90" y="331" text-anchor="end">subi</text>
<rect x="96" y="321" width="84" height="13" fill="#4677c8"/>
<text x="185" y="331">53866  2.7%</text>
<text x="90" y="351" text-anchor="end">cpc</text>
<rect x="96" y="341" width="81" height="13" fill="#4677c8"/>
<text x="182" y="351">51762  2.6%</text>
<text x="90" y="371" text-anchor="end">sub</text>
<rect x="96" y="361" width="78" height="13" fill="#4677c8"/>
<text x="179" y="371">49900  2.5%</text>
<text x="90" y="391" text-anchor="end">cpi</text>
<rect x="96" y="381" width="55" height="13" fill="#4677c8"/>
<text x="156" y="391">35250  1.8%</text>
<text x="90" y="411" text-anchor="end">ld_z_postinc</text>
<rect x="96" y="401" width="45" height="13" fill="#4677c8"/>
<text x="146" y="411">28841  1.5%</text>
<text x="90" y="431" text-anchor="end">and</text>
<rect x="96" y="421" width="45" height="13" fill="#4677c8"/>
<text x="146" y="431">28523  1.5%</text>
<text x="90" y="451" text-anchor="end">jmp</text>
<rect x="96" y="441" width="45" height="13" fill="#4677c8"/>
<text x="146" y="451">28513  1.5%</text>
</svg>
