<svg xmlns="http://www.w3.org/2000/svg" width="876" height="472" font-family="monospace" font-size="12">
<rect width="876" height="472" fill="white"/>
<text x="10" y="22" font-size="15" font-weight="bold">31-conv2d function calls (count) — cat3-31-conv2d-i11-a66d5a39-1781457072</text>
<text x="10" y="42" font-size="11" fill="#555">total 102967 across 21 entries; top 20 = 100.0%</text>
<text x="230" y="71" text-anchor="end">__usmulhisi3_tail</text>
<rect x="236" y="61" width="470" height="13" fill="#4677c8"/>
<text x="711" y="71">28512  27.7%</text>
<text x="230" y="91" text-anchor="end">__umulhisi3</text>
<rect x="236" y="81" width="470" height="13" fill="#4677c8"/>
<text x="711" y="91">28512  27.7%</text>
<text x="230" y="111" text-anchor="end">__mulhisi3</text>
<rect x="236" y="101" width="470" height="13" fill="#4677c8"/>
<text x="711" y="111">28512  27.7%</text>
<text x="230" y="131" text-anchor="end">__udivmodhi4_ep</text>
<rect x="236" y="121" width="56" height="13" fill="#4677c8"/>
<text x="297" y="131">3400  3.3%</text>
<text x="230" y="151" text-anchor="end">__udivmodhi4_loop</text>
<rect x="236" y="141" width="53" height="13" fill="#4677c8"/>
<text x="294" y="151">3200  3.1%</text>
<text x="230" y="171" text-anchor="end">__cmpdi2_s8</text>
<rect x="236" y="161" width="52" height="13" fill="#4677c8"/>
<text x="293" y="171">3168  3.1%</text>
<text x="230" y="191" text-anchor="end">__USER_SIGNATURE_REGION_LENGTH__</text>
<rect x="236" y="181" width="26" height="13" fill="#4677c8"/>
<text x="267" y="191">1584  1.5%</text>
<text x="230" y="211" text-anchor="end">__ashldi3</text>
<rect x="236" y="201" width="26" height="13" fill="#4677c8"/>
<text x="267" y="211">1584  1.5%</text>
<text x="230" y="231" text-anchor="end">__lshrdi3</text>
<rect x="236" y="221" width="26" height="13" fill="#4677c8"/>
<text x="267" y="231">1584  1.5%</text>
<text x="230" y="251" text-anchor="end">__ashrdi3</text>
<rect x="236" y="241" width="26" height="13" fill="#4677c8"/>
<text x="267" y="251">1584  1.5%</text>
<text x="230" y="271" text-anchor="end">.do_clear_bss_start</text>
<rect x="236" y="261" width="6" height="13" fill="#4677c8"/>
<text x="247" y="271">361  0.4%</text>
<text x="230" y="291" text-anchor="end">.do_clear_bss_loop</text>
<rect x="236" y="281" width="6" height="13" fill="#4677c8"/>
<text x="247" y="291">360  0.3%</text>
<text x="230" y="311" text-anchor="end">_div</text>
<rect x="236" y="301" width="3" height="13" fill="#4677c8"/>
<text x="244" y="311">200  0.2%</text>
<text x="230" y="331" text-anchor="end">__udivmodhi4</text>
<rect x="236" y="321" width="3" height="13" fill="#4677c8"/>
<text x="244" y="331">200  0.2%</text>
<text x="230" y="351" text-anchor="end">__divmodhi4_exit</text>
<rect x="236" y="341" width="3" height="13" fill="#4677c8"/>
<text x="244" y="351">200  0.2%</text>
<text x="230" y="371" text-anchor="end">run_workload</text>
<rect x="236" y="361" width="1" height="13" fill="#4677c8"/>
<text x="242" y="371">1  0.0%</text>
<text x="230" y="391" text-anchor="end">__do_clear_bss</text>
<rect x="236" y="381" width="1" height="13" fill="#4677c8"/>
<text x="242" y="391">1  0.0%</text>
<text x="230" y="411" text-anchor="end">main</text>
<rect x="236" y="401" width="1" height="13" fill="#4677c8"/>
<text x="242" y="411">1  0.0%</text>
<text x="230" y="431" text-anchor="end">__do_copy_data</text>
<rect x="236" y="421" width="1" height="13" fill="#4677c8"/>
<text x="242" y="431">1  0.0%</text>
<text x="230" y="451" text-anchor="end">__ctors_end</text>
<rect x="236" y="441" width="1" height="13" fill="#4677c8"/>
<text x="242" y="451">1  0.0%</text>
</svg>
