<svg xmlns="http://www.w3.org/2000/svg" width="896" height="472" font-family="monospace" font-size="12">
<rect width="896" height="472" fill="white"/>
<text x="10" y="22" font-size="15" font-weight="bold">31-conv2d runtime cost (calls x cyc/call) — cat3-31-conv2d-i1-79c108e0-1781457068</text>
<text x="10" y="42" font-size="11" fill="#555">cost = calls × cyc/call (= total cycles); total 333177; top 20 = 100.0%</text>
<text x="230" y="71" text-anchor="end">run_workload</text>
<rect x="236" y="61" width="420" height="13" fill="#b5651d"/>
<text x="661" y="71">106317  (1x106317)  31.9%</text>
<text x="230" y="91" text-anchor="end">__umulhisi3</text>
<rect x="236" y="81" width="225" height="13" fill="#b5651d"/>
<text x="466" y="91">57024  (2592x22)  17.1%</text>
<text x="230" y="111" text-anchor="end">__USER_SIGNATURE_REGION_LENGTH__</text>
<rect x="236" y="101" width="168" height="13" fill="#b5651d"/>
<text x="409" y="111">42643  (144x296)  12.8%</text>
<text x="230" y="131" text-anchor="end">__mulhisi3</text>
<rect x="236" y="121" width="111" height="13" fill="#b5651d"/>
<text x="352" y="131">28188  (2592x11)  8.5%</text>
<text x="230" y="151" text-anchor="end">__usmulhisi3_tail</text>
<rect x="236" y="141" width="76" height="13" fill="#b5651d"/>
<text x="317" y="151">19224  (2592x7)  5.8%</text>
<text x="230" y="171" text-anchor="end">__udivmodhi4_loop</text>
<rect x="236" y="161" width="76" height="13" fill="#b5651d"/>
<text x="317" y="171">19200  (3200x6)  5.8%</text>
<text x="230" y="191" text-anchor="end">__udivmodhi4_ep</text>
<rect x="236" y="181" width="73" height="13" fill="#b5651d"/>
<text x="314" y="191">18400  (3400x5)  5.5%</text>
<text x="230" y="211" text-anchor="end">__ashldi3</text>
<rect x="236" y="201" width="66" height="13" fill="#b5651d"/>
<text x="307" y="211">16704  (144x116)  5.0%</text>
<text x="230" y="231" text-anchor="end">__lshrdi3</text>
<rect x="236" y="221" width="51" height="13" fill="#b5651d"/>
<text x="292" y="231">12816  (144x89)  3.8%</text>
<text x="230" y="251" text-anchor="end">__cmpdi2_s8</text>
<rect x="236" y="241" width="17" height="13" fill="#b5651d"/>
<text x="258" y="251">4320  (288x15)  1.3%</text>
<text x="230" y="271" text-anchor="end">_div</text>
<rect x="236" y="261" width="11" height="13" fill="#b5651d"/>
<text x="252" y="271">2800  (200x14)  0.8%</text>
<text x="230" y="291" text-anchor="end">.do_clear_bss_start</text>
<rect x="236" y="281" width="6" height="13" fill="#b5651d"/>
<text x="247" y="291">1447  (361x4)  0.4%</text>
<text x="230" y="311" text-anchor="end">main</text>
<rect x="236" y="301" width="4" height="13" fill="#b5651d"/>
<text x="245" y="311">1064  (1x1064)  0.3%</text>
<text x="230" y="331" text-anchor="end">__udivmodhi4</text>
<rect x="236" y="321" width="4" height="13" fill="#b5651d"/>
<text x="245" y="331">1000  (200x5)  0.3%</text>
<text x="230" y="351" text-anchor="end">__divmodhi4_exit</text>
<rect x="236" y="341" width="3" height="13" fill="#b5651d"/>
<text x="244" y="351">800  (200x4)  0.2%</text>
<text x="230" y="371" text-anchor="end">.do_clear_bss_loop</text>
<rect x="236" y="361" width="3" height="13" fill="#b5651d"/>
<text x="244" y="371">720  (360x2)  0.2%</text>
<text x="230" y="391" text-anchor="end">__ashrdi3</text>
<rect x="236" y="381" width="1" height="13" fill="#b5651d"/>
<text x="242" y="391">288  (144x2)  0.1%</text>
<text x="230" y="411" text-anchor="end">__do_copy_data</text>
<rect x="236" y="401" width="1" height="13" fill="#b5651d"/>
<text x="242" y="411">208  (1x208)  0.1%</text>
<text x="230" y="431" text-anchor="end">__ctors_end</text>
<rect x="236" y="421" width="1" height="13" fill="#b5651d"/>
<text x="242" y="431">6  (1x6)  0.0%</text>
<text x="230" y="451" text-anchor="end">__do_clear_bss</text>
<rect x="236" y="441" width="1" height="13" fill="#b5651d"/>
<text x="242" y="451">5  (1x5)  0.0%</text>
</svg>
