<svg xmlns="http://www.w3.org/2000/svg" width="876" height="472" font-family="monospace" font-size="12">
<rect width="876" height="472" fill="white"/>
<text x="10" y="22" font-size="15" font-weight="bold">31-conv2d function-mix (cycles) — cat3-31-conv2d-i11-a66d5a39-1781457072</text>
<text x="10" y="42" font-size="11" fill="#555">total 2834607 across 21 entries; top 20 = 100.0%</text>
<text x="230" y="71" text-anchor="end">run_workload</text>
<rect x="236" y="61" width="470" height="13" fill="#4677c8"/>
<text x="711" y="71">1130397  39.9%</text>
<text x="230" y="91" text-anchor="end">__umulhisi3</text>
<rect x="236" y="81" width="261" height="13" fill="#4677c8"/>
<text x="502" y="91">627264  22.1%</text>
<text x="230" y="111" text-anchor="end">__mulhisi3</text>
<rect x="236" y="101" width="129" height="13" fill="#4677c8"/>
<text x="370" y="111">310068  10.9%</text>
<text x="230" y="131" text-anchor="end">__usmulhisi3_tail</text>
<rect x="236" y="121" width="88" height="13" fill="#4677c8"/>
<text x="329" y="131">211464  7.5%</text>
<text x="230" y="151" text-anchor="end">__ashldi3</text>
<rect x="236" y="141" width="76" height="13" fill="#4677c8"/>
<text x="317" y="151">183744  6.5%</text>
<text x="230" y="171" text-anchor="end">__lshrdi3</text>
<rect x="236" y="161" width="59" height="13" fill="#4677c8"/>
<text x="300" y="171">140976  5.0%</text>
<text x="230" y="191" text-anchor="end">__USER_SIGNATURE_REGION_LENGTH__</text>
<rect x="236" y="181" width="56" height="13" fill="#4677c8"/>
<text x="297" y="191">134353  4.7%</text>
<text x="230" y="211" text-anchor="end">__cmpdi2_s8</text>
<rect x="236" y="201" width="20" height="13" fill="#4677c8"/>
<text x="261" y="211">47520  1.7%</text>
<text x="230" y="231" text-anchor="end">__udivmodhi4_loop</text>
<rect x="236" y="221" width="8" height="13" fill="#4677c8"/>
<text x="249" y="231">19200  0.7%</text>
<text x="230" y="251" text-anchor="end">__udivmodhi4_ep</text>
<rect x="236" y="241" width="8" height="13" fill="#4677c8"/>
<text x="249" y="251">18400  0.6%</text>
<text x="230" y="271" text-anchor="end">__ashrdi3</text>
<rect x="236" y="261" width="1" height="13" fill="#4677c8"/>
<text x="242" y="271">3168  0.1%</text>
<text x="230" y="291" text-anchor="end">_div</text>
<rect x="236" y="281" width="1" height="13" fill="#4677c8"/>
<text x="242" y="291">2800  0.1%</text>
<text x="230" y="311" text-anchor="end">.do_clear_bss_start</text>
<rect x="236" y="301" width="1" height="13" fill="#4677c8"/>
<text x="242" y="311">1447  0.1%</text>
<text x="230" y="331" text-anchor="end">main</text>
<rect x="236" y="321" width="1" height="13" fill="#4677c8"/>
<text x="242" y="331">1064  0.0%</text>
<text x="230" y="351" text-anchor="end">__udivmodhi4</text>
<rect x="236" y="341" width="1" height="13" fill="#4677c8"/>
<text x="242" y="351">1000  0.0%</text>
<text x="230" y="371" text-anchor="end">__divmodhi4_exit</text>
<rect x="236" y="361" width="1" height="13" fill="#4677c8"/>
<text x="242" y="371">800  0.0%</text>
<text x="230" y="391" text-anchor="end">.do_clear_bss_loop</text>
<rect x="236" y="381" width="1" height="13" fill="#4677c8"/>
<text x="242" y="391">720  0.0%</text>
<text x="230" y="411" text-anchor="end">__do_copy_data</text>
<rect x="236" y="401" width="1" height="13" fill="#4677c8"/>
<text x="242" y="411">208  0.0%</text>
<text x="230" y="431" text-anchor="end">__ctors_end</text>
<rect x="236" y="421" width="1" height="13" fill="#4677c8"/>
<text x="242" y="431">6  0.0%</text>
<text x="230" y="451" text-anchor="end">__do_clear_bss</text>
<rect x="236" y="441" width="1" height="13" fill="#4677c8"/>
<text x="242" y="451">5  0.0%</text>
</svg>
