<svg xmlns="http://www.w3.org/2000/svg" width="876" height="472" font-family="monospace" font-size="12">
<rect width="876" height="472" fill="white"/>
<text x="10" y="22" font-size="15" font-weight="bold">31-conv2d function-mix (insts) — cat3-31-conv2d-i1-79c108e0-1781457068</text>
<text x="10" y="42" font-size="11" fill="#555">total 242732 across 21 entries; top 20 = 100.0%</text>
<text x="230" y="71" text-anchor="end">run_workload</text>
<rect x="236" y="61" width="470" height="13" fill="#4677c8"/>
<text x="711" y="71">76325  31.4%</text>
<text x="230" y="91" text-anchor="end">__umulhisi3</text>
<rect x="236" y="81" width="239" height="13" fill="#4677c8"/>
<text x="480" y="91">38880  16.0%</text>
<text x="230" y="111" text-anchor="end">__USER_SIGNATURE_REGION_LENGTH__</text>
<rect x="236" y="101" width="234" height="13" fill="#4677c8"/>
<text x="475" y="111">38049  15.7%</text>
<text x="230" y="131" text-anchor="end">__udivmodhi4_loop</text>
<rect x="236" y="121" width="99" height="13" fill="#4677c8"/>
<text x="340" y="131">16000  6.6%</text>
<text x="230" y="151" text-anchor="end">__mulhisi3</text>
<rect x="236" y="141" width="92" height="13" fill="#4677c8"/>
<text x="333" y="151">14904  6.1%</text>
<text x="230" y="171" text-anchor="end">__ashldi3</text>
<rect x="236" y="161" width="91" height="13" fill="#4677c8"/>
<text x="332" y="171">14832  6.1%</text>
<text x="230" y="191" text-anchor="end">__udivmodhi4_ep</text>
<rect x="236" y="181" width="90" height="13" fill="#4677c8"/>
<text x="331" y="191">14600  6.0%</text>
<text x="230" y="211" text-anchor="end">__lshrdi3</text>
<rect x="236" y="201" width="70" height="13" fill="#4677c8"/>
<text x="311" y="211">11376  4.7%</text>
<text x="230" y="231" text-anchor="end">__usmulhisi3_tail</text>
<rect x="236" y="221" width="58" height="13" fill="#4677c8"/>
<text x="299" y="231">9360  3.9%</text>
<text x="230" y="251" text-anchor="end">__cmpdi2_s8</text>
<rect x="236" y="241" width="20" height="13" fill="#4677c8"/>
<text x="261" y="251">3312  1.4%</text>
<text x="230" y="271" text-anchor="end">_div</text>
<rect x="236" y="261" width="9" height="13" fill="#4677c8"/>
<text x="250" y="271">1400  0.6%</text>
<text x="230" y="291" text-anchor="end">.do_clear_bss_start</text>
<rect x="236" y="281" width="7" height="13" fill="#4677c8"/>
<text x="248" y="291">1084  0.4%</text>
<text x="230" y="311" text-anchor="end">main</text>
<rect x="236" y="301" width="6" height="13" fill="#4677c8"/>
<text x="247" y="311">908  0.4%</text>
<text x="230" y="331" text-anchor="end">__udivmodhi4</text>
<rect x="236" y="321" width="5" height="13" fill="#4677c8"/>
<text x="246" y="331">800  0.3%</text>
<text x="230" y="351" text-anchor="end">.do_clear_bss_loop</text>
<rect x="236" y="341" width="2" height="13" fill="#4677c8"/>
<text x="243" y="351">360  0.1%</text>
<text x="230" y="371" text-anchor="end">__divmodhi4_exit</text>
<rect x="236" y="361" width="1" height="13" fill="#4677c8"/>
<text x="242" y="371">200  0.1%</text>
<text x="230" y="391" text-anchor="end">__ashrdi3</text>
<rect x="236" y="381" width="1" height="13" fill="#4677c8"/>
<text x="242" y="391">180  0.1%</text>
<text x="230" y="411" text-anchor="end">__do_copy_data</text>
<rect x="236" y="401" width="1" height="13" fill="#4677c8"/>
<text x="242" y="411">151  0.1%</text>
<text x="230" y="431" text-anchor="end">__ctors_end</text>
<rect x="236" y="421" width="1" height="13" fill="#4677c8"/>
<text x="242" y="431">6  0.0%</text>
<text x="230" y="451" text-anchor="end">__do_clear_bss</text>
<rect x="236" y="441" width="1" height="13" fill="#4677c8"/>
<text x="242" y="451">4  0.0%</text>
</svg>
