<svg xmlns="http://www.w3.org/2000/svg" width="736" height="472" font-family="monospace" font-size="12">
<rect width="736" height="472" fill="white"/>
<text x="10" y="22" font-size="15" font-weight="bold">31-conv2d op-mix (insts) — cat3-31-conv2d-i1-79c108e0-1781457068</text>
<text x="10" y="42" font-size="11" fill="#555">total 242732 across 49 entries; top 20 = 85.0%</text>
<text x="90" y="71" text-anchor="end">adc</text>
<rect x="96" y="61" width="470" height="13" fill="#4677c8"/>
<text x="571" y="71">39352  16.2%</text>
<text x="90" y="91" text-anchor="end">mov</text>
<rect x="96" y="81" width="215" height="13" fill="#4677c8"/>
<text x="316" y="91">17973  7.4%</text>
<text x="90" y="111" text-anchor="end">add</text>
<rect x="96" y="101" width="190" height="13" fill="#4677c8"/>
<text x="291" y="111">15920  6.6%</text>
<text x="90" y="131" text-anchor="end">eor</text>
<rect x="96" y="121" width="171" height="13" fill="#4677c8"/>
<text x="272" y="131">14282  5.9%</text>
<text x="90" y="151" text-anchor="end">brbc</text>
<rect x="96" y="141" width="160" height="13" fill="#4677c8"/>
<text x="261" y="151">13426  5.5%</text>
<text x="90" y="171" text-anchor="end">sbc</text>
<rect x="96" y="161" width="138" height="13" fill="#4677c8"/>
<text x="239" y="171">11568  4.8%</text>
<text x="90" y="191" text-anchor="end">mul</text>
<rect x="96" y="181" width="124" height="13" fill="#4677c8"/>
<text x="225" y="191">10368  4.3%</text>
<text x="90" y="211" text-anchor="end">movw</text>
<rect x="96" y="201" width="122" height="13" fill="#4677c8"/>
<text x="223" y="211">10205  4.2%</text>
<text x="90" y="231" text-anchor="end">cpc</text>
<rect x="96" y="221" width="99" height="13" fill="#4677c8"/>
<text x="200" y="231">8272  3.4%</text>
<text x="90" y="251" text-anchor="end">std_y</text>
<rect x="96" y="241" width="88" height="13" fill="#4677c8"/>
<text x="189" y="251">7402  3.0%</text>
<text x="90" y="271" text-anchor="end">ldd_y</text>
<rect x="96" y="261" width="85" height="13" fill="#4677c8"/>
<text x="186" y="271">7088  2.9%</text>
<text x="90" y="291" text-anchor="end">subi</text>
<rect x="96" y="281" width="76" height="13" fill="#4677c8"/>
<text x="177" y="291">6326  2.6%</text>
<text x="90" y="311" text-anchor="end">call</text>
<rect x="96" y="301" width="74" height="13" fill="#4677c8"/>
<text x="175" y="311">6162  2.5%</text>
<text x="90" y="331" text-anchor="end">ret</text>
<rect x="96" y="321" width="74" height="13" fill="#4677c8"/>
<text x="175" y="331">6161  2.5%</text>
<text x="90" y="351" text-anchor="end">andi</text>
<rect x="96" y="341" width="69" height="13" fill="#4677c8"/>
<text x="170" y="351">5770  2.4%</text>
<text x="90" y="371" text-anchor="end">sbci</text>
<rect x="96" y="361" width="68" height="13" fill="#4677c8"/>
<text x="169" y="371">5681  2.3%</text>
<text x="90" y="391" text-anchor="end">ldi</text>
<rect x="96" y="381" width="68" height="13" fill="#4677c8"/>
<text x="169" y="391">5679  2.3%</text>
<text x="90" y="411" text-anchor="end">brbs</text>
<rect x="96" y="401" width="59" height="13" fill="#4677c8"/>
<text x="160" y="411">4959  2.0%</text>
<text x="90" y="431" text-anchor="end">ror_inst</text>
<rect x="96" y="421" width="59" height="13" fill="#4677c8"/>
<text x="160" y="431">4944  2.0%</text>
<text x="90" y="451" text-anchor="end">sub</text>
<rect x="96" y="441" width="59" height="13" fill="#4677c8"/>
<text x="160" y="451">4900  2.0%</text>
</svg>
