<svg xmlns="http://www.w3.org/2000/svg" width="876" height="472" font-family="monospace" font-size="12">
<rect width="876" height="472" fill="white"/>
<text x="10" y="22" font-size="15" font-weight="bold">32-fc function-mix (insts) — cat3-32-fc-i11-b9106e3e-1781457080</text>
<text x="10" y="42" font-size="11" fill="#555">total 397443 across 21 entries; top 20 = 100.0%</text>
<text x="230" y="71" text-anchor="end">run_workload</text>
<rect x="236" y="61" width="470" height="13" fill="#4677c8"/>
<text x="711" y="71">135886  34.2%</text>
<text x="230" y="91" text-anchor="end">__umulhisi3</text>
<rect x="236" y="81" width="292" height="13" fill="#4677c8"/>
<text x="533" y="91">84480  21.3%</text>
<text x="230" y="111" text-anchor="end">__udivmodhi4_loop</text>
<rect x="236" y="101" width="154" height="13" fill="#4677c8"/>
<text x="395" y="111">44600  11.2%</text>
<text x="230" y="131" text-anchor="end">__udivmodhi4_ep</text>
<rect x="236" y="121" width="137" height="13" fill="#4677c8"/>
<text x="378" y="131">39712  10.0%</text>
<text x="230" y="151" text-anchor="end">__mulhisi3</text>
<rect x="236" y="141" width="97" height="13" fill="#4677c8"/>
<text x="338" y="151">28028  7.1%</text>
<text x="230" y="171" text-anchor="end">__usmulhisi3_tail</text>
<rect x="236" y="161" width="63" height="13" fill="#4677c8"/>
<text x="304" y="171">18304  4.6%</text>
<text x="230" y="191" text-anchor="end">__ashldi3</text>
<rect x="236" y="181" width="63" height="13" fill="#4677c8"/>
<text x="304" y="191">18128  4.6%</text>
<text x="230" y="211" text-anchor="end">__lshrdi3</text>
<rect x="236" y="201" width="48" height="13" fill="#4677c8"/>
<text x="289" y="211">13904  3.5%</text>
<text x="230" y="231" text-anchor="end">__cmpdi2_s8</text>
<rect x="236" y="221" width="14" height="13" fill="#4677c8"/>
<text x="255" y="231">4048  1.0%</text>
<text x="230" y="251" text-anchor="end">_div</text>
<rect x="236" y="241" width="13" height="13" fill="#4677c8"/>
<text x="254" y="251">3808  1.0%</text>
<text x="230" y="271" text-anchor="end">__udivmodhi4</text>
<rect x="236" y="261" width="8" height="13" fill="#4677c8"/>
<text x="249" y="271">2176  0.5%</text>
<text x="230" y="291" text-anchor="end">.do_clear_bss_start</text>
<rect x="236" y="281" width="6" height="13" fill="#4677c8"/>
<text x="247" y="291">1876  0.5%</text>
<text x="230" y="311" text-anchor="end">main</text>
<rect x="236" y="301" width="3" height="13" fill="#4677c8"/>
<text x="244" y="311">908  0.2%</text>
<text x="230" y="331" text-anchor="end">.do_clear_bss_loop</text>
<rect x="236" y="321" width="2" height="13" fill="#4677c8"/>
<text x="243" y="331">624  0.2%</text>
<text x="230" y="351" text-anchor="end">__divmodhi4_exit</text>
<rect x="236" y="341" width="2" height="13" fill="#4677c8"/>
<text x="243" y="351">544  0.1%</text>
<text x="230" y="371" text-anchor="end">__ashrdi3</text>
<rect x="236" y="361" width="1" height="13" fill="#4677c8"/>
<text x="242" y="371">242  0.1%</text>
<text x="230" y="391" text-anchor="end">__do_copy_data</text>
<rect x="236" y="381" width="1" height="13" fill="#4677c8"/>
<text x="242" y="391">151  0.0%</text>
<text x="230" y="411" text-anchor="end">__USER_SIGNATURE_REGION_LENGTH__</text>
<rect x="236" y="401" width="1" height="13" fill="#4677c8"/>
<text x="242" y="411">13  0.0%</text>
<text x="230" y="431" text-anchor="end">__ctors_end</text>
<rect x="236" y="421" width="1" height="13" fill="#4677c8"/>
<text x="242" y="431">6  0.0%</text>
<text x="230" y="451" text-anchor="end">__do_clear_bss</text>
<rect x="236" y="441" width="1" height="13" fill="#4677c8"/>
<text x="242" y="451">4  0.0%</text>
</svg>
