<svg xmlns="http://www.w3.org/2000/svg" width="736" height="472" font-family="monospace" font-size="12">
<rect width="736" height="472" fill="white"/>
<text x="10" y="22" font-size="15" font-weight="bold">32-fc op-mix (cycles) — cat3-32-fc-i11-b9106e3e-1781457080</text>
<text x="10" y="42" font-size="11" fill="#555">total 585432 across 48 entries; top 20 = 93.5%</text>
<text x="90" y="71" text-anchor="end">adc</text>
<rect x="96" y="61" width="470" height="13" fill="#4677c8"/>
<text x="571" y="71">82977  14.2%</text>
<text x="90" y="91" text-anchor="end">call</text>
<rect x="96" y="81" width="296" height="13" fill="#4677c8"/>
<text x="397" y="91">52232  8.9%</text>
<text x="90" y="111" text-anchor="end">ret</text>
<rect x="96" y="101" width="296" height="13" fill="#4677c8"/>
<text x="397" y="111">52228  8.9%</text>
<text x="90" y="131" text-anchor="end">brbc</text>
<rect x="96" y="121" width="262" height="13" fill="#4677c8"/>
<text x="363" y="131">46310  7.9%</text>
<text x="90" y="151" text-anchor="end">mul</text>
<rect x="96" y="141" width="255" height="13" fill="#4677c8"/>
<text x="356" y="151">45056  7.7%</text>
<text x="90" y="171" text-anchor="end">add</text>
<rect x="96" y="161" width="168" height="13" fill="#4677c8"/>
<text x="269" y="171">29617  5.1%</text>
<text x="90" y="191" text-anchor="end">mov</text>
<rect x="96" y="181" width="154" height="13" fill="#4677c8"/>
<text x="255" y="191">27125  4.6%</text>
<text x="90" y="211" text-anchor="end">ldd_y</text>
<rect x="96" y="201" width="146" height="13" fill="#4677c8"/>
<text x="247" y="211">25768  4.4%</text>
<text x="90" y="231" text-anchor="end">std_y</text>
<rect x="96" y="221" width="144" height="13" fill="#4677c8"/>
<text x="245" y="231">25460  4.3%</text>
<text x="90" y="251" text-anchor="end">brbs</text>
<rect x="96" y="241" width="109" height="13" fill="#4677c8"/>
<text x="210" y="251">19198  3.3%</text>
<text x="90" y="271" text-anchor="end">sbc</text>
<rect x="96" y="261" width="103" height="13" fill="#4677c8"/>
<text x="204" y="271">18258  3.1%</text>
<text x="90" y="291" text-anchor="end">cpc</text>
<rect x="96" y="281" width="103" height="13" fill="#4677c8"/>
<text x="204" y="291">18226  3.1%</text>
<text x="90" y="311" text-anchor="end">jmp</text>
<rect x="96" y="301" width="96" height="13" fill="#4677c8"/>
<text x="197" y="311">16899  2.9%</text>
<text x="90" y="331" text-anchor="end">cp</text>
<rect x="96" y="321" width="87" height="13" fill="#4677c8"/>
<text x="188" y="331">15420  2.6%</text>
<text x="90" y="351" text-anchor="end">movw</text>
<rect x="96" y="341" width="85" height="13" fill="#4677c8"/>
<text x="186" y="351">15005  2.6%</text>
<text x="90" y="371" text-anchor="end">eor</text>
<rect x="96" y="361" width="75" height="13" fill="#4677c8"/>
<text x="176" y="371">13258  2.3%</text>
<text x="90" y="391" text-anchor="end">ld_x_postinc</text>
<rect x="96" y="381" width="72" height="13" fill="#4677c8"/>
<text x="173" y="391">12672  2.2%</text>
<text x="90" y="411" text-anchor="end">ld_z_postinc</text>
<rect x="96" y="401" width="64" height="13" fill="#4677c8"/>
<text x="165" y="411">11314  1.9%</text>
<text x="90" y="431" text-anchor="end">dec</text>
<rect x="96" y="421" width="62" height="13" fill="#4677c8"/>
<text x="163" y="431">10953  1.9%</text>
<text x="90" y="451" text-anchor="end">sbrs</text>
<rect x="96" y="441" width="52" height="13" fill="#4677c8"/>
<text x="153" y="451">9152  1.6%</text>
</svg>
