<svg xmlns="http://www.w3.org/2000/svg" width="896" height="472" font-family="monospace" font-size="12">
<rect width="896" height="472" fill="white"/>
<text x="10" y="22" font-size="15" font-weight="bold">32-fc runtime cost (calls x cyc/call) — cat3-32-fc-i1-40175c01-1781457076</text>
<text x="10" y="42" font-size="11" fill="#555">cost = calls × cyc/call (= total cycles); total 176002; top 20 = 100.0%</text>
<text x="230" y="71" text-anchor="end">__udivmodhi4_loop</text>
<rect x="236" y="61" width="420" height="13" fill="#b5651d"/>
<text x="661" y="71">52764  (8704x6)  30.0%</text>
<text x="230" y="91" text-anchor="end">__udivmodhi4_ep</text>
<rect x="236" y="81" width="398" height="13" fill="#b5651d"/>
<text x="639" y="91">50048  (9248x5)  28.4%</text>
<text x="230" y="111" text-anchor="end">run_workload</text>
<rect x="236" y="101" width="252" height="13" fill="#b5651d"/>
<text x="493" y="111">31667  (1x31667)  18.0%</text>
<text x="230" y="131" text-anchor="end">__umulhisi3</text>
<rect x="236" y="121" width="90" height="13" fill="#b5651d"/>
<text x="331" y="131">11264  (512x22)  6.4%</text>
<text x="230" y="151" text-anchor="end">_div</text>
<rect x="236" y="141" width="61" height="13" fill="#b5651d"/>
<text x="302" y="151">7616  (544x14)  4.3%</text>
<text x="230" y="171" text-anchor="end">__mulhisi3</text>
<rect x="236" y="161" width="43" height="13" fill="#b5651d"/>
<text x="284" y="171">5370  (512x10)  3.1%</text>
<text x="230" y="191" text-anchor="end">__usmulhisi3_tail</text>
<rect x="236" y="181" width="28" height="13" fill="#b5651d"/>
<text x="269" y="191">3520  (512x7)  2.0%</text>
<text x="230" y="211" text-anchor="end">__udivmodhi4</text>
<rect x="236" y="201" width="22" height="13" fill="#b5651d"/>
<text x="263" y="211">2720  (544x5)  1.5%</text>
<text x="230" y="231" text-anchor="end">.do_clear_bss_start</text>
<rect x="236" y="221" width="20" height="13" fill="#b5651d"/>
<text x="261" y="231">2503  (625x4)  1.4%</text>
<text x="230" y="251" text-anchor="end">__divmodhi4_exit</text>
<rect x="236" y="241" width="17" height="13" fill="#b5651d"/>
<text x="258" y="251">2176  (544x4)  1.2%</text>
<text x="230" y="271" text-anchor="end">__ashldi3</text>
<rect x="236" y="261" width="15" height="13" fill="#b5651d"/>
<text x="256" y="271">1856  (16x116)  1.1%</text>
<text x="230" y="291" text-anchor="end">__lshrdi3</text>
<rect x="236" y="281" width="11" height="13" fill="#b5651d"/>
<text x="252" y="291">1424  (16x89)  0.8%</text>
<text x="230" y="311" text-anchor="end">.do_clear_bss_loop</text>
<rect x="236" y="301" width="10" height="13" fill="#b5651d"/>
<text x="251" y="311">1248  (624x2)  0.7%</text>
<text x="230" y="331" text-anchor="end">main</text>
<rect x="236" y="321" width="8" height="13" fill="#b5651d"/>
<text x="249" y="331">1064  (1x1064)  0.6%</text>
<text x="230" y="351" text-anchor="end">__cmpdi2_s8</text>
<rect x="236" y="341" width="4" height="13" fill="#b5651d"/>
<text x="245" y="351">480  (32x15)  0.3%</text>
<text x="230" y="371" text-anchor="end">__do_copy_data</text>
<rect x="236" y="361" width="2" height="13" fill="#b5651d"/>
<text x="243" y="371">208  (1x208)  0.1%</text>
<text x="230" y="391" text-anchor="end">__ashrdi3</text>
<rect x="236" y="381" width="1" height="13" fill="#b5651d"/>
<text x="242" y="391">32  (16x2)  0.0%</text>
<text x="230" y="411" text-anchor="end">__USER_SIGNATURE_REGION_LENGTH__</text>
<rect x="236" y="401" width="1" height="13" fill="#b5651d"/>
<text x="242" y="411">28  (1x28)  0.0%</text>
<text x="230" y="431" text-anchor="end">__ctors_end</text>
<rect x="236" y="421" width="1" height="13" fill="#b5651d"/>
<text x="242" y="431">6  (1x6)  0.0%</text>
<text x="230" y="451" text-anchor="end">__do_clear_bss</text>
<rect x="236" y="441" width="1" height="13" fill="#b5651d"/>
<text x="242" y="451">5  (1x5)  0.0%</text>
</svg>
