<svg xmlns="http://www.w3.org/2000/svg" width="785" height="472" font-family="monospace" font-size="12">
<rect width="785" height="472" fill="white"/>
<text x="10" y="22" font-size="15" font-weight="bold">32-fc function calls (count) — cat3-32-fc-i1-40175c01-1781457076</text>
<text x="10" y="42" font-size="11" fill="#555">total 22456 across 21 entries; top 20 = 100.0%</text>
<text x="139" y="71" text-anchor="end">__udivmodhi4_ep</text>
<rect x="145" y="61" width="470" height="13" fill="#4677c8"/>
<text x="620" y="71">9248  41.2%</text>
<text x="139" y="91" text-anchor="end">__udivmodhi4_loop</text>
<rect x="145" y="81" width="442" height="13" fill="#4677c8"/>
<text x="592" y="91">8704  38.8%</text>
<text x="139" y="111" text-anchor="end">.do_clear_bss_start</text>
<rect x="145" y="101" width="32" height="13" fill="#4677c8"/>
<text x="182" y="111">625  2.8%</text>
<text x="139" y="131" text-anchor="end">.do_clear_bss_loop</text>
<rect x="145" y="121" width="32" height="13" fill="#4677c8"/>
<text x="182" y="131">624  2.8%</text>
<text x="139" y="151" text-anchor="end">__divmodhi4_exit</text>
<rect x="145" y="141" width="28" height="13" fill="#4677c8"/>
<text x="178" y="151">544  2.4%</text>
<text x="139" y="171" text-anchor="end">__udivmodhi4</text>
<rect x="145" y="161" width="28" height="13" fill="#4677c8"/>
<text x="178" y="171">544  2.4%</text>
<text x="139" y="191" text-anchor="end">_div</text>
<rect x="145" y="181" width="28" height="13" fill="#4677c8"/>
<text x="178" y="191">544  2.4%</text>
<text x="139" y="211" text-anchor="end">__mulhisi3</text>
<rect x="145" y="201" width="26" height="13" fill="#4677c8"/>
<text x="176" y="211">512  2.3%</text>
<text x="139" y="231" text-anchor="end">__umulhisi3</text>
<rect x="145" y="221" width="26" height="13" fill="#4677c8"/>
<text x="176" y="231">512  2.3%</text>
<text x="139" y="251" text-anchor="end">__usmulhisi3_tail</text>
<rect x="145" y="241" width="26" height="13" fill="#4677c8"/>
<text x="176" y="251">512  2.3%</text>
<text x="139" y="271" text-anchor="end">__cmpdi2_s8</text>
<rect x="145" y="261" width="2" height="13" fill="#4677c8"/>
<text x="152" y="271">32  0.1%</text>
<text x="139" y="291" text-anchor="end">__ashldi3</text>
<rect x="145" y="281" width="1" height="13" fill="#4677c8"/>
<text x="151" y="291">16  0.1%</text>
<text x="139" y="311" text-anchor="end">__lshrdi3</text>
<rect x="145" y="301" width="1" height="13" fill="#4677c8"/>
<text x="151" y="311">16  0.1%</text>
<text x="139" y="331" text-anchor="end">__ashrdi3</text>
<rect x="145" y="321" width="1" height="13" fill="#4677c8"/>
<text x="151" y="331">16  0.1%</text>
<text x="139" y="351" text-anchor="end">__ctors_end</text>
<rect x="145" y="341" width="1" height="13" fill="#4677c8"/>
<text x="151" y="351">1  0.0%</text>
<text x="139" y="371" text-anchor="end">__do_copy_data</text>
<rect x="145" y="361" width="1" height="13" fill="#4677c8"/>
<text x="151" y="371">1  0.0%</text>
<text x="139" y="391" text-anchor="end">__heap_end</text>
<rect x="145" y="381" width="1" height="13" fill="#4677c8"/>
<text x="151" y="391">1  0.0%</text>
<text x="139" y="411" text-anchor="end">run_workload</text>
<rect x="145" y="401" width="1" height="13" fill="#4677c8"/>
<text x="151" y="411">1  0.0%</text>
<text x="139" y="431" text-anchor="end">__do_clear_bss</text>
<rect x="145" y="421" width="1" height="13" fill="#4677c8"/>
<text x="151" y="431">1  0.0%</text>
<text x="139" y="451" text-anchor="end">main</text>
<rect x="145" y="441" width="1" height="13" fill="#4677c8"/>
<text x="151" y="451">1  0.0%</text>
</svg>
