<svg xmlns="http://www.w3.org/2000/svg" width="785" height="472" font-family="monospace" font-size="12">
<rect width="785" height="472" fill="white"/>
<text x="10" y="22" font-size="15" font-weight="bold">32-fc function calls (count) — cat3-32-fc-i11-b9106e3e-1781457080</text>
<text x="10" y="42" font-size="11" fill="#555">total 38616 across 21 entries; top 20 = 100.0%</text>
<text x="139" y="71" text-anchor="end">__udivmodhi4_ep</text>
<rect x="145" y="61" width="470" height="13" fill="#4677c8"/>
<text x="620" y="71">9248  23.9%</text>
<text x="139" y="91" text-anchor="end">__udivmodhi4_loop</text>
<rect x="145" y="81" width="442" height="13" fill="#4677c8"/>
<text x="592" y="91">8704  22.5%</text>
<text x="139" y="111" text-anchor="end">__usmulhisi3_tail</text>
<rect x="145" y="101" width="286" height="13" fill="#4677c8"/>
<text x="436" y="111">5632  14.6%</text>
<text x="139" y="131" text-anchor="end">__umulhisi3</text>
<rect x="145" y="121" width="286" height="13" fill="#4677c8"/>
<text x="436" y="131">5632  14.6%</text>
<text x="139" y="151" text-anchor="end">__mulhisi3</text>
<rect x="145" y="141" width="286" height="13" fill="#4677c8"/>
<text x="436" y="151">5632  14.6%</text>
<text x="139" y="171" text-anchor="end">.do_clear_bss_start</text>
<rect x="145" y="161" width="32" height="13" fill="#4677c8"/>
<text x="182" y="171">625  1.6%</text>
<text x="139" y="191" text-anchor="end">.do_clear_bss_loop</text>
<rect x="145" y="181" width="32" height="13" fill="#4677c8"/>
<text x="182" y="191">624  1.6%</text>
<text x="139" y="211" text-anchor="end">__divmodhi4_exit</text>
<rect x="145" y="201" width="28" height="13" fill="#4677c8"/>
<text x="178" y="211">544  1.4%</text>
<text x="139" y="231" text-anchor="end">__udivmodhi4</text>
<rect x="145" y="221" width="28" height="13" fill="#4677c8"/>
<text x="178" y="231">544  1.4%</text>
<text x="139" y="251" text-anchor="end">_div</text>
<rect x="145" y="241" width="28" height="13" fill="#4677c8"/>
<text x="178" y="251">544  1.4%</text>
<text x="139" y="271" text-anchor="end">__cmpdi2_s8</text>
<rect x="145" y="261" width="18" height="13" fill="#4677c8"/>
<text x="168" y="271">352  0.9%</text>
<text x="139" y="291" text-anchor="end">__lshrdi3</text>
<rect x="145" y="281" width="9" height="13" fill="#4677c8"/>
<text x="159" y="291">176  0.5%</text>
<text x="139" y="311" text-anchor="end">__ashldi3</text>
<rect x="145" y="301" width="9" height="13" fill="#4677c8"/>
<text x="159" y="311">176  0.5%</text>
<text x="139" y="331" text-anchor="end">__ashrdi3</text>
<rect x="145" y="321" width="9" height="13" fill="#4677c8"/>
<text x="159" y="331">176  0.5%</text>
<text x="139" y="351" text-anchor="end">__do_copy_data</text>
<rect x="145" y="341" width="1" height="13" fill="#4677c8"/>
<text x="151" y="351">1  0.0%</text>
<text x="139" y="371" text-anchor="end">run_workload</text>
<rect x="145" y="361" width="1" height="13" fill="#4677c8"/>
<text x="151" y="371">1  0.0%</text>
<text x="139" y="391" text-anchor="end">__do_clear_bss</text>
<rect x="145" y="381" width="1" height="13" fill="#4677c8"/>
<text x="151" y="391">1  0.0%</text>
<text x="139" y="411" text-anchor="end">main</text>
<rect x="145" y="401" width="1" height="13" fill="#4677c8"/>
<text x="151" y="411">1  0.0%</text>
<text x="139" y="431" text-anchor="end">__ctors_end</text>
<rect x="145" y="421" width="1" height="13" fill="#4677c8"/>
<text x="151" y="431">1  0.0%</text>
<text x="139" y="451" text-anchor="end">__heap_end</text>
<rect x="145" y="441" width="1" height="13" fill="#4677c8"/>
<text x="151" y="451">1  0.0%</text>
</svg>
