<svg xmlns="http://www.w3.org/2000/svg" width="785" height="332" font-family="monospace" font-size="12">
<rect width="785" height="332" fill="white"/>
<text x="10" y="22" font-size="15" font-weight="bold">33-maxpool function-mix (insts) — cat3-33-maxpool-i11-e69e1131-1781457088</text>
<text x="10" y="42" font-size="11" fill="#555">total 301081 across 13 entries; top 13 = 100.0%</text>
<text x="139" y="71" text-anchor="end">run_workload</text>
<rect x="145" y="61" width="470" height="13" fill="#4677c8"/>
<text x="620" y="71">125631  41.7%</text>
<text x="139" y="91" text-anchor="end">__udivmodhi4_loop</text>
<rect x="145" y="81" width="308" height="13" fill="#4677c8"/>
<text x="458" y="91">82216  27.3%</text>
<text x="139" y="111" text-anchor="end">__udivmodhi4_ep</text>
<rect x="145" y="101" width="280" height="13" fill="#4677c8"/>
<text x="430" y="111">74752  24.8%</text>
<text x="139" y="131" text-anchor="end">_div</text>
<rect x="145" y="121" width="27" height="13" fill="#4677c8"/>
<text x="177" y="131">7168  2.4%</text>
<text x="139" y="151" text-anchor="end">__udivmodhi4</text>
<rect x="145" y="141" width="15" height="13" fill="#4677c8"/>
<text x="165" y="151">4096  1.4%</text>
<text x="139" y="171" text-anchor="end">.do_clear_bss_start</text>
<rect x="145" y="161" width="14" height="13" fill="#4677c8"/>
<text x="164" y="171">3844  1.3%</text>
<text x="139" y="191" text-anchor="end">.do_clear_bss_loop</text>
<rect x="145" y="181" width="5" height="13" fill="#4677c8"/>
<text x="155" y="191">1280  0.4%</text>
<text x="139" y="211" text-anchor="end">__divmodhi4_exit</text>
<rect x="145" y="201" width="4" height="13" fill="#4677c8"/>
<text x="154" y="211">1024  0.3%</text>
<text x="139" y="231" text-anchor="end">main</text>
<rect x="145" y="221" width="3" height="13" fill="#4677c8"/>
<text x="153" y="231">908  0.3%</text>
<text x="139" y="251" text-anchor="end">__do_copy_data</text>
<rect x="145" y="241" width="1" height="13" fill="#4677c8"/>
<text x="151" y="251">151  0.1%</text>
<text x="139" y="271" text-anchor="end">__ctors_end</text>
<rect x="145" y="261" width="1" height="13" fill="#4677c8"/>
<text x="151" y="271">6  0.0%</text>
<text x="139" y="291" text-anchor="end">__do_clear_bss</text>
<rect x="145" y="281" width="1" height="13" fill="#4677c8"/>
<text x="151" y="291">4  0.0%</text>
<text x="139" y="311" text-anchor="end">__heap_end</text>
<rect x="145" y="301" width="1" height="13" fill="#4677c8"/>
<text x="151" y="311">1  0.0%</text>
</svg>
