<svg xmlns="http://www.w3.org/2000/svg" width="785" height="332" font-family="monospace" font-size="12">
<rect width="785" height="332" fill="white"/>
<text x="10" y="22" font-size="15" font-weight="bold">33-maxpool function-mix (cycles) — cat3-33-maxpool-i11-e69e1131-1781457088</text>
<text x="10" y="42" font-size="11" fill="#555">total 379388 across 13 entries; top 13 = 100.0%</text>
<text x="139" y="71" text-anchor="end">run_workload</text>
<rect x="145" y="61" width="470" height="13" fill="#4677c8"/>
<text x="620" y="71">154203  40.6%</text>
<text x="139" y="91" text-anchor="end">__udivmodhi4_loop</text>
<rect x="145" y="81" width="300" height="13" fill="#4677c8"/>
<text x="450" y="91">98452  26.0%</text>
<text x="139" y="111" text-anchor="end">__udivmodhi4_ep</text>
<rect x="145" y="101" width="287" height="13" fill="#4677c8"/>
<text x="437" y="111">94208  24.8%</text>
<text x="139" y="131" text-anchor="end">_div</text>
<rect x="145" y="121" width="44" height="13" fill="#4677c8"/>
<text x="194" y="131">14336  3.8%</text>
<text x="139" y="151" text-anchor="end">.do_clear_bss_start</text>
<rect x="145" y="141" width="16" height="13" fill="#4677c8"/>
<text x="166" y="151">5127  1.4%</text>
<text x="139" y="171" text-anchor="end">__udivmodhi4</text>
<rect x="145" y="161" width="16" height="13" fill="#4677c8"/>
<text x="166" y="171">5120  1.3%</text>
<text x="139" y="191" text-anchor="end">__divmodhi4_exit</text>
<rect x="145" y="181" width="12" height="13" fill="#4677c8"/>
<text x="162" y="191">4096  1.1%</text>
<text x="139" y="211" text-anchor="end">.do_clear_bss_loop</text>
<rect x="145" y="201" width="8" height="13" fill="#4677c8"/>
<text x="158" y="211">2560  0.7%</text>
<text x="139" y="231" text-anchor="end">main</text>
<rect x="145" y="221" width="3" height="13" fill="#4677c8"/>
<text x="153" y="231">1064  0.3%</text>
<text x="139" y="251" text-anchor="end">__do_copy_data</text>
<rect x="145" y="241" width="1" height="13" fill="#4677c8"/>
<text x="151" y="251">208  0.1%</text>
<text x="139" y="271" text-anchor="end">__ctors_end</text>
<rect x="145" y="261" width="1" height="13" fill="#4677c8"/>
<text x="151" y="271">6  0.0%</text>
<text x="139" y="291" text-anchor="end">__do_clear_bss</text>
<rect x="145" y="281" width="1" height="13" fill="#4677c8"/>
<text x="151" y="291">5  0.0%</text>
<text x="139" y="311" text-anchor="end">__heap_end</text>
<rect x="145" y="301" width="1" height="13" fill="#4677c8"/>
<text x="151" y="311">3  0.0%</text>
</svg>
