<svg xmlns="http://www.w3.org/2000/svg" width="736" height="472" font-family="monospace" font-size="12">
<rect width="736" height="472" fill="white"/>
<text x="10" y="22" font-size="15" font-weight="bold">33-maxpool op-mix (insts) — cat3-33-maxpool-i1-61000d7f-1781457084</text>
<text x="10" y="42" font-size="11" fill="#555">total 249071 across 41 entries; top 20 = 96.1%</text>
<text x="90" y="71" text-anchor="end">adc</text>
<rect x="96" y="61" width="470" height="13" fill="#4677c8"/>
<text x="571" y="71">67716  27.2%</text>
<text x="90" y="91" text-anchor="end">brbc</text>
<rect x="96" y="81" width="172" height="13" fill="#4677c8"/>
<text x="273" y="91">24734  9.9%</text>
<text x="90" y="111" text-anchor="end">cpc</text>
<rect x="96" y="101" width="134" height="13" fill="#4677c8"/>
<text x="235" y="111">19344  7.8%</text>
<text x="90" y="131" text-anchor="end">cp</text>
<rect x="96" y="121" width="130" height="13" fill="#4677c8"/>
<text x="231" y="131">18794  7.5%</text>
<text x="90" y="151" text-anchor="end">dec</text>
<rect x="96" y="141" width="122" height="13" fill="#4677c8"/>
<text x="223" y="151">17528  7.0%</text>
<text x="90" y="171" text-anchor="end">brbs</text>
<rect x="96" y="161" width="118" height="13" fill="#4677c8"/>
<text x="219" y="171">17003  6.8%</text>
<text x="90" y="191" text-anchor="end">eor</text>
<rect x="96" y="181" width="101" height="13" fill="#4677c8"/>
<text x="202" y="191">14617  5.9%</text>
<text x="90" y="211" text-anchor="end">andi</text>
<rect x="96" y="201" width="71" height="13" fill="#4677c8"/>
<text x="172" y="211">10250  4.1%</text>
<text x="90" y="231" text-anchor="end">movw</text>
<rect x="96" y="221" width="61" height="13" fill="#4677c8"/>
<text x="162" y="231">8754  3.5%</text>
<text x="90" y="251" text-anchor="end">com</text>
<rect x="96" y="241" width="57" height="13" fill="#4677c8"/>
<text x="158" y="251">8196  3.3%</text>
<text x="90" y="271" text-anchor="end">sbci</text>
<rect x="96" y="261" width="51" height="13" fill="#4677c8"/>
<text x="152" y="271">7278  2.9%</text>
<text x="90" y="291" text-anchor="end">ror_inst</text>
<rect x="96" y="281" width="45" height="13" fill="#4677c8"/>
<text x="146" y="291">6480  2.6%</text>
<text x="90" y="311" text-anchor="end">subi</text>
<rect x="96" y="301" width="29" height="13" fill="#4677c8"/>
<text x="130" y="311">4215  1.7%</text>
<text x="90" y="331" text-anchor="end">sub</text>
<rect x="96" y="321" width="15" height="13" fill="#4677c8"/>
<text x="116" y="331">2201  0.9%</text>
<text x="90" y="351" text-anchor="end">lsr</text>
<rect x="96" y="341" width="15" height="13" fill="#4677c8"/>
<text x="116" y="351">2160  0.9%</text>
<text x="90" y="371" text-anchor="end">call</text>
<rect x="96" y="361" width="14" height="13" fill="#4677c8"/>
<text x="115" y="371">2050  0.8%</text>
<text x="90" y="391" text-anchor="end">ret</text>
<rect x="96" y="381" width="14" height="13" fill="#4677c8"/>
<text x="115" y="391">2049  0.8%</text>
<text x="90" y="411" text-anchor="end">sbrc</text>
<rect x="96" y="401" width="14" height="13" fill="#4677c8"/>
<text x="115" y="411">2048  0.8%</text>
<text x="90" y="431" text-anchor="end">neg</text>
<rect x="96" y="421" width="14" height="13" fill="#4677c8"/>
<text x="115" y="431">2048  0.8%</text>
<text x="90" y="451" text-anchor="end">mov</text>
<rect x="96" y="441" width="13" height="13" fill="#4677c8"/>
<text x="114" y="451">1814  0.7%</text>
</svg>
