<svg xmlns="http://www.w3.org/2000/svg" width="785" height="332" font-family="monospace" font-size="12">
<rect width="785" height="332" fill="white"/>
<text x="10" y="22" font-size="15" font-weight="bold">33-maxpool function-mix (cycles) — cat3-33-maxpool-i1-61000d7f-1781457084</text>
<text x="10" y="42" font-size="11" fill="#555">total 308198 across 13 entries; top 13 = 100.0%</text>
<text x="139" y="71" text-anchor="end">__udivmodhi4_loop</text>
<rect x="145" y="61" width="470" height="13" fill="#4677c8"/>
<text x="620" y="71">98452  31.9%</text>
<text x="139" y="91" text-anchor="end">__udivmodhi4_ep</text>
<rect x="145" y="81" width="450" height="13" fill="#4677c8"/>
<text x="600" y="91">94208  30.6%</text>
<text x="139" y="111" text-anchor="end">run_workload</text>
<rect x="145" y="101" width="396" height="13" fill="#4677c8"/>
<text x="546" y="111">83013  26.9%</text>
<text x="139" y="131" text-anchor="end">_div</text>
<rect x="145" y="121" width="68" height="13" fill="#4677c8"/>
<text x="218" y="131">14336  4.7%</text>
<text x="139" y="151" text-anchor="end">.do_clear_bss_start</text>
<rect x="145" y="141" width="24" height="13" fill="#4677c8"/>
<text x="174" y="151">5127  1.7%</text>
<text x="139" y="171" text-anchor="end">__udivmodhi4</text>
<rect x="145" y="161" width="24" height="13" fill="#4677c8"/>
<text x="174" y="171">5120  1.7%</text>
<text x="139" y="191" text-anchor="end">__divmodhi4_exit</text>
<rect x="145" y="181" width="20" height="13" fill="#4677c8"/>
<text x="170" y="191">4096  1.3%</text>
<text x="139" y="211" text-anchor="end">.do_clear_bss_loop</text>
<rect x="145" y="201" width="12" height="13" fill="#4677c8"/>
<text x="162" y="211">2560  0.8%</text>
<text x="139" y="231" text-anchor="end">main</text>
<rect x="145" y="221" width="5" height="13" fill="#4677c8"/>
<text x="155" y="231">1064  0.3%</text>
<text x="139" y="251" text-anchor="end">__do_copy_data</text>
<rect x="145" y="241" width="1" height="13" fill="#4677c8"/>
<text x="151" y="251">208  0.1%</text>
<text x="139" y="271" text-anchor="end">__ctors_end</text>
<rect x="145" y="261" width="1" height="13" fill="#4677c8"/>
<text x="151" y="271">6  0.0%</text>
<text x="139" y="291" text-anchor="end">__do_clear_bss</text>
<rect x="145" y="281" width="1" height="13" fill="#4677c8"/>
<text x="151" y="291">5  0.0%</text>
<text x="139" y="311" text-anchor="end">__heap_end</text>
<rect x="145" y="301" width="1" height="13" fill="#4677c8"/>
<text x="151" y="311">3  0.0%</text>
</svg>
