<svg xmlns="http://www.w3.org/2000/svg" width="805" height="332" font-family="monospace" font-size="12">
<rect width="805" height="332" fill="white"/>
<text x="10" y="22" font-size="15" font-weight="bold">33-maxpool runtime cost (calls x cyc/call) — cat3-33-maxpool-i11-e69e1131-1781457088</text>
<text x="10" y="42" font-size="11" fill="#555">cost = calls × cyc/call (= total cycles); total 379388; top 13 = 100.0%</text>
<text x="139" y="71" text-anchor="end">run_workload</text>
<rect x="145" y="61" width="420" height="13" fill="#b5651d"/>
<text x="570" y="71">154203  (1x154203)  40.6%</text>
<text x="139" y="91" text-anchor="end">__udivmodhi4_loop</text>
<rect x="145" y="81" width="268" height="13" fill="#b5651d"/>
<text x="418" y="91">98452  (16384x6)  26.0%</text>
<text x="139" y="111" text-anchor="end">__udivmodhi4_ep</text>
<rect x="145" y="101" width="257" height="13" fill="#b5651d"/>
<text x="407" y="111">94208  (17408x5)  24.8%</text>
<text x="139" y="131" text-anchor="end">_div</text>
<rect x="145" y="121" width="39" height="13" fill="#b5651d"/>
<text x="189" y="131">14336  (1024x14)  3.8%</text>
<text x="139" y="151" text-anchor="end">.do_clear_bss_start</text>
<rect x="145" y="141" width="14" height="13" fill="#b5651d"/>
<text x="164" y="151">5127  (1281x4)  1.4%</text>
<text x="139" y="171" text-anchor="end">__udivmodhi4</text>
<rect x="145" y="161" width="14" height="13" fill="#b5651d"/>
<text x="164" y="171">5120  (1024x5)  1.3%</text>
<text x="139" y="191" text-anchor="end">__divmodhi4_exit</text>
<rect x="145" y="181" width="11" height="13" fill="#b5651d"/>
<text x="161" y="191">4096  (1024x4)  1.1%</text>
<text x="139" y="211" text-anchor="end">.do_clear_bss_loop</text>
<rect x="145" y="201" width="7" height="13" fill="#b5651d"/>
<text x="157" y="211">2560  (1280x2)  0.7%</text>
<text x="139" y="231" text-anchor="end">main</text>
<rect x="145" y="221" width="3" height="13" fill="#b5651d"/>
<text x="153" y="231">1064  (1x1064)  0.3%</text>
<text x="139" y="251" text-anchor="end">__do_copy_data</text>
<rect x="145" y="241" width="1" height="13" fill="#b5651d"/>
<text x="151" y="251">208  (1x208)  0.1%</text>
<text x="139" y="271" text-anchor="end">__ctors_end</text>
<rect x="145" y="261" width="1" height="13" fill="#b5651d"/>
<text x="151" y="271">6  (1x6)  0.0%</text>
<text x="139" y="291" text-anchor="end">__do_clear_bss</text>
<rect x="145" y="281" width="1" height="13" fill="#b5651d"/>
<text x="151" y="291">5  (1x5)  0.0%</text>
<text x="139" y="311" text-anchor="end">__heap_end</text>
<rect x="145" y="301" width="1" height="13" fill="#b5651d"/>
<text x="151" y="311">3  (1x3)  0.0%</text>
</svg>
