<svg xmlns="http://www.w3.org/2000/svg" width="736" height="472" font-family="monospace" font-size="12">
<rect width="736" height="472" fill="white"/>
<text x="10" y="22" font-size="15" font-weight="bold">33-maxpool op-mix (cycles) — cat3-33-maxpool-i1-61000d7f-1781457084</text>
<text x="10" y="42" font-size="11" fill="#555">total 308198 across 41 entries; top 20 = 95.7%</text>
<text x="90" y="71" text-anchor="end">adc</text>
<rect x="96" y="61" width="470" height="13" fill="#4677c8"/>
<text x="571" y="71">67716  22.0%</text>
<text x="90" y="91" text-anchor="end">brbc</text>
<rect x="96" y="81" width="330" height="13" fill="#4677c8"/>
<text x="431" y="91">47613  15.4%</text>
<text x="90" y="111" text-anchor="end">brbs</text>
<rect x="96" y="101" width="231" height="13" fill="#4677c8"/>
<text x="332" y="111">33284  10.8%</text>
<text x="90" y="131" text-anchor="end">cpc</text>
<rect x="96" y="121" width="134" height="13" fill="#4677c8"/>
<text x="235" y="131">19344  6.3%</text>
<text x="90" y="151" text-anchor="end">cp</text>
<rect x="96" y="141" width="130" height="13" fill="#4677c8"/>
<text x="231" y="151">18794  6.1%</text>
<text x="90" y="171" text-anchor="end">dec</text>
<rect x="96" y="161" width="122" height="13" fill="#4677c8"/>
<text x="223" y="171">17528  5.7%</text>
<text x="90" y="191" text-anchor="end">eor</text>
<rect x="96" y="181" width="101" height="13" fill="#4677c8"/>
<text x="202" y="191">14617  4.7%</text>
<text x="90" y="211" text-anchor="end">andi</text>
<rect x="96" y="201" width="71" height="13" fill="#4677c8"/>
<text x="172" y="211">10250  3.3%</text>
<text x="90" y="231" text-anchor="end">movw</text>
<rect x="96" y="221" width="61" height="13" fill="#4677c8"/>
<text x="162" y="231">8754  2.8%</text>
<text x="90" y="251" text-anchor="end">call</text>
<rect x="96" y="241" width="57" height="13" fill="#4677c8"/>
<text x="158" y="251">8200  2.7%</text>
<text x="90" y="271" text-anchor="end">com</text>
<rect x="96" y="261" width="57" height="13" fill="#4677c8"/>
<text x="158" y="271">8196  2.7%</text>
<text x="90" y="291" text-anchor="end">ret</text>
<rect x="96" y="281" width="57" height="13" fill="#4677c8"/>
<text x="158" y="291">8196  2.7%</text>
<text x="90" y="311" text-anchor="end">sbci</text>
<rect x="96" y="301" width="51" height="13" fill="#4677c8"/>
<text x="152" y="311">7278  2.4%</text>
<text x="90" y="331" text-anchor="end">ror_inst</text>
<rect x="96" y="321" width="45" height="13" fill="#4677c8"/>
<text x="146" y="331">6480  2.1%</text>
<text x="90" y="351" text-anchor="end">subi</text>
<rect x="96" y="341" width="29" height="13" fill="#4677c8"/>
<text x="130" y="351">4215  1.4%</text>
<text x="90" y="371" text-anchor="end">sbrc</text>
<rect x="96" y="361" width="28" height="13" fill="#4677c8"/>
<text x="129" y="371">4096  1.3%</text>
<text x="90" y="391" text-anchor="end">st_x_postinc</text>
<rect x="96" y="381" width="22" height="13" fill="#4677c8"/>
<text x="123" y="391">3128  1.0%</text>
<text x="90" y="411" text-anchor="end">rjmp</text>
<rect x="96" y="401" width="20" height="13" fill="#4677c8"/>
<text x="121" y="411">2822  0.9%</text>
<text x="90" y="431" text-anchor="end">sub</text>
<rect x="96" y="421" width="15" height="13" fill="#4677c8"/>
<text x="116" y="431">2201  0.7%</text>
<text x="90" y="451" text-anchor="end">lsr</text>
<rect x="96" y="441" width="15" height="13" fill="#4677c8"/>
<text x="116" y="451">2160  0.7%</text>
</svg>
