<svg xmlns="http://www.w3.org/2000/svg" width="736" height="472" font-family="monospace" font-size="12">
<rect width="736" height="472" fill="white"/>
<text x="10" y="22" font-size="15" font-weight="bold">14-control-pid op-mix (cycles) — cat1-14-control-pid-i1-2a48d060-1781456010</text>
<text x="10" y="42" font-size="11" fill="#555">total 15943 across 52 entries; top 20 = 83.8%</text>
<text x="90" y="71" text-anchor="end">eor</text>
<rect x="96" y="61" width="470" height="13" fill="#4677c8"/>
<text x="571" y="71">1603  10.1%</text>
<text x="90" y="91" text-anchor="end">brbc</text>
<rect x="96" y="81" width="428" height="13" fill="#4677c8"/>
<text x="529" y="91">1461  9.2%</text>
<text x="90" y="111" text-anchor="end">ror_inst</text>
<rect x="96" y="101" width="346" height="13" fill="#4677c8"/>
<text x="447" y="111">1179  7.4%</text>
<text x="90" y="131" text-anchor="end">andi</text>
<rect x="96" y="121" width="284" height="13" fill="#4677c8"/>
<text x="385" y="131">968  6.1%</text>
<text x="90" y="151" text-anchor="end">adc</text>
<rect x="96" y="141" width="232" height="13" fill="#4677c8"/>
<text x="333" y="151">791  5.0%</text>
<text x="90" y="171" text-anchor="end">sbci</text>
<rect x="96" y="161" width="215" height="13" fill="#4677c8"/>
<text x="316" y="171">733  4.6%</text>
<text x="90" y="191" text-anchor="end">ret</text>
<rect x="96" y="181" width="201" height="13" fill="#4677c8"/>
<text x="302" y="191">684  4.3%</text>
<text x="90" y="211" text-anchor="end">brbs</text>
<rect x="96" y="201" width="196" height="13" fill="#4677c8"/>
<text x="297" y="211">670  4.2%</text>
<text x="90" y="231" text-anchor="end">call</text>
<rect x="96" y="221" width="191" height="13" fill="#4677c8"/>
<text x="292" y="231">652  4.1%</text>
<text x="90" y="251" text-anchor="end">com</text>
<rect x="96" y="241" width="189" height="13" fill="#4677c8"/>
<text x="290" y="251">646  4.1%</text>
<text x="90" y="271" text-anchor="end">movw</text>
<rect x="96" y="261" width="182" height="13" fill="#4677c8"/>
<text x="283" y="271">621  3.9%</text>
<text x="90" y="291" text-anchor="end">cpc</text>
<rect x="96" y="281" width="167" height="13" fill="#4677c8"/>
<text x="268" y="291">568  3.6%</text>
<text x="90" y="311" text-anchor="end">add</text>
<rect x="96" y="301" width="157" height="13" fill="#4677c8"/>
<text x="258" y="311">536  3.4%</text>
<text x="90" y="331" text-anchor="end">ldd_y</text>
<rect x="96" y="321" width="141" height="13" fill="#4677c8"/>
<text x="242" y="331">480  3.0%</text>
<text x="90" y="351" text-anchor="end">lsr</text>
<rect x="96" y="341" width="109" height="13" fill="#4677c8"/>
<text x="210" y="351">373  2.3%</text>
<text x="90" y="371" text-anchor="end">mul</text>
<rect x="96" y="361" width="106" height="13" fill="#4677c8"/>
<text x="207" y="371">360  2.3%</text>
<text x="90" y="391" text-anchor="end">subi</text>
<rect x="96" y="381" width="86" height="13" fill="#4677c8"/>
<text x="187" y="391">292  1.8%</text>
<text x="90" y="411" text-anchor="end">mov</text>
<rect x="96" y="401" width="80" height="13" fill="#4677c8"/>
<text x="181" y="411">273  1.7%</text>
<text x="90" y="431" text-anchor="end">ldi</text>
<rect x="96" y="421" width="69" height="13" fill="#4677c8"/>
<text x="170" y="431">234  1.5%</text>
<text x="90" y="451" text-anchor="end">push</text>
<rect x="96" y="441" width="68" height="13" fill="#4677c8"/>
<text x="169" y="451">232  1.5%</text>
</svg>
