<svg xmlns="http://www.w3.org/2000/svg" width="896" height="472" font-family="monospace" font-size="12">
<rect width="896" height="472" fill="white"/>
<text x="10" y="22" font-size="15" font-weight="bold">14-control-pid runtime cost (calls x cyc/call) — cat1-14-control-pid-i1-2a48d060-1781456010</text>
<text x="10" y="42" font-size="11" fill="#555">cost = calls × cyc/call (= total cycles); total 15943; top 20 = 100.0%</text>
<text x="230" y="71" text-anchor="end">main</text>
<rect x="236" y="61" width="420" height="13" fill="#b5651d"/>
<text x="661" y="71">7610  (1x7610)  47.7%</text>
<text x="230" y="91" text-anchor="end">__mulsf3_pse</text>
<rect x="236" y="81" width="80" height="13" fill="#b5651d"/>
<text x="321" y="91">1458  (18x81)  9.1%</text>
<text x="230" y="111" text-anchor="end">__divsf3_pse</text>
<rect x="236" y="101" width="70" height="13" fill="#b5651d"/>
<text x="311" y="111">1275  (3x425)  8.0%</text>
<text x="230" y="131" text-anchor="end">__addsf3x</text>
<rect x="236" y="121" width="67" height="13" fill="#b5651d"/>
<text x="308" y="131">1209  (24x50)  7.6%</text>
<text x="230" y="151" text-anchor="end">__USER_SIGNATURE_REGION_LENGTH__</text>
<rect x="236" y="141" width="58" height="13" fill="#b5651d"/>
<text x="299" y="151">1044  (3x348)  6.5%</text>
<text x="230" y="171" text-anchor="end">__fp_round</text>
<rect x="236" y="161" width="37" height="13" fill="#b5651d"/>
<text x="278" y="171">666  (45x15)  4.2%</text>
<text x="230" y="191" text-anchor="end">__fp_splitA</text>
<rect x="236" y="181" width="32" height="13" fill="#b5651d"/>
<text x="273" y="191">582  (45x13)  3.7%</text>
<text x="230" y="211" text-anchor="end">__do_copy_data</text>
<rect x="236" y="201" width="30" height="13" fill="#b5651d"/>
<text x="271" y="211">548  (1x548)  3.4%</text>
<text x="230" y="231" text-anchor="end">__fp_cmp</text>
<rect x="236" y="221" width="22" height="13" fill="#b5651d"/>
<text x="263" y="231">396  (12x33)  2.5%</text>
<text x="230" y="251" text-anchor="end">__fp_split3</text>
<rect x="236" y="241" width="19" height="13" fill="#b5651d"/>
<text x="260" y="251">348  (45x8)  2.2%</text>
<text x="230" y="271" text-anchor="end">__addsf3</text>
<rect x="236" y="261" width="12" height="13" fill="#b5651d"/>
<text x="253" y="271">216  (24x9)  1.4%</text>
<text x="230" y="291" text-anchor="end">pid_step</text>
<rect x="236" y="281" width="11" height="13" fill="#b5651d"/>
<text x="252" y="291">204  (3x68)  1.3%</text>
<text x="230" y="311" text-anchor="end">__mulsf3</text>
<rect x="236" y="301" width="7" height="13" fill="#b5651d"/>
<text x="248" y="311">126  (18x7)  0.8%</text>
<text x="230" y="331" text-anchor="end">__gesf2</text>
<rect x="236" y="321" width="5" height="13" fill="#b5651d"/>
<text x="246" y="331">90  (9x10)  0.6%</text>
<text x="230" y="351" text-anchor="end">__mulsf3x</text>
<rect x="236" y="341" width="5" height="13" fill="#b5651d"/>
<text x="246" y="351">90  (18x5)  0.6%</text>
<text x="230" y="371" text-anchor="end">__ltsf2</text>
<rect x="236" y="361" width="2" height="13" fill="#b5651d"/>
<text x="243" y="371">30  (3x10)  0.2%</text>
<text x="230" y="391" text-anchor="end">__divsf3</text>
<rect x="236" y="381" width="1" height="13" fill="#b5651d"/>
<text x="242" y="391">21  (3x7)  0.1%</text>
<text x="230" y="411" text-anchor="end">__divsf3x</text>
<rect x="236" y="401" width="1" height="13" fill="#b5651d"/>
<text x="242" y="411">15  (3x5)  0.1%</text>
<text x="230" y="431" text-anchor="end">__subsf3</text>
<rect x="236" y="421" width="1" height="13" fill="#b5651d"/>
<text x="242" y="431">6  (6x1)  0.0%</text>
<text x="230" y="451" text-anchor="end">__ctors_end</text>
<rect x="236" y="441" width="1" height="13" fill="#b5651d"/>
<text x="242" y="451">6  (1x6)  0.0%</text>
</svg>
