<svg xmlns="http://www.w3.org/2000/svg" width="876" height="472" font-family="monospace" font-size="12">
<rect width="876" height="472" fill="white"/>
<text x="10" y="22" font-size="15" font-weight="bold">14-control-pid function calls (count) — cat1-14-control-pid-i11-4871b99c-1781456014</text>
<text x="10" y="42" font-size="11" fill="#555">total 3106 across 22 entries; top 20 = 99.9%</text>
<text x="230" y="71" text-anchor="end">__fp_round</text>
<rect x="236" y="61" width="470" height="13" fill="#4677c8"/>
<text x="711" y="71">495  15.9%</text>
<text x="230" y="91" text-anchor="end">__fp_splitA</text>
<rect x="236" y="81" width="470" height="13" fill="#4677c8"/>
<text x="711" y="91">495  15.9%</text>
<text x="230" y="111" text-anchor="end">__fp_split3</text>
<rect x="236" y="101" width="470" height="13" fill="#4677c8"/>
<text x="711" y="111">495  15.9%</text>
<text x="230" y="131" text-anchor="end">__addsf3x</text>
<rect x="236" y="121" width="251" height="13" fill="#4677c8"/>
<text x="492" y="131">264  8.5%</text>
<text x="230" y="151" text-anchor="end">__addsf3</text>
<rect x="236" y="141" width="251" height="13" fill="#4677c8"/>
<text x="492" y="151">264  8.5%</text>
<text x="230" y="171" text-anchor="end">__mulsf3</text>
<rect x="236" y="161" width="188" height="13" fill="#4677c8"/>
<text x="429" y="171">198  6.4%</text>
<text x="230" y="191" text-anchor="end">__mulsf3x</text>
<rect x="236" y="181" width="188" height="13" fill="#4677c8"/>
<text x="429" y="191">198  6.4%</text>
<text x="230" y="211" text-anchor="end">__mulsf3_pse</text>
<rect x="236" y="201" width="188" height="13" fill="#4677c8"/>
<text x="429" y="211">198  6.4%</text>
<text x="230" y="231" text-anchor="end">__fp_cmp</text>
<rect x="236" y="221" width="124" height="13" fill="#4677c8"/>
<text x="365" y="231">131  4.2%</text>
<text x="230" y="251" text-anchor="end">__gesf2</text>
<rect x="236" y="241" width="93" height="13" fill="#4677c8"/>
<text x="334" y="251">98  3.2%</text>
<text x="230" y="271" text-anchor="end">__subsf3</text>
<rect x="236" y="261" width="63" height="13" fill="#4677c8"/>
<text x="304" y="271">66  2.1%</text>
<text x="230" y="291" text-anchor="end">__USER_SIGNATURE_REGION_LENGTH__</text>
<rect x="236" y="281" width="31" height="13" fill="#4677c8"/>
<text x="272" y="291">33  1.1%</text>
<text x="230" y="311" text-anchor="end">pid_step</text>
<rect x="236" y="301" width="31" height="13" fill="#4677c8"/>
<text x="272" y="311">33  1.1%</text>
<text x="230" y="331" text-anchor="end">__ltsf2</text>
<rect x="236" y="321" width="31" height="13" fill="#4677c8"/>
<text x="272" y="331">33  1.1%</text>
<text x="230" y="351" text-anchor="end">__divsf3</text>
<rect x="236" y="341" width="31" height="13" fill="#4677c8"/>
<text x="272" y="351">33  1.1%</text>
<text x="230" y="371" text-anchor="end">__divsf3x</text>
<rect x="236" y="361" width="31" height="13" fill="#4677c8"/>
<text x="272" y="371">33  1.1%</text>
<text x="230" y="391" text-anchor="end">__divsf3_pse</text>
<rect x="236" y="381" width="31" height="13" fill="#4677c8"/>
<text x="272" y="391">33  1.1%</text>
<text x="230" y="411" text-anchor="end">__fp_szero</text>
<rect x="236" y="401" width="2" height="13" fill="#4677c8"/>
<text x="243" y="411">2  0.1%</text>
<text x="230" y="431" text-anchor="end">__ctors_end</text>
<rect x="236" y="421" width="1" height="13" fill="#4677c8"/>
<text x="242" y="431">1  0.0%</text>
<text x="230" y="451" text-anchor="end">__heap_end</text>
<rect x="236" y="441" width="1" height="13" fill="#4677c8"/>
<text x="242" y="451">1  0.0%</text>
</svg>
