<svg xmlns="http://www.w3.org/2000/svg" width="876" height="472" font-family="monospace" font-size="12">
<rect width="876" height="472" fill="white"/>
<text x="10" y="22" font-size="15" font-weight="bold">14-control-pid function-mix (insts) — cat1-14-control-pid-i1-2a48d060-1781456010</text>
<text x="10" y="42" font-size="11" fill="#555">total 12965 across 21 entries; top 20 = 100.0%</text>
<text x="230" y="71" text-anchor="end">main</text>
<rect x="236" y="61" width="470" height="13" fill="#4677c8"/>
<text x="711" y="71">6921  53.4%</text>
<text x="230" y="91" text-anchor="end">__mulsf3_pse</text>
<rect x="236" y="81" width="80" height="13" fill="#4677c8"/>
<text x="321" y="91">1182  9.1%</text>
<text x="230" y="111" text-anchor="end">__divsf3_pse</text>
<rect x="236" y="101" width="76" height="13" fill="#4677c8"/>
<text x="317" y="111">1116  8.6%</text>
<text x="230" y="131" text-anchor="end">__addsf3x</text>
<rect x="236" y="121" width="64" height="13" fill="#4677c8"/>
<text x="305" y="131">940  7.3%</text>
<text x="230" y="151" text-anchor="end">__USER_SIGNATURE_REGION_LENGTH__</text>
<rect x="236" y="141" width="38" height="13" fill="#4677c8"/>
<text x="279" y="151">555  4.3%</text>
<text x="230" y="171" text-anchor="end">__fp_round</text>
<rect x="236" y="161" width="30" height="13" fill="#4677c8"/>
<text x="271" y="171">441  3.4%</text>
<text x="230" y="191" text-anchor="end">__fp_splitA</text>
<rect x="236" y="181" width="29" height="13" fill="#4677c8"/>
<text x="270" y="191">429  3.3%</text>
<text x="230" y="211" text-anchor="end">__do_copy_data</text>
<rect x="236" y="201" width="27" height="13" fill="#4677c8"/>
<text x="268" y="211">392  3.0%</text>
<text x="230" y="231" text-anchor="end">__fp_cmp</text>
<rect x="236" y="221" width="23" height="13" fill="#4677c8"/>
<text x="264" y="231">342  2.6%</text>
<text x="230" y="251" text-anchor="end">__fp_split3</text>
<rect x="236" y="241" width="20" height="13" fill="#4677c8"/>
<text x="261" y="251">301  2.3%</text>
<text x="230" y="271" text-anchor="end">pid_step</text>
<rect x="236" y="261" width="8" height="13" fill="#4677c8"/>
<text x="249" y="271">117  0.9%</text>
<text x="230" y="291" text-anchor="end">__addsf3</text>
<rect x="236" y="281" width="7" height="13" fill="#4677c8"/>
<text x="248" y="291">96  0.7%</text>
<text x="230" y="311" text-anchor="end">__mulsf3</text>
<rect x="236" y="301" width="2" height="13" fill="#4677c8"/>
<text x="243" y="311">36  0.3%</text>
<text x="230" y="331" text-anchor="end">__mulsf3x</text>
<rect x="236" y="321" width="2" height="13" fill="#4677c8"/>
<text x="243" y="331">36  0.3%</text>
<text x="230" y="351" text-anchor="end">__gesf2</text>
<rect x="236" y="341" width="2" height="13" fill="#4677c8"/>
<text x="243" y="351">27  0.2%</text>
<text x="230" y="371" text-anchor="end">__ltsf2</text>
<rect x="236" y="361" width="1" height="13" fill="#4677c8"/>
<text x="242" y="371">9  0.1%</text>
<text x="230" y="391" text-anchor="end">__divsf3x</text>
<rect x="236" y="381" width="1" height="13" fill="#4677c8"/>
<text x="242" y="391">6  0.0%</text>
<text x="230" y="411" text-anchor="end">__subsf3</text>
<rect x="236" y="401" width="1" height="13" fill="#4677c8"/>
<text x="242" y="411">6  0.0%</text>
<text x="230" y="431" text-anchor="end">__ctors_end</text>
<rect x="236" y="421" width="1" height="13" fill="#4677c8"/>
<text x="242" y="431">6  0.0%</text>
<text x="230" y="451" text-anchor="end">__divsf3</text>
<rect x="236" y="441" width="1" height="13" fill="#4677c8"/>
<text x="242" y="451">6  0.0%</text>
</svg>
