<svg xmlns="http://www.w3.org/2000/svg" width="736" height="472" font-family="monospace" font-size="12">
<rect width="736" height="472" fill="white"/>
<text x="10" y="22" font-size="15" font-weight="bold">14-control-pid op-mix (insts) — cat1-14-control-pid-i1-2a48d060-1781456010</text>
<text x="10" y="42" font-size="11" fill="#555">total 12965 across 52 entries; top 20 = 86.1%</text>
<text x="90" y="71" text-anchor="end">eor</text>
<rect x="96" y="61" width="470" height="13" fill="#4677c8"/>
<text x="571" y="71">1603  12.4%</text>
<text x="90" y="91" text-anchor="end">ror_inst</text>
<rect x="96" y="81" width="346" height="13" fill="#4677c8"/>
<text x="447" y="91">1179  9.1%</text>
<text x="90" y="111" text-anchor="end">andi</text>
<rect x="96" y="101" width="284" height="13" fill="#4677c8"/>
<text x="385" y="111">968  7.5%</text>
<text x="90" y="131" text-anchor="end">adc</text>
<rect x="96" y="121" width="232" height="13" fill="#4677c8"/>
<text x="333" y="131">791  6.1%</text>
<text x="90" y="151" text-anchor="end">brbc</text>
<rect x="96" y="141" width="230" height="13" fill="#4677c8"/>
<text x="331" y="151">784  6.0%</text>
<text x="90" y="171" text-anchor="end">sbci</text>
<rect x="96" y="161" width="215" height="13" fill="#4677c8"/>
<text x="316" y="171">733  5.7%</text>
<text x="90" y="191" text-anchor="end">com</text>
<rect x="96" y="181" width="189" height="13" fill="#4677c8"/>
<text x="290" y="191">646  5.0%</text>
<text x="90" y="211" text-anchor="end">movw</text>
<rect x="96" y="201" width="182" height="13" fill="#4677c8"/>
<text x="283" y="211">621  4.8%</text>
<text x="90" y="231" text-anchor="end">cpc</text>
<rect x="96" y="221" width="167" height="13" fill="#4677c8"/>
<text x="268" y="231">568  4.4%</text>
<text x="90" y="251" text-anchor="end">add</text>
<rect x="96" y="241" width="157" height="13" fill="#4677c8"/>
<text x="258" y="251">536  4.1%</text>
<text x="90" y="271" text-anchor="end">brbs</text>
<rect x="96" y="261" width="156" height="13" fill="#4677c8"/>
<text x="257" y="271">531  4.1%</text>
<text x="90" y="291" text-anchor="end">lsr</text>
<rect x="96" y="281" width="109" height="13" fill="#4677c8"/>
<text x="210" y="291">373  2.9%</text>
<text x="90" y="311" text-anchor="end">subi</text>
<rect x="96" y="301" width="86" height="13" fill="#4677c8"/>
<text x="187" y="311">292  2.3%</text>
<text x="90" y="331" text-anchor="end">mov</text>
<rect x="96" y="321" width="80" height="13" fill="#4677c8"/>
<text x="181" y="331">273  2.1%</text>
<text x="90" y="351" text-anchor="end">ldd_y</text>
<rect x="96" y="341" width="70" height="13" fill="#4677c8"/>
<text x="171" y="351">240  1.9%</text>
<text x="90" y="371" text-anchor="end">ldi</text>
<rect x="96" y="361" width="69" height="13" fill="#4677c8"/>
<text x="170" y="371">234  1.8%</text>
<text x="90" y="391" text-anchor="end">cpi</text>
<rect x="96" y="381" width="66" height="13" fill="#4677c8"/>
<text x="167" y="391">226  1.7%</text>
<text x="90" y="411" text-anchor="end">neg</text>
<rect x="96" y="401" width="56" height="13" fill="#4677c8"/>
<text x="157" y="411">192  1.5%</text>
<text x="90" y="431" text-anchor="end">cp</text>
<rect x="96" y="421" width="55" height="13" fill="#4677c8"/>
<text x="156" y="431">186  1.4%</text>
<text x="90" y="451" text-anchor="end">sbc</text>
<rect x="96" y="441" width="54" height="13" fill="#4677c8"/>
<text x="155" y="451">185  1.4%</text>
</svg>
