<svg xmlns="http://www.w3.org/2000/svg" width="876" height="472" font-family="monospace" font-size="12">
<rect width="876" height="472" fill="white"/>
<text x="10" y="22" font-size="15" font-weight="bold">14-control-pid function-mix (cycles) — cat1-14-control-pid-i1-2a48d060-1781456010</text>
<text x="10" y="42" font-size="11" fill="#555">total 15943 across 21 entries; top 20 = 100.0%</text>
<text x="230" y="71" text-anchor="end">main</text>
<rect x="236" y="61" width="470" height="13" fill="#4677c8"/>
<text x="711" y="71">7610  47.7%</text>
<text x="230" y="91" text-anchor="end">__mulsf3_pse</text>
<rect x="236" y="81" width="90" height="13" fill="#4677c8"/>
<text x="331" y="91">1458  9.1%</text>
<text x="230" y="111" text-anchor="end">__divsf3_pse</text>
<rect x="236" y="101" width="79" height="13" fill="#4677c8"/>
<text x="320" y="111">1275  8.0%</text>
<text x="230" y="131" text-anchor="end">__addsf3x</text>
<rect x="236" y="121" width="75" height="13" fill="#4677c8"/>
<text x="316" y="131">1209  7.6%</text>
<text x="230" y="151" text-anchor="end">__USER_SIGNATURE_REGION_LENGTH__</text>
<rect x="236" y="141" width="64" height="13" fill="#4677c8"/>
<text x="305" y="151">1044  6.5%</text>
<text x="230" y="171" text-anchor="end">__fp_round</text>
<rect x="236" y="161" width="41" height="13" fill="#4677c8"/>
<text x="282" y="171">666  4.2%</text>
<text x="230" y="191" text-anchor="end">__fp_splitA</text>
<rect x="236" y="181" width="36" height="13" fill="#4677c8"/>
<text x="277" y="191">582  3.7%</text>
<text x="230" y="211" text-anchor="end">__do_copy_data</text>
<rect x="236" y="201" width="34" height="13" fill="#4677c8"/>
<text x="275" y="211">548  3.4%</text>
<text x="230" y="231" text-anchor="end">__fp_cmp</text>
<rect x="236" y="221" width="24" height="13" fill="#4677c8"/>
<text x="265" y="231">396  2.5%</text>
<text x="230" y="251" text-anchor="end">__fp_split3</text>
<rect x="236" y="241" width="21" height="13" fill="#4677c8"/>
<text x="262" y="251">348  2.2%</text>
<text x="230" y="271" text-anchor="end">__addsf3</text>
<rect x="236" y="261" width="13" height="13" fill="#4677c8"/>
<text x="254" y="271">216  1.4%</text>
<text x="230" y="291" text-anchor="end">pid_step</text>
<rect x="236" y="281" width="13" height="13" fill="#4677c8"/>
<text x="254" y="291">204  1.3%</text>
<text x="230" y="311" text-anchor="end">__mulsf3</text>
<rect x="236" y="301" width="8" height="13" fill="#4677c8"/>
<text x="249" y="311">126  0.8%</text>
<text x="230" y="331" text-anchor="end">__gesf2</text>
<rect x="236" y="321" width="6" height="13" fill="#4677c8"/>
<text x="247" y="331">90  0.6%</text>
<text x="230" y="351" text-anchor="end">__mulsf3x</text>
<rect x="236" y="341" width="6" height="13" fill="#4677c8"/>
<text x="247" y="351">90  0.6%</text>
<text x="230" y="371" text-anchor="end">__ltsf2</text>
<rect x="236" y="361" width="2" height="13" fill="#4677c8"/>
<text x="243" y="371">30  0.2%</text>
<text x="230" y="391" text-anchor="end">__divsf3</text>
<rect x="236" y="381" width="1" height="13" fill="#4677c8"/>
<text x="242" y="391">21  0.1%</text>
<text x="230" y="411" text-anchor="end">__divsf3x</text>
<rect x="236" y="401" width="1" height="13" fill="#4677c8"/>
<text x="242" y="411">15  0.1%</text>
<text x="230" y="431" text-anchor="end">__subsf3</text>
<rect x="236" y="421" width="1" height="13" fill="#4677c8"/>
<text x="242" y="431">6  0.0%</text>
<text x="230" y="451" text-anchor="end">__ctors_end</text>
<rect x="236" y="441" width="1" height="13" fill="#4677c8"/>
<text x="242" y="451">6  0.0%</text>
</svg>
