<svg xmlns="http://www.w3.org/2000/svg" width="876" height="472" font-family="monospace" font-size="12">
<rect width="876" height="472" fill="white"/>
<text x="10" y="22" font-size="15" font-weight="bold">14-control-pid function-mix (insts) — cat1-14-control-pid-i11-4871b99c-1781456014</text>
<text x="10" y="42" font-size="11" fill="#555">total 77411 across 22 entries; top 20 = 100.0%</text>
<text x="230" y="71" text-anchor="end">__addsf3x</text>
<rect x="236" y="61" width="470" height="13" fill="#4677c8"/>
<text x="711" y="71">13736  17.7%</text>
<text x="230" y="91" text-anchor="end">__mulsf3_pse</text>
<rect x="236" y="81" width="452" height="13" fill="#4677c8"/>
<text x="693" y="91">13223  17.1%</text>
<text x="230" y="111" text-anchor="end">__divsf3_pse</text>
<rect x="236" y="101" width="420" height="13" fill="#4677c8"/>
<text x="661" y="111">12289  15.9%</text>
<text x="230" y="131" text-anchor="end">main</text>
<rect x="236" y="121" width="401" height="13" fill="#4677c8"/>
<text x="642" y="131">11714  15.1%</text>
<text x="230" y="151" text-anchor="end">__USER_SIGNATURE_REGION_LENGTH__</text>
<rect x="236" y="141" width="239" height="13" fill="#4677c8"/>
<text x="480" y="151">6998  9.0%</text>
<text x="230" y="171" text-anchor="end">__fp_round</text>
<rect x="236" y="161" width="167" height="13" fill="#4677c8"/>
<text x="408" y="171">4870  6.3%</text>
<text x="230" y="191" text-anchor="end">__fp_splitA</text>
<rect x="236" y="181" width="139" height="13" fill="#4677c8"/>
<text x="380" y="191">4051  5.2%</text>
<text x="230" y="211" text-anchor="end">__fp_cmp</text>
<rect x="236" y="201" width="128" height="13" fill="#4677c8"/>
<text x="369" y="211">3734  4.8%</text>
<text x="230" y="231" text-anchor="end">__fp_split3</text>
<rect x="236" y="221" width="121" height="13" fill="#4677c8"/>
<text x="362" y="231">3546  4.6%</text>
<text x="230" y="251" text-anchor="end">__addsf3</text>
<rect x="236" y="241" width="36" height="13" fill="#4677c8"/>
<text x="277" y="251">1056  1.4%</text>
<text x="230" y="271" text-anchor="end">__mulsf3</text>
<rect x="236" y="261" width="14" height="13" fill="#4677c8"/>
<text x="255" y="271">400  0.5%</text>
<text x="230" y="291" text-anchor="end">pid_step</text>
<rect x="236" y="281" width="14" height="13" fill="#4677c8"/>
<text x="255" y="291">396  0.5%</text>
<text x="230" y="311" text-anchor="end">__mulsf3x</text>
<rect x="236" y="301" width="14" height="13" fill="#4677c8"/>
<text x="255" y="311">396  0.5%</text>
<text x="230" y="331" text-anchor="end">__do_copy_data</text>
<rect x="236" y="321" width="13" height="13" fill="#4677c8"/>
<text x="254" y="331">392  0.5%</text>
<text x="230" y="351" text-anchor="end">__gesf2</text>
<rect x="236" y="341" width="10" height="13" fill="#4677c8"/>
<text x="251" y="351">294  0.4%</text>
<text x="230" y="371" text-anchor="end">__ltsf2</text>
<rect x="236" y="361" width="3" height="13" fill="#4677c8"/>
<text x="244" y="371">99  0.1%</text>
<text x="230" y="391" text-anchor="end">__subsf3</text>
<rect x="236" y="381" width="2" height="13" fill="#4677c8"/>
<text x="243" y="391">66  0.1%</text>
<text x="230" y="411" text-anchor="end">__divsf3</text>
<rect x="236" y="401" width="2" height="13" fill="#4677c8"/>
<text x="243" y="411">66  0.1%</text>
<text x="230" y="431" text-anchor="end">__divsf3x</text>
<rect x="236" y="421" width="2" height="13" fill="#4677c8"/>
<text x="243" y="431">66  0.1%</text>
<text x="230" y="451" text-anchor="end">__fp_szero</text>
<rect x="236" y="441" width="1" height="13" fill="#4677c8"/>
<text x="242" y="451">12  0.0%</text>
</svg>
