<svg xmlns="http://www.w3.org/2000/svg" width="876" height="472" font-family="monospace" font-size="12">
<rect width="876" height="472" fill="white"/>
<text x="10" y="22" font-size="15" font-weight="bold">14-control-pid function calls (count) — cat1-14-control-pid-i1-2a48d060-1781456010</text>
<text x="10" y="42" font-size="11" fill="#555">total 286 across 21 entries; top 20 = 99.7%</text>
<text x="230" y="71" text-anchor="end">__fp_round</text>
<rect x="236" y="61" width="470" height="13" fill="#4677c8"/>
<text x="711" y="71">45  15.7%</text>
<text x="230" y="91" text-anchor="end">__fp_splitA</text>
<rect x="236" y="81" width="470" height="13" fill="#4677c8"/>
<text x="711" y="91">45  15.7%</text>
<text x="230" y="111" text-anchor="end">__fp_split3</text>
<rect x="236" y="101" width="470" height="13" fill="#4677c8"/>
<text x="711" y="111">45  15.7%</text>
<text x="230" y="131" text-anchor="end">__addsf3x</text>
<rect x="236" y="121" width="251" height="13" fill="#4677c8"/>
<text x="492" y="131">24  8.4%</text>
<text x="230" y="151" text-anchor="end">__addsf3</text>
<rect x="236" y="141" width="251" height="13" fill="#4677c8"/>
<text x="492" y="151">24  8.4%</text>
<text x="230" y="171" text-anchor="end">__mulsf3</text>
<rect x="236" y="161" width="188" height="13" fill="#4677c8"/>
<text x="429" y="171">18  6.3%</text>
<text x="230" y="191" text-anchor="end">__mulsf3_pse</text>
<rect x="236" y="181" width="188" height="13" fill="#4677c8"/>
<text x="429" y="191">18  6.3%</text>
<text x="230" y="211" text-anchor="end">__mulsf3x</text>
<rect x="236" y="201" width="188" height="13" fill="#4677c8"/>
<text x="429" y="211">18  6.3%</text>
<text x="230" y="231" text-anchor="end">__fp_cmp</text>
<rect x="236" y="221" width="125" height="13" fill="#4677c8"/>
<text x="366" y="231">12  4.2%</text>
<text x="230" y="251" text-anchor="end">__gesf2</text>
<rect x="236" y="241" width="94" height="13" fill="#4677c8"/>
<text x="335" y="251">9  3.1%</text>
<text x="230" y="271" text-anchor="end">__subsf3</text>
<rect x="236" y="261" width="63" height="13" fill="#4677c8"/>
<text x="304" y="271">6  2.1%</text>
<text x="230" y="291" text-anchor="end">__divsf3x</text>
<rect x="236" y="281" width="31" height="13" fill="#4677c8"/>
<text x="272" y="291">3  1.0%</text>
<text x="230" y="311" text-anchor="end">pid_step</text>
<rect x="236" y="301" width="31" height="13" fill="#4677c8"/>
<text x="272" y="311">3  1.0%</text>
<text x="230" y="331" text-anchor="end">__USER_SIGNATURE_REGION_LENGTH__</text>
<rect x="236" y="321" width="31" height="13" fill="#4677c8"/>
<text x="272" y="331">3  1.0%</text>
<text x="230" y="351" text-anchor="end">__ltsf2</text>
<rect x="236" y="341" width="31" height="13" fill="#4677c8"/>
<text x="272" y="351">3  1.0%</text>
<text x="230" y="371" text-anchor="end">__divsf3</text>
<rect x="236" y="361" width="31" height="13" fill="#4677c8"/>
<text x="272" y="371">3  1.0%</text>
<text x="230" y="391" text-anchor="end">__divsf3_pse</text>
<rect x="236" y="381" width="31" height="13" fill="#4677c8"/>
<text x="272" y="391">3  1.0%</text>
<text x="230" y="411" text-anchor="end">__heap_end</text>
<rect x="236" y="401" width="10" height="13" fill="#4677c8"/>
<text x="251" y="411">1  0.3%</text>
<text x="230" y="431" text-anchor="end">__ctors_end</text>
<rect x="236" y="421" width="10" height="13" fill="#4677c8"/>
<text x="251" y="431">1  0.3%</text>
<text x="230" y="451" text-anchor="end">__do_copy_data</text>
<rect x="236" y="441" width="10" height="13" fill="#4677c8"/>
<text x="251" y="451">1  0.3%</text>
</svg>
