<svg xmlns="http://www.w3.org/2000/svg" width="896" height="472" font-family="monospace" font-size="12">
<rect width="896" height="472" fill="white"/>
<text x="10" y="22" font-size="15" font-weight="bold">14-control-pid runtime cost (calls x cyc/call) — cat1-14-control-pid-i11-4871b99c-1781456014</text>
<text x="10" y="42" font-size="11" fill="#555">cost = calls × cyc/call (= total cycles); total 104384; top 20 = 100.0%</text>
<text x="230" y="71" text-anchor="end">__addsf3x</text>
<rect x="236" y="61" width="420" height="13" fill="#b5651d"/>
<text x="661" y="71">17011  (264x64)  16.3%</text>
<text x="230" y="91" text-anchor="end">__mulsf3_pse</text>
<rect x="236" y="81" width="402" height="13" fill="#b5651d"/>
<text x="643" y="91">16264  (198x82)  15.6%</text>
<text x="230" y="111" text-anchor="end">main</text>
<rect x="236" y="101" width="372" height="13" fill="#b5651d"/>
<text x="613" y="111">15063  (1x15063)  14.4%</text>
<text x="230" y="131" text-anchor="end">__divsf3_pse</text>
<rect x="236" y="121" width="346" height="13" fill="#b5651d"/>
<text x="587" y="131">14034  (33x425)  13.4%</text>
<text x="230" y="151" text-anchor="end">__USER_SIGNATURE_REGION_LENGTH__</text>
<rect x="236" y="141" width="319" height="13" fill="#b5651d"/>
<text x="560" y="151">12935  (33x392)  12.4%</text>
<text x="230" y="171" text-anchor="end">__fp_round</text>
<rect x="236" y="161" width="181" height="13" fill="#b5651d"/>
<text x="422" y="171">7345  (495x15)  7.0%</text>
<text x="230" y="191" text-anchor="end">__fp_splitA</text>
<rect x="236" y="181" width="137" height="13" fill="#b5651d"/>
<text x="378" y="191">5564  (495x11)  5.3%</text>
<text x="230" y="211" text-anchor="end">__fp_cmp</text>
<rect x="236" y="201" width="107" height="13" fill="#b5651d"/>
<text x="348" y="211">4323  (131x33)  4.1%</text>
<text x="230" y="231" text-anchor="end">__fp_split3</text>
<rect x="236" y="221" width="97" height="13" fill="#b5651d"/>
<text x="338" y="231">3946  (495x8)  3.8%</text>
<text x="230" y="251" text-anchor="end">__addsf3</text>
<rect x="236" y="241" width="59" height="13" fill="#b5651d"/>
<text x="300" y="251">2376  (264x9)  2.3%</text>
<text x="230" y="271" text-anchor="end">__mulsf3</text>
<rect x="236" y="261" width="34" height="13" fill="#b5651d"/>
<text x="275" y="271">1394  (198x7)  1.3%</text>
<text x="230" y="291" text-anchor="end">__mulsf3x</text>
<rect x="236" y="281" width="24" height="13" fill="#b5651d"/>
<text x="265" y="291">990  (198x5)  0.9%</text>
<text x="230" y="311" text-anchor="end">__gesf2</text>
<rect x="236" y="301" width="24" height="13" fill="#b5651d"/>
<text x="265" y="311">980  (98x10)  0.9%</text>
<text x="230" y="331" text-anchor="end">pid_step</text>
<rect x="236" y="321" width="20" height="13" fill="#b5651d"/>
<text x="261" y="331">792  (33x24)  0.8%</text>
<text x="230" y="351" text-anchor="end">__do_copy_data</text>
<rect x="236" y="341" width="14" height="13" fill="#b5651d"/>
<text x="255" y="351">548  (1x548)  0.5%</text>
<text x="230" y="371" text-anchor="end">__ltsf2</text>
<rect x="236" y="361" width="8" height="13" fill="#b5651d"/>
<text x="249" y="371">330  (33x10)  0.3%</text>
<text x="230" y="391" text-anchor="end">__divsf3</text>
<rect x="236" y="381" width="6" height="13" fill="#b5651d"/>
<text x="247" y="391">231  (33x7)  0.2%</text>
<text x="230" y="411" text-anchor="end">__divsf3x</text>
<rect x="236" y="401" width="4" height="13" fill="#b5651d"/>
<text x="245" y="411">165  (33x5)  0.2%</text>
<text x="230" y="431" text-anchor="end">__subsf3</text>
<rect x="236" y="421" width="2" height="13" fill="#b5651d"/>
<text x="243" y="431">66  (66x1)  0.1%</text>
<text x="230" y="451" text-anchor="end">__fp_szero</text>
<rect x="236" y="441" width="1" height="13" fill="#b5651d"/>
<text x="242" y="451">18  (2x9)  0.0%</text>
</svg>
