<svg xmlns="http://www.w3.org/2000/svg" width="876" height="472" font-family="monospace" font-size="12">
<rect width="876" height="472" fill="white"/>
<text x="10" y="22" font-size="15" font-weight="bold">24-matmul function-mix (cycles) — cat2-24-matmul-i11-6dceea78-1781456715</text>
<text x="10" y="42" font-size="11" fill="#555">total 1549668 across 25 entries; top 20 = 100.0%</text>
<text x="230" y="71" text-anchor="end">__mulsf3_pse</text>
<rect x="236" y="61" width="470" height="13" fill="#4677c8"/>
<text x="711" y="71">419184  27.0%</text>
<text x="230" y="91" text-anchor="end">__addsf3x</text>
<rect x="236" y="81" width="357" height="13" fill="#4677c8"/>
<text x="598" y="91">318399  20.5%</text>
<text x="230" y="111" text-anchor="end">run_workload</text>
<rect x="236" y="101" width="281" height="13" fill="#4677c8"/>
<text x="522" y="111">250740  16.2%</text>
<text x="230" y="131" text-anchor="end">__fp_round</text>
<rect x="236" y="121" width="172" height="13" fill="#4677c8"/>
<text x="413" y="131">153310  9.9%</text>
<text x="230" y="151" text-anchor="end">__fp_splitA</text>
<rect x="236" y="141" width="159" height="13" fill="#4677c8"/>
<text x="400" y="151">141694  9.1%</text>
<text x="230" y="171" text-anchor="end">__fp_split3</text>
<rect x="236" y="161" width="102" height="13" fill="#4677c8"/>
<text x="343" y="171">90604  5.8%</text>
<text x="230" y="191" text-anchor="end">__addsf3</text>
<rect x="236" y="181" width="58" height="13" fill="#4677c8"/>
<text x="299" y="191">51579  3.3%</text>
<text x="230" y="211" text-anchor="end">__mulsf3</text>
<rect x="236" y="201" width="49" height="13" fill="#4677c8"/>
<text x="290" y="211">43977  2.8%</text>
<text x="230" y="231" text-anchor="end">__mulsf3x</text>
<rect x="236" y="221" width="32" height="13" fill="#4677c8"/>
<text x="273" y="231">28855  1.9%</text>
<text x="230" y="251" text-anchor="end">__udivmodhi4_loop</text>
<rect x="236" y="241" width="14" height="13" fill="#4677c8"/>
<text x="255" y="251">12425  0.8%</text>
<text x="230" y="271" text-anchor="end">__udivmodhi4_ep</text>
<rect x="236" y="261" width="13" height="13" fill="#4677c8"/>
<text x="254" y="271">11776  0.8%</text>
<text x="230" y="291" text-anchor="end">__fp_szero</text>
<rect x="236" y="281" width="11" height="13" fill="#4677c8"/>
<text x="252" y="291">9567  0.6%</text>
<text x="230" y="311" text-anchor="end">__floatsisf</text>
<rect x="236" y="301" width="9" height="13" fill="#4677c8"/>
<text x="250" y="311">7649  0.5%</text>
<text x="230" y="331" text-anchor="end">.do_clear_bss_start</text>
<rect x="236" y="321" width="3" height="13" fill="#4677c8"/>
<text x="244" y="331">3079  0.2%</text>
<text x="230" y="351" text-anchor="end">_div</text>
<rect x="236" y="341" width="2" height="13" fill="#4677c8"/>
<text x="243" y="351">1792  0.1%</text>
<text x="230" y="371" text-anchor="end">.do_clear_bss_loop</text>
<rect x="236" y="361" width="2" height="13" fill="#4677c8"/>
<text x="243" y="371">1536  0.1%</text>
<text x="230" y="391" text-anchor="end">main</text>
<rect x="236" y="381" width="1" height="13" fill="#4677c8"/>
<text x="242" y="391">1064  0.1%</text>
<text x="230" y="411" text-anchor="end">__USER_SIGNATURE_REGION_LENGTH__</text>
<rect x="236" y="401" width="1" height="13" fill="#4677c8"/>
<text x="242" y="411">896  0.1%</text>
<text x="230" y="431" text-anchor="end">__udivmodhi4</text>
<rect x="236" y="421" width="1" height="13" fill="#4677c8"/>
<text x="242" y="431">640  0.0%</text>
<text x="230" y="451" text-anchor="end">__divmodhi4_exit</text>
<rect x="236" y="441" width="1" height="13" fill="#4677c8"/>
<text x="242" y="451">512  0.0%</text>
</svg>
