<svg xmlns="http://www.w3.org/2000/svg" width="876" height="472" font-family="monospace" font-size="12">
<rect width="876" height="472" fill="white"/>
<text x="10" y="22" font-size="15" font-weight="bold">24-matmul function-mix (cycles) — cat2-24-matmul-i1-6ae9ac63-1781456711</text>
<text x="10" y="42" font-size="11" fill="#555">total 198195 across 25 entries; top 20 = 99.9%</text>
<text x="230" y="71" text-anchor="end">__mulsf3_pse</text>
<rect x="236" y="61" width="470" height="13" fill="#4677c8"/>
<text x="711" y="71">46790  23.6%</text>
<text x="230" y="91" text-anchor="end">__addsf3x</text>
<rect x="236" y="81" width="293" height="13" fill="#4677c8"/>
<text x="534" y="91">29210  14.7%</text>
<text x="230" y="111" text-anchor="end">run_workload</text>
<rect x="236" y="101" width="281" height="13" fill="#4677c8"/>
<text x="522" y="111">27930  14.1%</text>
<text x="230" y="131" text-anchor="end">__fp_round</text>
<rect x="236" y="121" width="155" height="13" fill="#4677c8"/>
<text x="396" y="131">15475  7.8%</text>
<text x="230" y="151" text-anchor="end">__fp_splitA</text>
<rect x="236" y="141" width="143" height="13" fill="#4677c8"/>
<text x="384" y="151">14259  7.2%</text>
<text x="230" y="171" text-anchor="end">__udivmodhi4_loop</text>
<rect x="236" y="161" width="125" height="13" fill="#4677c8"/>
<text x="366" y="171">12425  6.3%</text>
<text x="230" y="191" text-anchor="end">__udivmodhi4_ep</text>
<rect x="236" y="181" width="118" height="13" fill="#4677c8"/>
<text x="359" y="191">11776  5.9%</text>
<text x="230" y="211" text-anchor="end">__fp_split3</text>
<rect x="236" y="201" width="92" height="13" fill="#4677c8"/>
<text x="333" y="211">9164  4.6%</text>
<text x="230" y="231" text-anchor="end">__floatsisf</text>
<rect x="236" y="221" width="77" height="13" fill="#4677c8"/>
<text x="318" y="231">7649  3.9%</text>
<text x="230" y="251" text-anchor="end">__mulsf3</text>
<rect x="236" y="241" width="49" height="13" fill="#4677c8"/>
<text x="290" y="251">4867  2.5%</text>
<text x="230" y="271" text-anchor="end">__addsf3</text>
<rect x="236" y="261" width="47" height="13" fill="#4677c8"/>
<text x="288" y="271">4689  2.4%</text>
<text x="230" y="291" text-anchor="end">__mulsf3x</text>
<rect x="236" y="281" width="32" height="13" fill="#4677c8"/>
<text x="273" y="291">3205  1.6%</text>
<text x="230" y="311" text-anchor="end">.do_clear_bss_start</text>
<rect x="236" y="301" width="31" height="13" fill="#4677c8"/>
<text x="272" y="311">3079  1.6%</text>
<text x="230" y="331" text-anchor="end">_div</text>
<rect x="236" y="321" width="18" height="13" fill="#4677c8"/>
<text x="259" y="331">1792  0.9%</text>
<text x="230" y="351" text-anchor="end">.do_clear_bss_loop</text>
<rect x="236" y="341" width="15" height="13" fill="#4677c8"/>
<text x="256" y="351">1536  0.8%</text>
<text x="230" y="371" text-anchor="end">main</text>
<rect x="236" y="361" width="11" height="13" fill="#4677c8"/>
<text x="252" y="371">1064  0.5%</text>
<text x="230" y="391" text-anchor="end">__fp_szero</text>
<rect x="236" y="381" width="10" height="13" fill="#4677c8"/>
<text x="251" y="391">999  0.5%</text>
<text x="230" y="411" text-anchor="end">__USER_SIGNATURE_REGION_LENGTH__</text>
<rect x="236" y="401" width="9" height="13" fill="#4677c8"/>
<text x="250" y="411">896  0.5%</text>
<text x="230" y="431" text-anchor="end">__udivmodhi4</text>
<rect x="236" y="421" width="6" height="13" fill="#4677c8"/>
<text x="247" y="431">640  0.3%</text>
<text x="230" y="451" text-anchor="end">__divmodhi4_exit</text>
<rect x="236" y="441" width="5" height="13" fill="#4677c8"/>
<text x="246" y="451">512  0.3%</text>
</svg>
