<svg xmlns="http://www.w3.org/2000/svg" width="736" height="472" font-family="monospace" font-size="12">
<rect width="736" height="472" fill="white"/>
<text x="10" y="22" font-size="15" font-weight="bold">24-matmul op-mix (insts) — cat2-24-matmul-i11-6dceea78-1781456715</text>
<text x="10" y="42" font-size="11" fill="#555">total 1123454 across 50 entries; top 20 = 91.2%</text>
<text x="90" y="71" text-anchor="end">adc</text>
<rect x="96" y="61" width="470" height="13" fill="#4677c8"/>
<text x="571" y="71">149809  13.3%</text>
<text x="90" y="91" text-anchor="end">add</text>
<rect x="96" y="81" width="364" height="13" fill="#4677c8"/>
<text x="465" y="91">116034  10.3%</text>
<text x="90" y="111" text-anchor="end">brbs</text>
<rect x="96" y="101" width="349" height="13" fill="#4677c8"/>
<text x="450" y="111">111298  9.9%</text>
<text x="90" y="131" text-anchor="end">movw</text>
<rect x="96" y="121" width="239" height="13" fill="#4677c8"/>
<text x="340" y="131">76191  6.8%</text>
<text x="90" y="151" text-anchor="end">brbc</text>
<rect x="96" y="141" width="207" height="13" fill="#4677c8"/>
<text x="308" y="151">65985  5.9%</text>
<text x="90" y="171" text-anchor="end">ror_inst</text>
<rect x="96" y="161" width="196" height="13" fill="#4677c8"/>
<text x="297" y="171">62543  5.6%</text>
<text x="90" y="191" text-anchor="end">eor</text>
<rect x="96" y="181" width="167" height="13" fill="#4677c8"/>
<text x="268" y="191">53382  4.8%</text>
<text x="90" y="211" text-anchor="end">mul</text>
<rect x="96" y="201" width="156" height="13" fill="#4677c8"/>
<text x="257" y="211">49677  4.4%</text>
<text x="90" y="231" text-anchor="end">mov</text>
<rect x="96" y="221" width="137" height="13" fill="#4677c8"/>
<text x="238" y="231">43707  3.9%</text>
<text x="90" y="251" text-anchor="end">cpc</text>
<rect x="96" y="241" width="134" height="13" fill="#4677c8"/>
<text x="235" y="251">42830  3.8%</text>
<text x="90" y="271" text-anchor="end">call</text>
<rect x="96" y="261" width="109" height="13" fill="#4677c8"/>
<text x="210" y="271">34892  3.1%</text>
<text x="90" y="291" text-anchor="end">ret</text>
<rect x="96" y="281" width="109" height="13" fill="#4677c8"/>
<text x="210" y="291">34891  3.1%</text>
<text x="90" y="311" text-anchor="end">cpi</text>
<rect x="96" y="301" width="104" height="13" fill="#4677c8"/>
<text x="205" y="311">33169  3.0%</text>
<text x="90" y="331" text-anchor="end">sbci</text>
<rect x="96" y="321" width="87" height="13" fill="#4677c8"/>
<text x="188" y="331">27676  2.5%</text>
<text x="90" y="351" text-anchor="end">subi</text>
<rect x="96" y="341" width="80" height="13" fill="#4677c8"/>
<text x="181" y="351">25631  2.3%</text>
<text x="90" y="371" text-anchor="end">ldd_z</text>
<rect x="96" y="361" width="72" height="13" fill="#4677c8"/>
<text x="173" y="371">22888  2.0%</text>
<text x="90" y="391" text-anchor="end">ld_x_postinc</text>
<rect x="96" y="381" width="71" height="13" fill="#4677c8"/>
<text x="172" y="391">22561  2.0%</text>
<text x="90" y="411" text-anchor="end">cp</text>
<rect x="96" y="401" width="62" height="13" fill="#4677c8"/>
<text x="163" y="411">19731  1.8%</text>
<text x="90" y="431" text-anchor="end">inc</text>
<rect x="96" y="421" width="61" height="13" fill="#4677c8"/>
<text x="162" y="431">19323  1.7%</text>
<text x="90" y="451" text-anchor="end">jmp</text>
<rect x="96" y="441" width="39" height="13" fill="#4677c8"/>
<text x="140" y="451">12566  1.1%</text>
</svg>
