<svg xmlns="http://www.w3.org/2000/svg" width="736" height="472" font-family="monospace" font-size="12">
<rect width="736" height="472" fill="white"/>
<text x="10" y="22" font-size="15" font-weight="bold">24-matmul op-mix (cycles) — cat2-24-matmul-i1-6ae9ac63-1781456711</text>
<text x="10" y="42" font-size="11" fill="#555">total 198195 across 50 entries; top 20 = 90.0%</text>
<text x="90" y="71" text-anchor="end">adc</text>
<rect x="96" y="61" width="470" height="13" fill="#4677c8"/>
<text x="571" y="71">24925  12.6%</text>
<text x="90" y="91" text-anchor="end">brbc</text>
<rect x="96" y="81" width="354" height="13" fill="#4677c8"/>
<text x="455" y="91">18780  9.5%</text>
<text x="90" y="111" text-anchor="end">brbs</text>
<rect x="96" y="101" width="351" height="13" fill="#4677c8"/>
<text x="452" y="111">18598  9.4%</text>
<text x="90" y="131" text-anchor="end">call</text>
<rect x="96" y="121" width="292" height="13" fill="#4677c8"/>
<text x="393" y="131">15488  7.8%</text>
<text x="90" y="151" text-anchor="end">ret</text>
<rect x="96" y="141" width="292" height="13" fill="#4677c8"/>
<text x="393" y="151">15484  7.8%</text>
<text x="90" y="171" text-anchor="end">add</text>
<rect x="96" y="161" width="245" height="13" fill="#4677c8"/>
<text x="346" y="171">13008  6.6%</text>
<text x="90" y="191" text-anchor="end">mul</text>
<rect x="96" y="181" width="210" height="13" fill="#4677c8"/>
<text x="311" y="191">11114  5.6%</text>
<text x="90" y="211" text-anchor="end">movw</text>
<rect x="96" y="201" width="151" height="13" fill="#4677c8"/>
<text x="252" y="211">7985  4.0%</text>
<text x="90" y="231" text-anchor="end">cpc</text>
<rect x="96" y="221" width="128" height="13" fill="#4677c8"/>
<text x="229" y="231">6764  3.4%</text>
<text x="90" y="251" text-anchor="end">ror_inst</text>
<rect x="96" y="241" width="122" height="13" fill="#4677c8"/>
<text x="223" y="251">6471  3.3%</text>
<text x="90" y="271" text-anchor="end">eor</text>
<rect x="96" y="261" width="109" height="13" fill="#4677c8"/>
<text x="210" y="271">5757  2.9%</text>
<text x="90" y="291" text-anchor="end">mov</text>
<rect x="96" y="281" width="90" height="13" fill="#4677c8"/>
<text x="191" y="291">4784  2.4%</text>
<text x="90" y="311" text-anchor="end">ldd_z</text>
<rect x="96" y="301" width="79" height="13" fill="#4677c8"/>
<text x="180" y="311">4176  2.1%</text>
<text x="90" y="331" text-anchor="end">ld_x_postinc</text>
<rect x="96" y="321" width="77" height="13" fill="#4677c8"/>
<text x="178" y="331">4102  2.1%</text>
<text x="90" y="351" text-anchor="end">cpi</text>
<rect x="96" y="341" width="77" height="13" fill="#4677c8"/>
<text x="178" y="351">4087  2.1%</text>
<text x="90" y="371" text-anchor="end">jmp</text>
<rect x="96" y="361" width="72" height="13" fill="#4677c8"/>
<text x="173" y="371">3822  1.9%</text>
<text x="90" y="391" text-anchor="end">cp</text>
<rect x="96" y="381" width="72" height="13" fill="#4677c8"/>
<text x="173" y="391">3792  1.9%</text>
<text x="90" y="411" text-anchor="end">st_x_postinc</text>
<rect x="96" y="401" width="59" height="13" fill="#4677c8"/>
<text x="160" y="411">3128  1.6%</text>
<text x="90" y="431" text-anchor="end">sbci</text>
<rect x="96" y="421" width="58" height="13" fill="#4677c8"/>
<text x="159" y="431">3093  1.6%</text>
<text x="90" y="451" text-anchor="end">dec</text>
<rect x="96" y="441" width="56" height="13" fill="#4677c8"/>
<text x="157" y="451">2969  1.5%</text>
</svg>
