<svg xmlns="http://www.w3.org/2000/svg" width="736" height="472" font-family="monospace" font-size="12">
<rect width="736" height="472" fill="white"/>
<text x="10" y="22" font-size="15" font-weight="bold">24-matmul op-mix (insts) — cat2-24-matmul-i1-6ae9ac63-1781456711</text>
<text x="10" y="42" font-size="11" fill="#555">total 145892 across 50 entries; top 20 = 89.0%</text>
<text x="90" y="71" text-anchor="end">adc</text>
<rect x="96" y="61" width="470" height="13" fill="#4677c8"/>
<text x="571" y="71">24925  17.1%</text>
<text x="90" y="91" text-anchor="end">brbs</text>
<rect x="96" y="81" width="259" height="13" fill="#4677c8"/>
<text x="360" y="91">13751  9.4%</text>
<text x="90" y="111" text-anchor="end">add</text>
<rect x="96" y="101" width="245" height="13" fill="#4677c8"/>
<text x="346" y="111">13008  8.9%</text>
<text x="90" y="131" text-anchor="end">brbc</text>
<rect x="96" y="121" width="194" height="13" fill="#4677c8"/>
<text x="295" y="131">10283  7.0%</text>
<text x="90" y="151" text-anchor="end">movw</text>
<rect x="96" y="141" width="151" height="13" fill="#4677c8"/>
<text x="252" y="151">7985  5.5%</text>
<text x="90" y="171" text-anchor="end">cpc</text>
<rect x="96" y="161" width="128" height="13" fill="#4677c8"/>
<text x="229" y="171">6764  4.6%</text>
<text x="90" y="191" text-anchor="end">ror_inst</text>
<rect x="96" y="181" width="122" height="13" fill="#4677c8"/>
<text x="223" y="191">6471  4.4%</text>
<text x="90" y="211" text-anchor="end">eor</text>
<rect x="96" y="201" width="109" height="13" fill="#4677c8"/>
<text x="210" y="211">5757  3.9%</text>
<text x="90" y="231" text-anchor="end">mul</text>
<rect x="96" y="221" width="105" height="13" fill="#4677c8"/>
<text x="206" y="231">5557  3.8%</text>
<text x="90" y="251" text-anchor="end">mov</text>
<rect x="96" y="241" width="90" height="13" fill="#4677c8"/>
<text x="191" y="251">4784  3.3%</text>
<text x="90" y="271" text-anchor="end">cpi</text>
<rect x="96" y="261" width="77" height="13" fill="#4677c8"/>
<text x="178" y="271">4087  2.8%</text>
<text x="90" y="291" text-anchor="end">call</text>
<rect x="96" y="281" width="73" height="13" fill="#4677c8"/>
<text x="174" y="291">3872  2.7%</text>
<text x="90" y="311" text-anchor="end">ret</text>
<rect x="96" y="301" width="73" height="13" fill="#4677c8"/>
<text x="174" y="311">3871  2.7%</text>
<text x="90" y="331" text-anchor="end">cp</text>
<rect x="96" y="321" width="72" height="13" fill="#4677c8"/>
<text x="173" y="331">3792  2.6%</text>
<text x="90" y="351" text-anchor="end">sbci</text>
<rect x="96" y="341" width="58" height="13" fill="#4677c8"/>
<text x="159" y="351">3093  2.1%</text>
<text x="90" y="371" text-anchor="end">dec</text>
<rect x="96" y="361" width="56" height="13" fill="#4677c8"/>
<text x="157" y="371">2969  2.0%</text>
<text x="90" y="391" text-anchor="end">subi</text>
<rect x="96" y="381" width="53" height="13" fill="#4677c8"/>
<text x="154" y="391">2836  1.9%</text>
<text x="90" y="411" text-anchor="end">ldd_z</text>
<rect x="96" y="401" width="39" height="13" fill="#4677c8"/>
<text x="140" y="411">2088  1.4%</text>
<text x="90" y="431" text-anchor="end">ld_x_postinc</text>
<rect x="96" y="421" width="39" height="13" fill="#4677c8"/>
<text x="140" y="431">2051  1.4%</text>
<text x="90" y="451" text-anchor="end">inc</text>
<rect x="96" y="441" width="35" height="13" fill="#4677c8"/>
<text x="136" y="451">1857  1.3%</text>
</svg>
