<svg xmlns="http://www.w3.org/2000/svg" width="876" height="472" font-family="monospace" font-size="12">
<rect width="876" height="472" fill="white"/>
<text x="10" y="22" font-size="15" font-weight="bold">24-matmul function-mix (insts) — cat2-24-matmul-i1-6ae9ac63-1781456711</text>
<text x="10" y="42" font-size="11" fill="#555">total 145892 across 25 entries; top 20 = 99.9%</text>
<text x="230" y="71" text-anchor="end">__mulsf3_pse</text>
<rect x="236" y="61" width="470" height="13" fill="#4677c8"/>
<text x="711" y="71">38046  26.1%</text>
<text x="230" y="91" text-anchor="end">__addsf3x</text>
<rect x="236" y="81" width="290" height="13" fill="#4677c8"/>
<text x="531" y="91">23485  16.1%</text>
<text x="230" y="111" text-anchor="end">run_workload</text>
<rect x="236" y="101" width="220" height="13" fill="#4677c8"/>
<text x="461" y="111">17812  12.2%</text>
<text x="230" y="131" text-anchor="end">__udivmodhi4_loop</text>
<rect x="236" y="121" width="130" height="13" fill="#4677c8"/>
<text x="371" y="131">10514  7.2%</text>
<text x="230" y="151" text-anchor="end">__fp_splitA</text>
<rect x="236" y="141" width="128" height="13" fill="#4677c8"/>
<text x="369" y="151">10367  7.1%</text>
<text x="230" y="171" text-anchor="end">__fp_round</text>
<rect x="236" y="161" width="119" height="13" fill="#4677c8"/>
<text x="360" y="171">9665  6.6%</text>
<text x="230" y="191" text-anchor="end">__udivmodhi4_ep</text>
<rect x="236" y="181" width="115" height="13" fill="#4677c8"/>
<text x="356" y="191">9344  6.4%</text>
<text x="230" y="211" text-anchor="end">__fp_split3</text>
<rect x="236" y="201" width="103" height="13" fill="#4677c8"/>
<text x="344" y="211">8368  5.7%</text>
<text x="230" y="231" text-anchor="end">__floatsisf</text>
<rect x="236" y="221" width="77" height="13" fill="#4677c8"/>
<text x="318" y="231">6246  4.3%</text>
<text x="230" y="251" text-anchor="end">.do_clear_bss_start</text>
<rect x="236" y="241" width="29" height="13" fill="#4677c8"/>
<text x="270" y="251">2308  1.6%</text>
<text x="230" y="271" text-anchor="end">__addsf3</text>
<rect x="236" y="261" width="26" height="13" fill="#4677c8"/>
<text x="267" y="271">2084  1.4%</text>
<text x="230" y="291" text-anchor="end">__mulsf3</text>
<rect x="236" y="281" width="18" height="13" fill="#4677c8"/>
<text x="259" y="291">1472  1.0%</text>
<text x="230" y="311" text-anchor="end">__mulsf3x</text>
<rect x="236" y="301" width="16" height="13" fill="#4677c8"/>
<text x="257" y="311">1282  0.9%</text>
<text x="230" y="331" text-anchor="end">main</text>
<rect x="236" y="321" width="11" height="13" fill="#4677c8"/>
<text x="252" y="331">908  0.6%</text>
<text x="230" y="351" text-anchor="end">_div</text>
<rect x="236" y="341" width="11" height="13" fill="#4677c8"/>
<text x="252" y="351">896  0.6%</text>
<text x="230" y="371" text-anchor="end">__USER_SIGNATURE_REGION_LENGTH__</text>
<rect x="236" y="361" width="10" height="13" fill="#4677c8"/>
<text x="251" y="371">843  0.6%</text>
<text x="230" y="391" text-anchor="end">.do_clear_bss_loop</text>
<rect x="236" y="381" width="9" height="13" fill="#4677c8"/>
<text x="250" y="391">768  0.5%</text>
<text x="230" y="411" text-anchor="end">__fp_szero</text>
<rect x="236" y="401" width="8" height="13" fill="#4677c8"/>
<text x="249" y="411">666  0.5%</text>
<text x="230" y="431" text-anchor="end">__udivmodhi4</text>
<rect x="236" y="421" width="6" height="13" fill="#4677c8"/>
<text x="247" y="431">512  0.4%</text>
<text x="230" y="451" text-anchor="end">__do_copy_data</text>
<rect x="236" y="441" width="2" height="13" fill="#4677c8"/>
<text x="243" y="451">151  0.1%</text>
</svg>
