<svg xmlns="http://www.w3.org/2000/svg" width="900" height="560" font-family="monospace" font-size="11">
<rect width="900" height="560" fill="white"/>
<text x="70" y="22" font-size="15" font-weight="bold">AVR-XPU roofline — attainable ops/cycle vs arithmetic intensity</text>
<line x1="70.0" y1="60" x2="70.0" y2="510" stroke="#eee"/>
<text x="70.0" y="524" text-anchor="middle" fill="#555">0.25</text>
<line x1="158.9" y1="60" x2="158.9" y2="510" stroke="#eee"/>
<text x="158.9" y="524" text-anchor="middle" fill="#555">0.5</text>
<line x1="247.8" y1="60" x2="247.8" y2="510" stroke="#eee"/>
<text x="247.8" y="524" text-anchor="middle" fill="#555">1</text>
<line x1="336.7" y1="60" x2="336.7" y2="510" stroke="#eee"/>
<text x="336.7" y="524" text-anchor="middle" fill="#555">2</text>
<line x1="425.6" y1="60" x2="425.6" y2="510" stroke="#eee"/>
<text x="425.6" y="524" text-anchor="middle" fill="#555">4</text>
<line x1="514.4" y1="60" x2="514.4" y2="510" stroke="#eee"/>
<text x="514.4" y="524" text-anchor="middle" fill="#555">8</text>
<line x1="603.3" y1="60" x2="603.3" y2="510" stroke="#eee"/>
<text x="603.3" y="524" text-anchor="middle" fill="#555">16</text>
<line x1="692.2" y1="60" x2="692.2" y2="510" stroke="#eee"/>
<text x="692.2" y="524" text-anchor="middle" fill="#555">32</text>
<line x1="781.1" y1="60" x2="781.1" y2="510" stroke="#eee"/>
<text x="781.1" y="524" text-anchor="middle" fill="#555">64</text>
<line x1="870.0" y1="60" x2="870.0" y2="510" stroke="#eee"/>
<text x="870.0" y="524" text-anchor="middle" fill="#555">128</text>
<line x1="70" y1="510.0" x2="870" y2="510.0" stroke="#eee"/>
<text x="64" y="513.0" text-anchor="end" fill="#555">0.001</text>
<line x1="70" y1="403.0" x2="870" y2="403.0" stroke="#eee"/>
<text x="64" y="406.0" text-anchor="end" fill="#555">0.01</text>
<line x1="70" y1="295.9" x2="870" y2="295.9" stroke="#eee"/>
<text x="64" y="298.9" text-anchor="end" fill="#555">0.1</text>
<line x1="70" y1="188.9" x2="870" y2="188.9" stroke="#eee"/>
<text x="64" y="191.9" text-anchor="end" fill="#555">1</text>
<line x1="70" y1="124.4" x2="870" y2="124.4" stroke="#eee"/>
<text x="64" y="127.4" text-anchor="end" fill="#555">4</text>
<line x1="70" y1="60.0" x2="870" y2="60.0" stroke="#eee"/>
<text x="64" y="63.0" text-anchor="end" fill="#555">16</text>
<text x="470.0" y="552" text-anchor="middle">arithmetic intensity (ops / byte moved)</text>
<text x="16" y="285.0" transform="rotate(-90 16 285.0)" text-anchor="middle">attainable ops/cycle</text>
<polyline points="70.0,285.6 158.9,253.3 247.8,221.1 336.7,188.9 425.6,188.9 514.4,188.9 603.3,188.9 692.2,188.9 781.1,188.9 870.0,188.9" fill="none" stroke="#4677c8" stroke-width="2"/>
<text x="868.0" y="184.9" text-anchor="end" fill="#4677c8">W=1 roof</text>
<polyline points="70.0,285.6 158.9,253.3 247.8,221.1 336.7,188.9 425.6,156.7 514.4,124.4 603.3,124.4 692.2,124.4 781.1,124.4 870.0,124.4" fill="none" stroke="#b5651d" stroke-width="2"/>
<text x="868.0" y="120.4" text-anchor="end" fill="#b5651d">W=4 roof</text>
<circle cx="185.1" cy="328.1" r="3" fill="#999"/>
<circle cx="185.1" cy="243.8" r="3.5" fill="#222"/>
<text x="190.1" y="239.8" fill="#222">32-fc</text>
<circle cx="165.2" cy="336.9" r="3" fill="#999"/>
<circle cx="165.2" cy="251.0" r="3.5" fill="#222"/>
<text x="170.2" y="247.0" fill="#222">31-conv2d</text>
<circle cx="78.0" cy="412.9" r="3" fill="#999"/>
<circle cx="78.0" cy="282.6" r="3.5" fill="#222"/>
<text x="83.0" y="278.6" fill="#222">12-ahrs</text>
<circle cx="70.0" cy="415.6" r="3" fill="#999"/>
<circle cx="70.0" cy="285.9" r="3.5" fill="#222"/>
<text x="75.0" y="281.9" fill="#222">25-dotprod</text>
<circle cx="70.0" cy="415.4" r="3" fill="#999"/>
<circle cx="70.0" cy="290.9" r="3.5" fill="#222"/>
<text x="75.0" y="286.9" fill="#222">24-matmul</text>
<circle cx="70.0" cy="407.6" r="3" fill="#999"/>
<circle cx="70.0" cy="297.0" r="3.5" fill="#222"/>
<text x="75.0" y="293.0" fill="#222">11-ekf</text>
<circle cx="70.0" cy="417.8" r="3" fill="#999"/>
<circle cx="70.0" cy="297.8" r="3.5" fill="#222"/>
<text x="75.0" y="293.8" fill="#222">21-fir</text>
<circle cx="70.0" cy="404.8" r="3" fill="#999"/>
<circle cx="70.0" cy="300.8" r="3.5" fill="#222"/>
<text x="75.0" y="296.8" fill="#222">13-quaternion</text>
<circle cx="70.0" cy="412.7" r="3" fill="#999"/>
<circle cx="70.0" cy="322.9" r="3.5" fill="#222"/>
<text x="75.0" y="318.9" fill="#222">22-biquad</text>
<circle cx="70.0" cy="407.3" r="3" fill="#999"/>
<circle cx="70.0" cy="324.2" r="3.5" fill="#222"/>
<text x="75.0" y="320.2" fill="#222">23-fft</text>
<circle cx="70.0" cy="424.0" r="3" fill="#999"/>
<circle cx="70.0" cy="324.4" r="3.5" fill="#222"/>
<text x="75.0" y="320.4" fill="#222">15-control-allocation</text>
<circle cx="70.0" cy="428.6" r="3" fill="#999"/>
<circle cx="70.0" cy="335.9" r="3.5" fill="#222"/>
<text x="75.0" y="331.9" fill="#222">14-control-pid</text>
<text x="70" y="534" font-size="10" fill="#777">grey = baseline softfloat perf; black = attainable at scalar HW arith (W=1); kernels right of a roof's ridge scale with SIMD width</text>
</svg>
