<svg xmlns="http://www.w3.org/2000/svg" width="760" height="560" font-family="monospace" font-size="11">
<rect width="760" height="560" fill="white"/>
<text x="70" y="22" font-size="14" font-weight="bold">Cross-arch roofline: achieved fp-ops/cycle vs arithmetic intensity</text>
<line x1="70.0" y1="56" x2="70.0" y2="504" stroke="#eee"/>
<text x="70.0" y="518" text-anchor="middle" fill="#555">0.03</text>
<line x1="178.9" y1="56" x2="178.9" y2="504" stroke="#eee"/>
<text x="178.9" y="518" text-anchor="middle" fill="#555">0.06</text>
<line x1="259.2" y1="56" x2="259.2" y2="504" stroke="#eee"/>
<text x="259.2" y="518" text-anchor="middle" fill="#555">0.1</text>
<line x1="403.2" y1="56" x2="403.2" y2="504" stroke="#eee"/>
<text x="403.2" y="518" text-anchor="middle" fill="#555">0.25</text>
<line x1="512.1" y1="56" x2="512.1" y2="504" stroke="#eee"/>
<text x="512.1" y="518" text-anchor="middle" fill="#555">0.5</text>
<line x1="621.1" y1="56" x2="621.1" y2="504" stroke="#eee"/>
<text x="621.1" y="518" text-anchor="middle" fill="#555">1</text>
<line x1="730.0" y1="56" x2="730.0" y2="504" stroke="#eee"/>
<text x="730.0" y="518" text-anchor="middle" fill="#555">2</text>
<line x1="70" y1="504.0" x2="730" y2="504.0" stroke="#eee"/>
<text x="64" y="507.0" text-anchor="end" fill="#555">0.004</text>
<line x1="70" y1="437.9" x2="730" y2="437.9" stroke="#eee"/>
<text x="64" y="440.9" text-anchor="end" fill="#555">0.01</text>
<line x1="70" y1="272.0" x2="730" y2="272.0" stroke="#eee"/>
<text x="64" y="275.0" text-anchor="end" fill="#555">0.1</text>
<line x1="70" y1="106.0" x2="730" y2="106.0" stroke="#eee"/>
<text x="64" y="109.0" text-anchor="end" fill="#555">1</text>
<line x1="70" y1="106.0" x2="730" y2="106.0" stroke="#888" stroke-dasharray="5 4"/>
<text x="726" y="102.0" text-anchor="end" fill="#888">scalar FP roof (1 op/cycle)</text>
<circle cx="203.0" cy="453.4" r="3.3" fill="#999999"/>
<circle cx="185.0" cy="457.5" r="3.3" fill="#999999"/>
<circle cx="180.6" cy="457.2" r="3.3" fill="#999999"/>
<circle cx="192.4" cy="445.2" r="3.3" fill="#999999"/>
<circle cx="173.9" cy="460.9" r="3.3" fill="#999999"/>
<circle cx="185.2" cy="440.7" r="3.3" fill="#999999"/>
<circle cx="159.9" cy="453.0" r="3.3" fill="#999999"/>
<circle cx="160.9" cy="444.7" r="3.3" fill="#999999"/>
<circle cx="127.5" cy="470.6" r="3.3" fill="#999999"/>
<circle cx="113.8" cy="477.6" r="3.3" fill="#999999"/>
<circle cx="627.2" cy="131.8" r="3.3" fill="#4677C8"/>
<circle cx="403.9" cy="197.1" r="3.3" fill="#4677C8"/>
<circle cx="393.8" cy="214.4" r="3.3" fill="#4677C8"/>
<circle cx="425.0" cy="160.3" r="3.3" fill="#4677C8"/>
<circle cx="420.8" cy="229.3" r="3.3" fill="#4677C8"/>
<circle cx="445.4" cy="162.7" r="3.3" fill="#4677C8"/>
<circle cx="346.8" cy="188.5" r="3.3" fill="#4677C8"/>
<circle cx="373.8" cy="211.6" r="3.3" fill="#4677C8"/>
<circle cx="270.7" cy="216.6" r="3.3" fill="#4677C8"/>
<circle cx="438.3" cy="211.7" r="3.3" fill="#4677C8"/>
<circle cx="551.2" cy="150.1" r="3.3" fill="#B5651D"/>
<circle cx="403.2" cy="235.8" r="3.3" fill="#B5651D"/>
<circle cx="393.6" cy="224.6" r="3.3" fill="#B5651D"/>
<circle cx="425.5" cy="151.4" r="3.3" fill="#B5651D"/>
<circle cx="420.8" cy="250.8" r="3.3" fill="#B5651D"/>
<circle cx="442.1" cy="188.1" r="3.3" fill="#B5651D"/>
<circle cx="346.7" cy="230.8" r="3.3" fill="#B5651D"/>
<circle cx="369.5" cy="230.3" r="3.3" fill="#B5651D"/>
<circle cx="356.0" cy="255.9" r="3.3" fill="#B5651D"/>
<circle cx="469.0" cy="220.7" r="3.3" fill="#B5651D"/>
<circle cx="84" cy="70" r="3.3" fill="#999999"/>
<text x="94" y="74" fill="#999999">AVR softfloat</text>
<circle cx="84" cy="86" r="3.3" fill="#4677C8"/>
<text x="94" y="90" fill="#4677C8">ARM64 NEON+VFP</text>
<circle cx="84" cy="102" r="3.3" fill="#B5651D"/>
<text x="94" y="106" fill="#B5651D">RISC-V RV64GC</text>
<text x="400.0" y="552" text-anchor="middle">arithmetic intensity (fp-ops / data-byte moved)</text>
<text x="16" y="280.0" transform="rotate(-90 16 280.0)" text-anchor="middle">achieved fp-ops / cycle</text>
</svg>
