<svg xmlns="http://www.w3.org/2000/svg" width="785" height="472" font-family="monospace" font-size="12">
<rect width="785" height="472" fill="white"/>
<text x="10" y="22" font-size="15" font-weight="bold">11-ekf function calls (count) — cat1-11-ekf-i1-501853ba-1781455347</text>
<text x="10" y="42" font-size="11" fill="#555">total 52244 across 31 entries; top 20 = 99.3%</text>
<text x="139" y="71" text-anchor="end">__udivmodhi4_ep</text>
<rect x="145" y="61" width="470" height="13" fill="#4677c8"/>
<text x="620" y="71">9384  18.0%</text>
<text x="139" y="91" text-anchor="end">__udivmodhi4_loop</text>
<rect x="145" y="81" width="442" height="13" fill="#4677c8"/>
<text x="592" y="91">8832  16.9%</text>
<text x="139" y="111" text-anchor="end">.do_clear_bss_start</text>
<rect x="145" y="101" width="231" height="13" fill="#4677c8"/>
<text x="381" y="111">4609  8.8%</text>
<text x="139" y="131" text-anchor="end">.do_clear_bss_loop</text>
<rect x="145" y="121" width="231" height="13" fill="#4677c8"/>
<text x="381" y="131">4608  8.8%</text>
<text x="139" y="151" text-anchor="end">__fp_split3</text>
<rect x="145" y="141" width="192" height="13" fill="#4677c8"/>
<text x="342" y="151">3826  7.3%</text>
<text x="139" y="171" text-anchor="end">__fp_round</text>
<rect x="145" y="161" width="192" height="13" fill="#4677c8"/>
<text x="342" y="171">3826  7.3%</text>
<text x="139" y="191" text-anchor="end">__fp_splitA</text>
<rect x="145" y="181" width="192" height="13" fill="#4677c8"/>
<text x="342" y="191">3826  7.3%</text>
<text x="139" y="211" text-anchor="end">__addsf3x</text>
<rect x="145" y="201" width="84" height="13" fill="#4677c8"/>
<text x="234" y="211">1673  3.2%</text>
<text x="139" y="231" text-anchor="end">__addsf3</text>
<rect x="145" y="221" width="84" height="13" fill="#4677c8"/>
<text x="234" y="231">1673  3.2%</text>
<text x="139" y="251" text-anchor="end">__mulsf3x</text>
<rect x="145" y="241" width="80" height="13" fill="#4677c8"/>
<text x="230" y="251">1601  3.1%</text>
<text x="139" y="271" text-anchor="end">__mulsf3</text>
<rect x="145" y="261" width="80" height="13" fill="#4677c8"/>
<text x="230" y="271">1601  3.1%</text>
<text x="139" y="291" text-anchor="end">__mulsf3_pse</text>
<rect x="145" y="281" width="80" height="13" fill="#4677c8"/>
<text x="230" y="291">1601  3.1%</text>
<text x="139" y="311" text-anchor="end">__floatsisf</text>
<rect x="145" y="301" width="58" height="13" fill="#4677c8"/>
<text x="208" y="311">1152  2.2%</text>
<text x="139" y="331" text-anchor="end">__divsf3x</text>
<rect x="145" y="321" width="28" height="13" fill="#4677c8"/>
<text x="178" y="331">552  1.1%</text>
<text x="139" y="351" text-anchor="end">__udivmodhi4</text>
<rect x="145" y="341" width="28" height="13" fill="#4677c8"/>
<text x="178" y="351">552  1.1%</text>
<text x="139" y="371" text-anchor="end">__divsf3</text>
<rect x="145" y="361" width="28" height="13" fill="#4677c8"/>
<text x="178" y="371">552  1.1%</text>
<text x="139" y="391" text-anchor="end">__divmodhi4_exit</text>
<rect x="145" y="381" width="28" height="13" fill="#4677c8"/>
<text x="178" y="391">552  1.1%</text>
<text x="139" y="411" text-anchor="end">__divsf3_pse</text>
<rect x="145" y="401" width="28" height="13" fill="#4677c8"/>
<text x="178" y="411">552  1.1%</text>
<text x="139" y="431" text-anchor="end">_div</text>
<rect x="145" y="421" width="28" height="13" fill="#4677c8"/>
<text x="178" y="431">552  1.1%</text>
<text x="139" y="451" text-anchor="end">__subsf3</text>
<rect x="145" y="441" width="19" height="13" fill="#4677c8"/>
<text x="169" y="451">378  0.7%</text>
</svg>
