<svg xmlns="http://www.w3.org/2000/svg" width="820" height="472" font-family="monospace" font-size="12">
<rect width="820" height="472" fill="white"/>
<text x="10" y="22" font-size="15" font-weight="bold">11-ekf function-mix (cycles) — cat1-11-ekf-i1-501853ba-1781454701</text>
<text x="10" y="42" font-size="11" fill="#555">total 1022010 across 32 entries; top 20 = 98.9%</text>
<text x="174" y="71" text-anchor="end">__divsf3_pse</text>
<rect x="180" y="61" width="470" height="13" fill="#4677c8"/>
<text x="655" y="71">233106  22.8%</text>
<text x="174" y="91" text-anchor="end">main</text>
<rect x="180" y="81" width="297" height="13" fill="#4677c8"/>
<text x="482" y="91">147140  14.4%</text>
<text x="174" y="111" text-anchor="end">__mulsf3_pse</text>
<rect x="180" y="101" width="227" height="13" fill="#4677c8"/>
<text x="412" y="111">112826  11.0%</text>
<text x="174" y="131" text-anchor="end">__addsf3x</text>
<rect x="180" y="121" width="199" height="13" fill="#4677c8"/>
<text x="384" y="131">98802  9.7%</text>
<text x="174" y="151" text-anchor="end">__floatsisf</text>
<rect x="180" y="141" width="131" height="13" fill="#4677c8"/>
<text x="316" y="151">65111  6.4%</text>
<text x="174" y="171" text-anchor="end">__udivmodhi4_loop</text>
<rect x="180" y="161" width="109" height="13" fill="#4677c8"/>
<text x="294" y="171">53888  5.3%</text>
<text x="174" y="191" text-anchor="end">__fp_round</text>
<rect x="180" y="181" width="106" height="13" fill="#4677c8"/>
<text x="291" y="191">52630  5.1%</text>
<text x="174" y="211" text-anchor="end">__udivmodhi4_ep</text>
<rect x="180" y="201" width="102" height="13" fill="#4677c8"/>
<text x="287" y="211">50784  5.0%</text>
<text x="174" y="231" text-anchor="end">__fp_splitA</text>
<rect x="180" y="221" width="92" height="13" fill="#4677c8"/>
<text x="277" y="231">45726  4.5%</text>
<text x="174" y="251" text-anchor="end">__stack</text>
<rect x="180" y="241" width="66" height="13" fill="#4677c8"/>
<text x="251" y="251">32760  3.2%</text>
<text x="174" y="271" text-anchor="end">__fp_split3</text>
<rect x="180" y="261" width="61" height="13" fill="#4677c8"/>
<text x="246" y="271">30173  3.0%</text>
<text x="174" y="291" text-anchor="end">.do_clear_bss_start</text>
<rect x="180" y="281" width="37" height="13" fill="#4677c8"/>
<text x="222" y="291">18439  1.8%</text>
<text x="174" y="311" text-anchor="end">__addsf3</text>
<rect x="180" y="301" width="30" height="13" fill="#4677c8"/>
<text x="215" y="311">15057  1.5%</text>
<text x="174" y="331" text-anchor="end">__mulsf3</text>
<rect x="180" y="321" width="25" height="13" fill="#4677c8"/>
<text x="210" y="331">12355  1.2%</text>
<text x="174" y="351" text-anchor="end">__EEPROM_REGION_LENGTH__</text>
<rect x="180" y="341" width="20" height="13" fill="#4677c8"/>
<text x="205" y="351">9894  1.0%</text>
<text x="174" y="371" text-anchor="end">.do_clear_bss_loop</text>
<rect x="180" y="361" width="19" height="13" fill="#4677c8"/>
<text x="204" y="371">9216  0.9%</text>
<text x="174" y="391" text-anchor="end">__mulsf3x</text>
<rect x="180" y="381" width="16" height="13" fill="#4677c8"/>
<text x="201" y="391">8005  0.8%</text>
<text x="174" y="411" text-anchor="end">_div</text>
<rect x="180" y="401" width="16" height="13" fill="#4677c8"/>
<text x="201" y="411">7728  0.8%</text>
<text x="174" y="431" text-anchor="end">__divsf3</text>
<rect x="180" y="421" width="8" height="13" fill="#4677c8"/>
<text x="193" y="431">3864  0.4%</text>
<text x="174" y="451" text-anchor="end">__fp_szero</text>
<rect x="180" y="441" width="6" height="13" fill="#4677c8"/>
<text x="191" y="451">2790  0.3%</text>
</svg>
