<svg xmlns="http://www.w3.org/2000/svg" width="820" height="472" font-family="monospace" font-size="12">
<rect width="820" height="472" fill="white"/>
<text x="10" y="22" font-size="15" font-weight="bold">11-ekf function-mix — cat1-11-ekf-i11-30c66b67-1781453276</text>
<text x="10" y="42" font-size="11" fill="#555">total 2760178 across 32 entries; top 20 = 99.6%</text>
<text x="174" y="71" text-anchor="end">__addsf3x</text>
<rect x="180" y="61" width="470" height="13" fill="#4677c8"/>
<text x="655" y="71">613844  22.2%</text>
<text x="174" y="91" text-anchor="end">__mulsf3_pse</text>
<rect x="180" y="81" width="449" height="13" fill="#4677c8"/>
<text x="634" y="91">586807  21.3%</text>
<text x="174" y="111" text-anchor="end">__fp_splitA</text>
<rect x="180" y="101" width="177" height="13" fill="#4677c8"/>
<text x="362" y="111">231031  8.4%</text>
<text x="174" y="131" text-anchor="end">__fp_round</text>
<rect x="180" y="121" width="171" height="13" fill="#4677c8"/>
<text x="356" y="131">223464  8.1%</text>
<text x="174" y="151" text-anchor="end">__stack</text>
<rect x="180" y="141" width="157" height="13" fill="#4677c8"/>
<text x="342" y="151">205667  7.5%</text>
<text x="174" y="171" text-anchor="end">__divsf3_pse</text>
<rect x="180" y="161" width="156" height="13" fill="#4677c8"/>
<text x="341" y="171">203672  7.4%</text>
<text x="174" y="191" text-anchor="end">__fp_split3</text>
<rect x="180" y="181" width="134" height="13" fill="#4677c8"/>
<text x="319" y="191">174554  6.3%</text>
<text x="174" y="211" text-anchor="end">main</text>
<rect x="180" y="201" width="112" height="13" fill="#4677c8"/>
<text x="297" y="211">146373  5.3%</text>
<text x="174" y="231" text-anchor="end">__EEPROM_REGION_LENGTH__</text>
<rect x="180" y="221" width="48" height="13" fill="#4677c8"/>
<text x="233" y="231">62909  2.3%</text>
<text x="174" y="251" text-anchor="end">__floatsisf</text>
<rect x="180" y="241" width="40" height="13" fill="#4677c8"/>
<text x="225" y="251">52260  1.9%</text>
<text x="174" y="271" text-anchor="end">__addsf3</text>
<rect x="180" y="261" width="39" height="13" fill="#4677c8"/>
<text x="224" y="271">50572  1.8%</text>
<text x="174" y="291" text-anchor="end">__udivmodhi4_loop</text>
<rect x="180" y="281" width="35" height="13" fill="#4677c8"/>
<text x="220" y="291">45952  1.7%</text>
<text x="174" y="311" text-anchor="end">__udivmodhi4_ep</text>
<rect x="180" y="301" width="31" height="13" fill="#4677c8"/>
<text x="216" y="311">40296  1.5%</text>
<text x="174" y="331" text-anchor="end">__mulsf3</text>
<rect x="180" y="321" width="23" height="13" fill="#4677c8"/>
<text x="208" y="331">29996  1.1%</text>
<text x="174" y="351" text-anchor="end">__mulsf3x</text>
<rect x="180" y="341" width="18" height="13" fill="#4677c8"/>
<text x="203" y="351">23702  0.9%</text>
<text x="174" y="371" text-anchor="end">__fp_szero</text>
<rect x="180" y="361" width="15" height="13" fill="#4677c8"/>
<text x="200" y="371">19722  0.7%</text>
<text x="174" y="391" text-anchor="end">ekf_predict</text>
<rect x="180" y="381" width="12" height="13" fill="#4677c8"/>
<text x="197" y="391">15862  0.6%</text>
<text x="174" y="411" text-anchor="end">.do_clear_bss_start</text>
<rect x="180" y="401" width="11" height="13" fill="#4677c8"/>
<text x="196" y="411">13828  0.5%</text>
<text x="174" y="431" text-anchor="end">.do_clear_bss_loop</text>
<rect x="180" y="421" width="4" height="13" fill="#4677c8"/>
<text x="189" y="431">4608  0.2%</text>
<text x="174" y="451" text-anchor="end">__subsf3</text>
<rect x="180" y="441" width="3" height="13" fill="#4677c8"/>
<text x="188" y="451">4158  0.2%</text>
</svg>
