<svg xmlns="http://www.w3.org/2000/svg" width="776" height="472" font-family="monospace" font-size="12">
<rect width="776" height="472" fill="white"/>
<text x="10" y="22" font-size="15" font-weight="bold">11-ekf op-mix (top 20) — cat1-11-ekf-i11-30c66b67-1781452321</text>
<text x="10" y="42" font-size="11" fill="#555">total 2760178 insts across 53 mnemonics; top 20 = 88.7% of all</text>
<text x="90" y="71" text-anchor="end">adc</text>
<rect x="96" y="61" width="500" height="13" fill="#4677c8"/>
<text x="601" y="71">342821  12.4%</text>
<text x="90" y="91" text-anchor="end">brbs</text>
<rect x="96" y="81" width="371" height="13" fill="#4677c8"/>
<text x="472" y="91">254531  9.2%</text>
<text x="90" y="111" text-anchor="end">add</text>
<rect x="96" y="101" width="360" height="13" fill="#4677c8"/>
<text x="461" y="111">246612  8.9%</text>
<text x="90" y="131" text-anchor="end">ror_inst</text>
<rect x="96" y="121" width="265" height="13" fill="#4677c8"/>
<text x="366" y="131">181751  6.6%</text>
<text x="90" y="151" text-anchor="end">brbc</text>
<rect x="96" y="141" width="252" height="13" fill="#4677c8"/>
<text x="353" y="151">172847  6.3%</text>
<text x="90" y="171" text-anchor="end">cpc</text>
<rect x="96" y="161" width="195" height="13" fill="#4677c8"/>
<text x="296" y="171">133804  4.8%</text>
<text x="90" y="191" text-anchor="end">eor</text>
<rect x="96" y="181" width="192" height="13" fill="#4677c8"/>
<text x="293" y="191">131738  4.8%</text>
<text x="90" y="211" text-anchor="end">movw</text>
<rect x="96" y="201" width="167" height="13" fill="#4677c8"/>
<text x="268" y="211">114188  4.1%</text>
<text x="90" y="231" text-anchor="end">sbci</text>
<rect x="96" y="221" width="154" height="13" fill="#4677c8"/>
<text x="255" y="231">105669  3.8%</text>
<text x="90" y="251" text-anchor="end">ldd_y</text>
<rect x="96" y="241" width="132" height="13" fill="#4677c8"/>
<text x="233" y="251">90216  3.3%</text>
<text x="90" y="271" text-anchor="end">mul</text>
<rect x="96" y="261" width="132" height="13" fill="#4677c8"/>
<text x="233" y="271">90187  3.3%</text>
<text x="90" y="291" text-anchor="end">mov</text>
<rect x="96" y="281" width="131" height="13" fill="#4677c8"/>
<text x="232" y="291">89841  3.3%</text>
<text x="90" y="311" text-anchor="end">cpi</text>
<rect x="96" y="301" width="116" height="13" fill="#4677c8"/>
<text x="217" y="311">79520  2.9%</text>
<text x="90" y="331" text-anchor="end">ret</text>
<rect x="96" y="321" width="115" height="13" fill="#4677c8"/>
<text x="216" y="331">79061  2.9%</text>
<text x="90" y="351" text-anchor="end">call</text>
<rect x="96" y="341" width="113" height="13" fill="#4677c8"/>
<text x="214" y="351">77406  2.8%</text>
<text x="90" y="371" text-anchor="end">subi</text>
<rect x="96" y="361" width="106" height="13" fill="#4677c8"/>
<text x="207" y="371">72603  2.6%</text>
<text x="90" y="391" text-anchor="end">inc</text>
<rect x="96" y="381" width="77" height="13" fill="#4677c8"/>
<text x="178" y="391">53092  1.9%</text>
<text x="90" y="411" text-anchor="end">cp</text>
<rect x="96" y="401" width="77" height="13" fill="#4677c8"/>
<text x="178" y="411">52590  1.9%</text>
<text x="90" y="431" text-anchor="end">lsr</text>
<rect x="96" y="421" width="58" height="13" fill="#4677c8"/>
<text x="159" y="431">39923  1.4%</text>
<text x="90" y="451" text-anchor="end">sbc</text>
<rect x="96" y="441" width="58" height="13" fill="#4677c8"/>
<text x="159" y="451">39636  1.4%</text>
</svg>
