<svg xmlns="http://www.w3.org/2000/svg" width="820" height="472" font-family="monospace" font-size="12">
<rect width="820" height="472" fill="white"/>
<text x="10" y="22" font-size="15" font-weight="bold">11-ekf function-mix (cycles) — cat1-11-ekf-i11-30c66b67-1781453888</text>
<text x="10" y="42" font-size="11" fill="#555">total 3785558 across 32 entries; top 20 = 99.5%</text>
<text x="174" y="71" text-anchor="end">__addsf3x</text>
<rect x="180" y="61" width="470" height="13" fill="#4677c8"/>
<text x="655" y="71">765046  20.2%</text>
<text x="174" y="91" text-anchor="end">__mulsf3_pse</text>
<rect x="180" y="81" width="447" height="13" fill="#4677c8"/>
<text x="632" y="91">727376  19.2%</text>
<text x="174" y="111" text-anchor="end">__stack</text>
<rect x="180" y="101" width="222" height="13" fill="#4677c8"/>
<text x="407" y="111">360668  9.5%</text>
<text x="174" y="131" text-anchor="end">__fp_round</text>
<rect x="180" y="121" width="214" height="13" fill="#4677c8"/>
<text x="399" y="131">348694  9.2%</text>
<text x="174" y="151" text-anchor="end">__fp_splitA</text>
<rect x="180" y="141" width="194" height="13" fill="#4677c8"/>
<text x="379" y="151">315446  8.3%</text>
<text x="174" y="171" text-anchor="end">__divsf3_pse</text>
<rect x="180" y="161" width="143" height="13" fill="#4677c8"/>
<text x="328" y="171">233106  6.2%</text>
<text x="174" y="191" text-anchor="end">__fp_split3</text>
<rect x="180" y="181" width="120" height="13" fill="#4677c8"/>
<text x="305" y="191">195583  5.2%</text>
<text x="174" y="211" text-anchor="end">main</text>
<rect x="180" y="201" width="111" height="13" fill="#4677c8"/>
<text x="296" y="211">180771  4.8%</text>
<text x="174" y="231" text-anchor="end">__addsf3</text>
<rect x="180" y="221" width="70" height="13" fill="#4677c8"/>
<text x="255" y="231">113787  3.0%</text>
<text x="174" y="251" text-anchor="end">__EEPROM_REGION_LENGTH__</text>
<rect x="180" y="241" width="67" height="13" fill="#4677c8"/>
<text x="252" y="251">108878  2.9%</text>
<text x="174" y="271" text-anchor="end">__mulsf3</text>
<rect x="180" y="261" width="59" height="13" fill="#4677c8"/>
<text x="244" y="271">95545  2.5%</text>
<text x="174" y="291" text-anchor="end">__floatsisf</text>
<rect x="180" y="281" width="40" height="13" fill="#4677c8"/>
<text x="225" y="291">65111  1.7%</text>
<text x="174" y="311" text-anchor="end">__mulsf3x</text>
<rect x="180" y="301" width="36" height="13" fill="#4677c8"/>
<text x="221" y="311">59255  1.6%</text>
<text x="174" y="331" text-anchor="end">__udivmodhi4_loop</text>
<rect x="180" y="321" width="33" height="13" fill="#4677c8"/>
<text x="218" y="331">53888  1.4%</text>
<text x="174" y="351" text-anchor="end">__udivmodhi4_ep</text>
<rect x="180" y="341" width="31" height="13" fill="#4677c8"/>
<text x="216" y="351">50784  1.3%</text>
<text x="174" y="371" text-anchor="end">__fp_szero</text>
<rect x="180" y="361" width="18" height="13" fill="#4677c8"/>
<text x="203" y="371">29583  0.8%</text>
<text x="174" y="391" text-anchor="end">ekf_predict</text>
<rect x="180" y="381" width="17" height="13" fill="#4677c8"/>
<text x="202" y="391">27753  0.7%</text>
<text x="174" y="411" text-anchor="end">.do_clear_bss_start</text>
<rect x="180" y="401" width="11" height="13" fill="#4677c8"/>
<text x="196" y="411">18439  0.5%</text>
<text x="174" y="431" text-anchor="end">.do_clear_bss_loop</text>
<rect x="180" y="421" width="6" height="13" fill="#4677c8"/>
<text x="191" y="431">9216  0.2%</text>
<text x="174" y="451" text-anchor="end">_div</text>
<rect x="180" y="441" width="5" height="13" fill="#4677c8"/>
<text x="190" y="451">7728  0.2%</text>
</svg>
