<svg xmlns="http://www.w3.org/2000/svg" width="736" height="472" font-family="monospace" font-size="12">
<rect width="736" height="472" fill="white"/>
<text x="10" y="22" font-size="15" font-weight="bold">11-ekf op-mix (cycles) — cat1-11-ekf-i1-501853ba-1781453885</text>
<text x="10" y="42" font-size="11" fill="#555">total 1022010 across 53 entries; top 20 = 86.2%</text>
<text x="90" y="71" text-anchor="end">adc</text>
<rect x="96" y="61" width="470" height="13" fill="#4677c8"/>
<text x="571" y="71">142234  13.9%</text>
<text x="90" y="91" text-anchor="end">brbc</text>
<rect x="96" y="81" width="364" height="13" fill="#4677c8"/>
<text x="465" y="91">110242  10.8%</text>
<text x="90" y="111" text-anchor="end">brbs</text>
<rect x="96" y="101" width="304" height="13" fill="#4677c8"/>
<text x="405" y="111">92010  9.0%</text>
<text x="90" y="131" text-anchor="end">cpc</text>
<rect x="96" y="121" width="227" height="13" fill="#4677c8"/>
<text x="328" y="131">68584  6.7%</text>
<text x="90" y="151" text-anchor="end">ret</text>
<rect x="96" y="141" width="203" height="13" fill="#4677c8"/>
<text x="304" y="151">61564  6.0%</text>
<text x="90" y="171" text-anchor="end">add</text>
<rect x="96" y="161" width="189" height="13" fill="#4677c8"/>
<text x="290" y="171">57168  5.6%</text>
<text x="90" y="191" text-anchor="end">call</text>
<rect x="96" y="181" width="182" height="13" fill="#4677c8"/>
<text x="283" y="191">54944  5.4%</text>
<text x="90" y="211" text-anchor="end">eor</text>
<rect x="96" y="201" width="122" height="13" fill="#4677c8"/>
<text x="223" y="211">37066  3.6%</text>
<text x="90" y="231" text-anchor="end">ror_inst</text>
<rect x="96" y="221" width="115" height="13" fill="#4677c8"/>
<text x="216" y="231">34764  3.4%</text>
<text x="90" y="251" text-anchor="end">cp</text>
<rect x="96" y="241" width="93" height="13" fill="#4677c8"/>
<text x="194" y="251">28218  2.8%</text>
<text x="90" y="271" text-anchor="end">mul</text>
<rect x="96" y="261" width="89" height="13" fill="#4677c8"/>
<text x="190" y="271">26854  2.6%</text>
<text x="90" y="291" text-anchor="end">sbc</text>
<rect x="96" y="281" width="88" height="13" fill="#4677c8"/>
<text x="189" y="291">26613  2.6%</text>
<text x="90" y="311" text-anchor="end">movw</text>
<rect x="96" y="301" width="86" height="13" fill="#4677c8"/>
<text x="187" y="311">26143  2.6%</text>
<text x="90" y="331" text-anchor="end">sbci</text>
<rect x="96" y="321" width="74" height="13" fill="#4677c8"/>
<text x="175" y="331">22450  2.2%</text>
<text x="90" y="351" text-anchor="end">ldd_y</text>
<rect x="96" y="341" width="56" height="13" fill="#4677c8"/>
<text x="157" y="351">16856  1.6%</text>
<text x="90" y="371" text-anchor="end">cpi</text>
<rect x="96" y="361" width="56" height="13" fill="#4677c8"/>
<text x="157" y="371">16797  1.6%</text>
<text x="90" y="391" text-anchor="end">mov</text>
<rect x="96" y="381" width="53" height="13" fill="#4677c8"/>
<text x="154" y="391">15951  1.6%</text>
<text x="90" y="411" text-anchor="end">dec</text>
<rect x="96" y="401" width="51" height="13" fill="#4677c8"/>
<text x="152" y="411">15393  1.5%</text>
<text x="90" y="431" text-anchor="end">andi</text>
<rect x="96" y="421" width="48" height="13" fill="#4677c8"/>
<text x="149" y="431">14568  1.4%</text>
<text x="90" y="451" text-anchor="end">ldi</text>
<rect x="96" y="441" width="42" height="13" fill="#4677c8"/>
<text x="143" y="451">12774  1.2%</text>
</svg>
