<svg xmlns="http://www.w3.org/2000/svg" width="785" height="472" font-family="monospace" font-size="12">
<rect width="785" height="472" fill="white"/>
<text x="10" y="22" font-size="15" font-weight="bold">11-ekf function calls (count) — cat1-11-ekf-i11-30c66b67-1781454705</text>
<text x="10" y="42" font-size="11" fill="#555">total 175498 across 31 entries; top 20 = 99.6%</text>
<text x="139" y="71" text-anchor="end">__fp_round</text>
<rect x="145" y="61" width="470" height="13" fill="#4677c8"/>
<text x="620" y="71">25046  14.3%</text>
<text x="139" y="91" text-anchor="end">__fp_split3</text>
<rect x="145" y="81" width="470" height="13" fill="#4677c8"/>
<text x="620" y="91">25046  14.3%</text>
<text x="139" y="111" text-anchor="end">__fp_splitA</text>
<rect x="145" y="101" width="470" height="13" fill="#4677c8"/>
<text x="620" y="111">25046  14.3%</text>
<text x="139" y="131" text-anchor="end">__addsf3x</text>
<rect x="145" y="121" width="237" height="13" fill="#4677c8"/>
<text x="387" y="131">12643  7.2%</text>
<text x="139" y="151" text-anchor="end">__addsf3</text>
<rect x="145" y="141" width="237" height="13" fill="#4677c8"/>
<text x="387" y="151">12643  7.2%</text>
<text x="139" y="171" text-anchor="end">__mulsf3x</text>
<rect x="145" y="161" width="222" height="13" fill="#4677c8"/>
<text x="372" y="171">11851  6.8%</text>
<text x="139" y="191" text-anchor="end">__mulsf3_pse</text>
<rect x="145" y="181" width="222" height="13" fill="#4677c8"/>
<text x="372" y="191">11851  6.8%</text>
<text x="139" y="211" text-anchor="end">__mulsf3</text>
<rect x="145" y="201" width="222" height="13" fill="#4677c8"/>
<text x="372" y="211">11851  6.8%</text>
<text x="139" y="231" text-anchor="end">__udivmodhi4_ep</text>
<rect x="145" y="221" width="176" height="13" fill="#4677c8"/>
<text x="326" y="231">9384  5.3%</text>
<text x="139" y="251" text-anchor="end">__udivmodhi4_loop</text>
<rect x="145" y="241" width="166" height="13" fill="#4677c8"/>
<text x="316" y="251">8832  5.0%</text>
<text x="139" y="271" text-anchor="end">.do_clear_bss_start</text>
<rect x="145" y="261" width="86" height="13" fill="#4677c8"/>
<text x="236" y="271">4609  2.6%</text>
<text x="139" y="291" text-anchor="end">.do_clear_bss_loop</text>
<rect x="145" y="281" width="86" height="13" fill="#4677c8"/>
<text x="236" y="291">4608  2.6%</text>
<text x="139" y="311" text-anchor="end">__subsf3</text>
<rect x="145" y="301" width="78" height="13" fill="#4677c8"/>
<text x="228" y="311">4158  2.4%</text>
<text x="139" y="331" text-anchor="end">__fp_szero</text>
<rect x="145" y="321" width="62" height="13" fill="#4677c8"/>
<text x="212" y="331">3287  1.9%</text>
<text x="139" y="351" text-anchor="end">__floatsisf</text>
<rect x="145" y="341" width="22" height="13" fill="#4677c8"/>
<text x="172" y="351">1152  0.7%</text>
<text x="139" y="371" text-anchor="end">__divsf3_pse</text>
<rect x="145" y="361" width="10" height="13" fill="#4677c8"/>
<text x="160" y="371">552  0.3%</text>
<text x="139" y="391" text-anchor="end">__udivmodhi4</text>
<rect x="145" y="381" width="10" height="13" fill="#4677c8"/>
<text x="160" y="391">552  0.3%</text>
<text x="139" y="411" text-anchor="end">__divsf3</text>
<rect x="145" y="401" width="10" height="13" fill="#4677c8"/>
<text x="160" y="411">552  0.3%</text>
<text x="139" y="431" text-anchor="end">__divsf3x</text>
<rect x="145" y="421" width="10" height="13" fill="#4677c8"/>
<text x="160" y="431">552  0.3%</text>
<text x="139" y="451" text-anchor="end">_div</text>
<rect x="145" y="441" width="10" height="13" fill="#4677c8"/>
<text x="160" y="451">552  0.3%</text>
</svg>
