<svg xmlns="http://www.w3.org/2000/svg" width="786" height="458" font-family="monospace" font-size="12">
<rect width="786" height="458" fill="white"/>
<text x="10" y="24" font-size="15" font-weight="bold">11-ekf op-mix (top 20) — cat1-11-ekf-501853ba-1781451428</text>
<text x="90" y="57" text-anchor="end">adc</text>
<rect x="96" y="47" width="560" height="13" fill="#4677c8"/>
<text x="661" y="57">142234</text>
<text x="90" y="77" text-anchor="end">cpc</text>
<rect x="96" y="67" width="270" height="13" fill="#4677c8"/>
<text x="371" y="77">68584</text>
<text x="90" y="97" text-anchor="end">brbs</text>
<rect x="96" y="87" width="260" height="13" fill="#4677c8"/>
<text x="361" y="97">65976</text>
<text x="90" y="117" text-anchor="end">brbc</text>
<rect x="96" y="107" width="233" height="13" fill="#4677c8"/>
<text x="334" y="117">59117</text>
<text x="90" y="137" text-anchor="end">add</text>
<rect x="96" y="127" width="225" height="13" fill="#4677c8"/>
<text x="326" y="137">57168</text>
<text x="90" y="157" text-anchor="end">eor</text>
<rect x="96" y="147" width="146" height="13" fill="#4677c8"/>
<text x="247" y="157">37066</text>
<text x="90" y="177" text-anchor="end">ror_inst</text>
<rect x="96" y="167" width="137" height="13" fill="#4677c8"/>
<text x="238" y="177">34764</text>
<text x="90" y="197" text-anchor="end">cp</text>
<rect x="96" y="187" width="111" height="13" fill="#4677c8"/>
<text x="212" y="197">28218</text>
<text x="90" y="217" text-anchor="end">sbc</text>
<rect x="96" y="207" width="105" height="13" fill="#4677c8"/>
<text x="206" y="217">26613</text>
<text x="90" y="237" text-anchor="end">movw</text>
<rect x="96" y="227" width="103" height="13" fill="#4677c8"/>
<text x="204" y="237">26143</text>
<text x="90" y="257" text-anchor="end">sbci</text>
<rect x="96" y="247" width="88" height="13" fill="#4677c8"/>
<text x="189" y="257">22450</text>
<text x="90" y="277" text-anchor="end">cpi</text>
<rect x="96" y="267" width="66" height="13" fill="#4677c8"/>
<text x="167" y="277">16797</text>
<text x="90" y="297" text-anchor="end">mov</text>
<rect x="96" y="287" width="63" height="13" fill="#4677c8"/>
<text x="164" y="297">15951</text>
<text x="90" y="317" text-anchor="end">dec</text>
<rect x="96" y="307" width="61" height="13" fill="#4677c8"/>
<text x="162" y="317">15393</text>
<text x="90" y="337" text-anchor="end">ret</text>
<rect x="96" y="327" width="61" height="13" fill="#4677c8"/>
<text x="162" y="337">15391</text>
<text x="90" y="357" text-anchor="end">andi</text>
<rect x="96" y="347" width="57" height="13" fill="#4677c8"/>
<text x="158" y="357">14568</text>
<text x="90" y="377" text-anchor="end">call</text>
<rect x="96" y="367" width="54" height="13" fill="#4677c8"/>
<text x="155" y="377">13736</text>
<text x="90" y="397" text-anchor="end">mul</text>
<rect x="96" y="387" width="53" height="13" fill="#4677c8"/>
<text x="154" y="397">13427</text>
<text x="90" y="417" text-anchor="end">ldi</text>
<rect x="96" y="407" width="50" height="13" fill="#4677c8"/>
<text x="151" y="417">12774</text>
<text x="90" y="437" text-anchor="end">com</text>
<rect x="96" y="427" width="49" height="13" fill="#4677c8"/>
<text x="150" y="437">12376</text>
</svg>
