<svg xmlns="http://www.w3.org/2000/svg" width="820" height="472" font-family="monospace" font-size="12">
<rect width="820" height="472" fill="white"/>
<text x="10" y="22" font-size="15" font-weight="bold">11-ekf function-mix — cat1-11-ekf-i1-501853ba-1781453273</text>
<text x="10" y="42" font-size="11" fill="#555">total 800482 across 32 entries; top 20 = 99.3%</text>
<text x="174" y="71" text-anchor="end">__divsf3_pse</text>
<rect x="180" y="61" width="470" height="13" fill="#4677c8"/>
<text x="655" y="71">203672  25.4%</text>
<text x="174" y="91" text-anchor="end">main</text>
<rect x="180" y="81" width="288" height="13" fill="#4677c8"/>
<text x="473" y="91">124614  15.6%</text>
<text x="174" y="111" text-anchor="end">__mulsf3_pse</text>
<rect x="180" y="101" width="212" height="13" fill="#4677c8"/>
<text x="397" y="111">91667  11.5%</text>
<text x="174" y="131" text-anchor="end">__addsf3x</text>
<rect x="180" y="121" width="182" height="13" fill="#4677c8"/>
<text x="367" y="131">78799  9.8%</text>
<text x="174" y="151" text-anchor="end">__floatsisf</text>
<rect x="180" y="141" width="121" height="13" fill="#4677c8"/>
<text x="306" y="151">52260  6.5%</text>
<text x="174" y="171" text-anchor="end">__udivmodhi4_loop</text>
<rect x="180" y="161" width="106" height="13" fill="#4677c8"/>
<text x="291" y="171">45952  5.7%</text>
<text x="174" y="191" text-anchor="end">__udivmodhi4_ep</text>
<rect x="180" y="181" width="93" height="13" fill="#4677c8"/>
<text x="278" y="191">40296  5.0%</text>
<text x="174" y="211" text-anchor="end">__fp_round</text>
<rect x="180" y="201" width="77" height="13" fill="#4677c8"/>
<text x="262" y="211">33500  4.2%</text>
<text x="174" y="231" text-anchor="end">__fp_splitA</text>
<rect x="180" y="221" width="77" height="13" fill="#4677c8"/>
<text x="262" y="231">33401  4.2%</text>
<text x="174" y="251" text-anchor="end">__fp_split3</text>
<rect x="180" y="241" width="61" height="13" fill="#4677c8"/>
<text x="246" y="251">26544  3.3%</text>
<text x="174" y="271" text-anchor="end">__stack</text>
<rect x="180" y="261" width="43" height="13" fill="#4677c8"/>
<text x="228" y="271">18680  2.3%</text>
<text x="174" y="291" text-anchor="end">.do_clear_bss_start</text>
<rect x="180" y="281" width="32" height="13" fill="#4677c8"/>
<text x="217" y="291">13828  1.7%</text>
<text x="174" y="311" text-anchor="end">__addsf3</text>
<rect x="180" y="301" width="15" height="13" fill="#4677c8"/>
<text x="200" y="311">6692  0.8%</text>
<text x="174" y="331" text-anchor="end">__EEPROM_REGION_LENGTH__</text>
<rect x="180" y="321" width="13" height="13" fill="#4677c8"/>
<text x="198" y="331">5717  0.7%</text>
<text x="174" y="351" text-anchor="end">.do_clear_bss_loop</text>
<rect x="180" y="341" width="11" height="13" fill="#4677c8"/>
<text x="196" y="351">4608  0.6%</text>
<text x="174" y="371" text-anchor="end">_div</text>
<rect x="180" y="361" width="9" height="13" fill="#4677c8"/>
<text x="194" y="371">3864  0.5%</text>
<text x="174" y="391" text-anchor="end">__mulsf3</text>
<rect x="180" y="381" width="9" height="13" fill="#4677c8"/>
<text x="194" y="391">3776  0.5%</text>
<text x="174" y="411" text-anchor="end">__mulsf3x</text>
<rect x="180" y="401" width="7" height="13" fill="#4677c8"/>
<text x="192" y="411">3202  0.4%</text>
<text x="174" y="431" text-anchor="end">__udivmodhi4</text>
<rect x="180" y="421" width="5" height="13" fill="#4677c8"/>
<text x="190" y="431">2208  0.3%</text>
<text x="174" y="451" text-anchor="end">__fp_szero</text>
<rect x="180" y="441" width="4" height="13" fill="#4677c8"/>
<text x="189" y="451">1860  0.2%</text>
</svg>
