<svg xmlns="http://www.w3.org/2000/svg" width="876" height="472" font-family="monospace" font-size="12">
<rect width="876" height="472" fill="white"/>
<text x="10" y="22" font-size="15" font-weight="bold">23-fft function calls (count) — cat2-23-fft-i11-32818fae-1781456871</text>
<text x="10" y="42" font-size="11" fill="#555">total 150286 across 26 entries; top 20 = 100.0%</text>
<text x="230" y="71" text-anchor="end">__fp_splitA</text>
<rect x="236" y="61" width="470" height="13" fill="#4677c8"/>
<text x="711" y="71">24022  16.0%</text>
<text x="230" y="91" text-anchor="end">__fp_round</text>
<rect x="236" y="81" width="470" height="13" fill="#4677c8"/>
<text x="711" y="91">24022  16.0%</text>
<text x="230" y="111" text-anchor="end">__fp_split3</text>
<rect x="236" y="101" width="470" height="13" fill="#4677c8"/>
<text x="711" y="111">24022  16.0%</text>
<text x="230" y="131" text-anchor="end">__addsf3x</text>
<rect x="236" y="121" width="276" height="13" fill="#4677c8"/>
<text x="517" y="131">14091  9.4%</text>
<text x="230" y="151" text-anchor="end">__addsf3</text>
<rect x="236" y="141" width="276" height="13" fill="#4677c8"/>
<text x="517" y="151">14091  9.4%</text>
<text x="230" y="171" text-anchor="end">__mulsf3x</text>
<rect x="236" y="161" width="194" height="13" fill="#4677c8"/>
<text x="435" y="171">9931  6.6%</text>
<text x="230" y="191" text-anchor="end">__mulsf3</text>
<rect x="236" y="181" width="194" height="13" fill="#4677c8"/>
<text x="435" y="191">9931  6.6%</text>
<text x="230" y="211" text-anchor="end">__mulsf3_pse</text>
<rect x="236" y="201" width="194" height="13" fill="#4677c8"/>
<text x="435" y="211">9931  6.6%</text>
<text x="230" y="231" text-anchor="end">__subsf3</text>
<rect x="236" y="221" width="124" height="13" fill="#4677c8"/>
<text x="365" y="231">6336  4.2%</text>
<text x="230" y="251" text-anchor="end">__fp_szero</text>
<rect x="236" y="241" width="82" height="13" fill="#4677c8"/>
<text x="323" y="251">4186  2.8%</text>
<text x="230" y="271" text-anchor="end">__udivmodhi4_ep</text>
<rect x="236" y="261" width="43" height="13" fill="#4677c8"/>
<text x="284" y="271">2210  1.5%</text>
<text x="230" y="291" text-anchor="end">__USER_SIGNATURE_REGION_LENGTH__</text>
<rect x="236" y="281" width="41" height="13" fill="#4677c8"/>
<text x="282" y="291">2112  1.4%</text>
<text x="230" y="311" text-anchor="end">__udivmodhi4_loop</text>
<rect x="236" y="301" width="41" height="13" fill="#4677c8"/>
<text x="282" y="311">2080  1.4%</text>
<text x="230" y="331" text-anchor="end">__fp_zero</text>
<rect x="236" y="321" width="26" height="13" fill="#4677c8"/>
<text x="267" y="331">1324  0.9%</text>
<text x="230" y="351" text-anchor="end">.do_clear_bss_start</text>
<rect x="236" y="341" width="15" height="13" fill="#4677c8"/>
<text x="256" y="351">769  0.5%</text>
<text x="230" y="371" text-anchor="end">.do_clear_bss_loop</text>
<rect x="236" y="361" width="15" height="13" fill="#4677c8"/>
<text x="256" y="371">768  0.5%</text>
<text x="230" y="391" text-anchor="end">__divmodhi4_exit</text>
<rect x="236" y="381" width="3" height="13" fill="#4677c8"/>
<text x="244" y="391">130  0.1%</text>
<text x="230" y="411" text-anchor="end">__udivmodhi4</text>
<rect x="236" y="401" width="3" height="13" fill="#4677c8"/>
<text x="244" y="411">130  0.1%</text>
<text x="230" y="431" text-anchor="end">_div</text>
<rect x="236" y="421" width="3" height="13" fill="#4677c8"/>
<text x="244" y="431">130  0.1%</text>
<text x="230" y="451" text-anchor="end">__floatsisf</text>
<rect x="236" y="441" width="1" height="13" fill="#4677c8"/>
<text x="242" y="451">64  0.0%</text>
</svg>
