<svg xmlns="http://www.w3.org/2000/svg" width="896" height="472" font-family="monospace" font-size="12">
<rect width="896" height="472" fill="white"/>
<text x="10" y="22" font-size="15" font-weight="bold">23-fft runtime cost (calls x cyc/call) — cat2-23-fft-i1-5284eee4-1781456867</text>
<text x="10" y="42" font-size="11" fill="#555">cost = calls × cyc/call (= total cycles); total 346173; top 20 = 99.8%</text>
<text x="230" y="71" text-anchor="end">__addsf3x</text>
<rect x="236" y="61" width="420" height="13" fill="#b5651d"/>
<text x="661" y="71">72314  (1281x56)  20.9%</text>
<text x="230" y="91" text-anchor="end">run_workload</text>
<rect x="236" y="81" width="417" height="13" fill="#b5651d"/>
<text x="658" y="91">71879  (1x71879)  20.8%</text>
<text x="230" y="111" text-anchor="end">__mulsf3_pse</text>
<rect x="236" y="101" width="348" height="13" fill="#b5651d"/>
<text x="589" y="111">59870  (961x62)  17.3%</text>
<text x="230" y="131" text-anchor="end">__fp_splitA</text>
<rect x="236" y="121" width="175" height="13" fill="#b5651d"/>
<text x="416" y="131">30091  (2242x13)  8.7%</text>
<text x="230" y="151" text-anchor="end">__fp_round</text>
<rect x="236" y="141" width="174" height="13" fill="#b5651d"/>
<text x="415" y="151">30044  (2242x13)  8.7%</text>
<text x="230" y="171" text-anchor="end">__fp_split3</text>
<rect x="236" y="161" width="101" height="13" fill="#b5651d"/>
<text x="342" y="171">17457  (2242x8)  5.0%</text>
<text x="230" y="191" text-anchor="end">__addsf3</text>
<rect x="236" y="181" width="67" height="13" fill="#b5651d"/>
<text x="308" y="191">11529  (1281x9)  3.3%</text>
<text x="230" y="211" text-anchor="end">__USER_SIGNATURE_REGION_LENGTH__</text>
<rect x="236" y="201" width="57" height="13" fill="#b5651d"/>
<text x="298" y="211">9728  (192x51)  2.8%</text>
<text x="230" y="231" text-anchor="end">__mulsf3</text>
<rect x="236" y="221" width="45" height="13" fill="#b5651d"/>
<text x="286" y="231">7795  (961x8)  2.3%</text>
<text x="230" y="251" text-anchor="end">__udivmodhi4_loop</text>
<rect x="236" y="241" width="39" height="13" fill="#b5651d"/>
<text x="280" y="251">6790  (1120x6)  2.0%</text>
<text x="230" y="271" text-anchor="end">__udivmodhi4_ep</text>
<rect x="236" y="261" width="37" height="13" fill="#b5651d"/>
<text x="278" y="271">6440  (1190x5)  1.9%</text>
<text x="230" y="291" text-anchor="end">__mulsf3x</text>
<rect x="236" y="281" width="28" height="13" fill="#b5651d"/>
<text x="269" y="291">4805  (961x5)  1.4%</text>
<text x="230" y="311" text-anchor="end">__floatsisf</text>
<rect x="236" y="301" width="22" height="13" fill="#b5651d"/>
<text x="263" y="311">3819  (64x60)  1.1%</text>
<text x="230" y="331" text-anchor="end">__fp_szero</text>
<rect x="236" y="321" width="21" height="13" fill="#b5651d"/>
<text x="262" y="331">3600  (400x9)  1.0%</text>
<text x="230" y="351" text-anchor="end">.do_clear_bss_start</text>
<rect x="236" y="341" width="18" height="13" fill="#b5651d"/>
<text x="259" y="351">3079  (769x4)  0.9%</text>
<text x="230" y="371" text-anchor="end">__do_copy_data</text>
<rect x="236" y="361" width="12" height="13" fill="#b5651d"/>
<text x="253" y="371">2000  (1x2000)  0.6%</text>
<text x="230" y="391" text-anchor="end">.do_clear_bss_loop</text>
<rect x="236" y="381" width="9" height="13" fill="#b5651d"/>
<text x="250" y="391">1536  (768x2)  0.4%</text>
<text x="230" y="411" text-anchor="end">main</text>
<rect x="236" y="401" width="6" height="13" fill="#b5651d"/>
<text x="247" y="411">1064  (1x1064)  0.3%</text>
<text x="230" y="431" text-anchor="end">_div</text>
<rect x="236" y="421" width="6" height="13" fill="#b5651d"/>
<text x="247" y="431">980  (70x14)  0.3%</text>
<text x="230" y="451" text-anchor="end">__subsf3</text>
<rect x="236" y="441" width="3" height="13" fill="#b5651d"/>
<text x="244" y="451">576  (576x1)  0.2%</text>
</svg>
