<svg xmlns="http://www.w3.org/2000/svg" width="736" height="472" font-family="monospace" font-size="12">
<rect width="736" height="472" fill="white"/>
<text x="10" y="22" font-size="15" font-weight="bold">23-fft op-mix (insts) — cat2-23-fft-i11-32818fae-1781456871</text>
<text x="10" y="42" font-size="11" fill="#555">total 2344542 across 52 entries; top 20 = 86.9%</text>
<text x="90" y="71" text-anchor="end">adc</text>
<rect x="96" y="61" width="470" height="13" fill="#4677c8"/>
<text x="571" y="71">260452  11.1%</text>
<text x="90" y="91" text-anchor="end">add</text>
<rect x="96" y="81" width="403" height="13" fill="#4677c8"/>
<text x="504" y="91">223521  9.5%</text>
<text x="90" y="111" text-anchor="end">brbs</text>
<rect x="96" y="101" width="385" height="13" fill="#4677c8"/>
<text x="486" y="111">213497  9.1%</text>
<text x="90" y="131" text-anchor="end">ror_inst</text>
<rect x="96" y="121" width="253" height="13" fill="#4677c8"/>
<text x="354" y="131">140081  6.0%</text>
<text x="90" y="151" text-anchor="end">brbc</text>
<rect x="96" y="141" width="237" height="13" fill="#4677c8"/>
<text x="338" y="151">131355  5.6%</text>
<text x="90" y="171" text-anchor="end">movw</text>
<rect x="96" y="161" width="227" height="13" fill="#4677c8"/>
<text x="328" y="171">125665  5.4%</text>
<text x="90" y="191" text-anchor="end">eor</text>
<rect x="96" y="181" width="197" height="13" fill="#4677c8"/>
<text x="298" y="191">109208  4.7%</text>
<text x="90" y="211" text-anchor="end">ldd_y</text>
<rect x="96" y="201" width="192" height="13" fill="#4677c8"/>
<text x="293" y="211">106442  4.5%</text>
<text x="90" y="231" text-anchor="end">cpc</text>
<rect x="96" y="221" width="167" height="13" fill="#4677c8"/>
<text x="268" y="231">92489  3.9%</text>
<text x="90" y="251" text-anchor="end">mov</text>
<rect x="96" y="241" width="150" height="13" fill="#4677c8"/>
<text x="251" y="251">83160  3.5%</text>
<text x="90" y="271" text-anchor="end">mul</text>
<rect x="96" y="261" width="133" height="13" fill="#4677c8"/>
<text x="234" y="271">73552  3.1%</text>
<text x="90" y="291" text-anchor="end">call</text>
<rect x="96" y="281" width="131" height="13" fill="#4677c8"/>
<text x="232" y="291">72392  3.1%</text>
<text x="90" y="311" text-anchor="end">ret</text>
<rect x="96" y="301" width="131" height="13" fill="#4677c8"/>
<text x="232" y="311">72391  3.1%</text>
<text x="90" y="331" text-anchor="end">cpi</text>
<rect x="96" y="321" width="114" height="13" fill="#4677c8"/>
<text x="215" y="331">63317  2.7%</text>
<text x="90" y="351" text-anchor="end">std_y</text>
<rect x="96" y="341" width="102" height="13" fill="#4677c8"/>
<text x="203" y="351">56250  2.4%</text>
<text x="90" y="371" text-anchor="end">subi</text>
<rect x="96" y="361" width="87" height="13" fill="#4677c8"/>
<text x="188" y="371">48473  2.1%</text>
<text x="90" y="391" text-anchor="end">ld_x_postinc</text>
<rect x="96" y="381" width="83" height="13" fill="#4677c8"/>
<text x="184" y="391">45793  2.0%</text>
<text x="90" y="411" text-anchor="end">sbci</text>
<rect x="96" y="401" width="79" height="13" fill="#4677c8"/>
<text x="180" y="411">43568  1.9%</text>
<text x="90" y="431" text-anchor="end">inc</text>
<rect x="96" y="421" width="74" height="13" fill="#4677c8"/>
<text x="175" y="431">40891  1.7%</text>
<text x="90" y="451" text-anchor="end">cp</text>
<rect x="96" y="441" width="64" height="13" fill="#4677c8"/>
<text x="165" y="451">35532  1.5%</text>
</svg>
