<svg xmlns="http://www.w3.org/2000/svg" width="876" height="472" font-family="monospace" font-size="12">
<rect width="876" height="472" fill="white"/>
<text x="10" y="22" font-size="15" font-weight="bold">23-fft function-mix (insts) — cat2-23-fft-i11-32818fae-1781456871</text>
<text x="10" y="42" font-size="11" fill="#555">total 2344542 across 26 entries; top 20 = 99.9%</text>
<text x="230" y="71" text-anchor="end">__addsf3x</text>
<rect x="236" y="61" width="470" height="13" fill="#4677c8"/>
<text x="711" y="71">584133  24.9%</text>
<text x="230" y="91" text-anchor="end">__mulsf3_pse</text>
<rect x="236" y="81" width="393" height="13" fill="#4677c8"/>
<text x="634" y="91">489047  20.9%</text>
<text x="230" y="111" text-anchor="end">run_workload</text>
<rect x="236" y="101" width="352" height="13" fill="#4677c8"/>
<text x="593" y="111">437335  18.7%</text>
<text x="230" y="131" text-anchor="end">__fp_splitA</text>
<rect x="236" y="121" width="188" height="13" fill="#4677c8"/>
<text x="429" y="131">233566  10.0%</text>
<text x="230" y="151" text-anchor="end">__fp_round</text>
<rect x="236" y="141" width="162" height="13" fill="#4677c8"/>
<text x="403" y="151">201354  8.6%</text>
<text x="230" y="171" text-anchor="end">__fp_split3</text>
<rect x="236" y="161" width="137" height="13" fill="#4677c8"/>
<text x="378" y="171">170342  7.3%</text>
<text x="230" y="191" text-anchor="end">__USER_SIGNATURE_REGION_LENGTH__</text>
<rect x="236" y="181" width="51" height="13" fill="#4677c8"/>
<text x="292" y="191">63921  2.7%</text>
<text x="230" y="211" text-anchor="end">__addsf3</text>
<rect x="236" y="201" width="45" height="13" fill="#4677c8"/>
<text x="286" y="211">56364  2.4%</text>
<text x="230" y="231" text-anchor="end">__mulsf3</text>
<rect x="236" y="221" width="21" height="13" fill="#4677c8"/>
<text x="262" y="231">25586  1.1%</text>
<text x="230" y="251" text-anchor="end">__fp_szero</text>
<rect x="236" y="241" width="20" height="13" fill="#4677c8"/>
<text x="261" y="251">25116  1.1%</text>
<text x="230" y="271" text-anchor="end">__mulsf3x</text>
<rect x="236" y="261" width="16" height="13" fill="#4677c8"/>
<text x="257" y="271">19862  0.8%</text>
<text x="230" y="291" text-anchor="end">__udivmodhi4_loop</text>
<rect x="236" y="281" width="9" height="13" fill="#4677c8"/>
<text x="250" y="291">10660  0.5%</text>
<text x="230" y="311" text-anchor="end">__udivmodhi4_ep</text>
<rect x="236" y="301" width="8" height="13" fill="#4677c8"/>
<text x="249" y="311">9490  0.4%</text>
<text x="230" y="331" text-anchor="end">__subsf3</text>
<rect x="236" y="321" width="5" height="13" fill="#4677c8"/>
<text x="246" y="331">6336  0.3%</text>
<text x="230" y="351" text-anchor="end">__floatsisf</text>
<rect x="236" y="341" width="3" height="13" fill="#4677c8"/>
<text x="244" y="351">3120  0.1%</text>
<text x="230" y="371" text-anchor="end">.do_clear_bss_start</text>
<rect x="236" y="361" width="2" height="13" fill="#4677c8"/>
<text x="243" y="371">2308  0.1%</text>
<text x="230" y="391" text-anchor="end">__do_copy_data</text>
<rect x="236" y="381" width="1" height="13" fill="#4677c8"/>
<text x="242" y="391">1431  0.1%</text>
<text x="230" y="411" text-anchor="end">__fp_zero</text>
<rect x="236" y="401" width="1" height="13" fill="#4677c8"/>
<text x="242" y="411">1324  0.1%</text>
<text x="230" y="431" text-anchor="end">_div</text>
<rect x="236" y="421" width="1" height="13" fill="#4677c8"/>
<text x="242" y="431">910  0.0%</text>
<text x="230" y="451" text-anchor="end">main</text>
<rect x="236" y="441" width="1" height="13" fill="#4677c8"/>
<text x="242" y="451">908  0.0%</text>
</svg>
