<svg xmlns="http://www.w3.org/2000/svg" width="876" height="472" font-family="monospace" font-size="12">
<rect width="876" height="472" fill="white"/>
<text x="10" y="22" font-size="15" font-weight="bold">23-fft function-mix (insts) — cat2-23-fft-i1-5284eee4-1781456867</text>
<text x="10" y="42" font-size="11" fill="#555">total 243947 across 26 entries; top 20 = 99.8%</text>
<text x="230" y="71" text-anchor="end">__addsf3x</text>
<rect x="236" y="61" width="470" height="13" fill="#4677c8"/>
<text x="711" y="71">58034  23.8%</text>
<text x="230" y="91" text-anchor="end">__mulsf3_pse</text>
<rect x="236" y="81" width="393" height="13" fill="#4677c8"/>
<text x="634" y="91">48479  19.9%</text>
<text x="230" y="111" text-anchor="end">run_workload</text>
<rect x="236" y="101" width="335" height="13" fill="#4677c8"/>
<text x="576" y="111">41385  17.0%</text>
<text x="230" y="131" text-anchor="end">__fp_splitA</text>
<rect x="236" y="121" width="177" height="13" fill="#4677c8"/>
<text x="418" y="131">21864  9.0%</text>
<text x="230" y="151" text-anchor="end">__fp_round</text>
<rect x="236" y="141" width="153" height="13" fill="#4677c8"/>
<text x="394" y="151">18834  7.7%</text>
<text x="230" y="171" text-anchor="end">__fp_split3</text>
<rect x="236" y="161" width="128" height="13" fill="#4677c8"/>
<text x="369" y="171">15843  6.5%</text>
<text x="230" y="191" text-anchor="end">__USER_SIGNATURE_REGION_LENGTH__</text>
<rect x="236" y="181" width="54" height="13" fill="#4677c8"/>
<text x="295" y="191">6661  2.7%</text>
<text x="230" y="211" text-anchor="end">__udivmodhi4_loop</text>
<rect x="236" y="201" width="46" height="13" fill="#4677c8"/>
<text x="287" y="211">5740  2.4%</text>
<text x="230" y="231" text-anchor="end">__addsf3</text>
<rect x="236" y="221" width="41" height="13" fill="#4677c8"/>
<text x="282" y="231">5124  2.1%</text>
<text x="230" y="251" text-anchor="end">__udivmodhi4_ep</text>
<rect x="236" y="241" width="41" height="13" fill="#4677c8"/>
<text x="282" y="251">5110  2.1%</text>
<text x="230" y="271" text-anchor="end">__floatsisf</text>
<rect x="236" y="261" width="25" height="13" fill="#4677c8"/>
<text x="266" y="271">3120  1.3%</text>
<text x="230" y="291" text-anchor="end">__mulsf3</text>
<rect x="236" y="281" width="20" height="13" fill="#4677c8"/>
<text x="261" y="291">2456  1.0%</text>
<text x="230" y="311" text-anchor="end">__fp_szero</text>
<rect x="236" y="301" width="19" height="13" fill="#4677c8"/>
<text x="260" y="311">2400  1.0%</text>
<text x="230" y="331" text-anchor="end">.do_clear_bss_start</text>
<rect x="236" y="321" width="19" height="13" fill="#4677c8"/>
<text x="260" y="331">2308  0.9%</text>
<text x="230" y="351" text-anchor="end">__mulsf3x</text>
<rect x="236" y="341" width="16" height="13" fill="#4677c8"/>
<text x="257" y="351">1922  0.8%</text>
<text x="230" y="371" text-anchor="end">__do_copy_data</text>
<rect x="236" y="361" width="12" height="13" fill="#4677c8"/>
<text x="253" y="371">1431  0.6%</text>
<text x="230" y="391" text-anchor="end">main</text>
<rect x="236" y="381" width="7" height="13" fill="#4677c8"/>
<text x="248" y="391">908  0.4%</text>
<text x="230" y="411" text-anchor="end">.do_clear_bss_loop</text>
<rect x="236" y="401" width="6" height="13" fill="#4677c8"/>
<text x="247" y="411">768  0.3%</text>
<text x="230" y="431" text-anchor="end">__subsf3</text>
<rect x="236" y="421" width="5" height="13" fill="#4677c8"/>
<text x="246" y="431">576  0.2%</text>
<text x="230" y="451" text-anchor="end">_div</text>
<rect x="236" y="441" width="4" height="13" fill="#4677c8"/>
<text x="245" y="451">490  0.2%</text>
</svg>
