<svg xmlns="http://www.w3.org/2000/svg" width="736" height="472" font-family="monospace" font-size="12">
<rect width="736" height="472" fill="white"/>
<text x="10" y="22" font-size="15" font-weight="bold">23-fft op-mix (cycles) — cat2-23-fft-i1-5284eee4-1781456867</text>
<text x="10" y="42" font-size="11" fill="#555">total 346173 across 52 entries; top 20 = 86.9%</text>
<text x="90" y="71" text-anchor="end">adc</text>
<rect x="96" y="61" width="470" height="13" fill="#4677c8"/>
<text x="571" y="71">31584  9.1%</text>
<text x="90" y="91" text-anchor="end">brbs</text>
<rect x="96" y="81" width="421" height="13" fill="#4677c8"/>
<text x="522" y="91">28263  8.2%</text>
<text x="90" y="111" text-anchor="end">call</text>
<rect x="96" y="101" width="413" height="13" fill="#4677c8"/>
<text x="514" y="111">27728  8.0%</text>
<text x="90" y="131" text-anchor="end">ret</text>
<rect x="96" y="121" width="413" height="13" fill="#4677c8"/>
<text x="514" y="131">27724  8.0%</text>
<text x="90" y="151" text-anchor="end">brbc</text>
<rect x="96" y="141" width="405" height="13" fill="#4677c8"/>
<text x="506" y="151">27232  7.9%</text>
<text x="90" y="171" text-anchor="end">add</text>
<rect x="96" y="161" width="328" height="13" fill="#4677c8"/>
<text x="429" y="171">22056  6.4%</text>
<text x="90" y="191" text-anchor="end">ldd_y</text>
<rect x="96" y="181" width="288" height="13" fill="#4677c8"/>
<text x="389" y="191">19364  5.6%</text>
<text x="90" y="211" text-anchor="end">mul</text>
<rect x="96" y="201" width="214" height="13" fill="#4677c8"/>
<text x="315" y="211">14414  4.2%</text>
<text x="90" y="231" text-anchor="end">ror_inst</text>
<rect x="96" y="221" width="197" height="13" fill="#4677c8"/>
<text x="298" y="231">13252  3.8%</text>
<text x="90" y="251" text-anchor="end">movw</text>
<rect x="96" y="241" width="178" height="13" fill="#4677c8"/>
<text x="279" y="251">11952  3.5%</text>
<text x="90" y="271" text-anchor="end">eor</text>
<rect x="96" y="261" width="158" height="13" fill="#4677c8"/>
<text x="259" y="271">10614  3.1%</text>
<text x="90" y="291" text-anchor="end">cpc</text>
<rect x="96" y="281" width="156" height="13" fill="#4677c8"/>
<text x="257" y="291">10496  3.0%</text>
<text x="90" y="311" text-anchor="end">std_y</text>
<rect x="96" y="301" width="153" height="13" fill="#4677c8"/>
<text x="254" y="311">10260  3.0%</text>
<text x="90" y="331" text-anchor="end">ld_x_postinc</text>
<rect x="96" y="321" width="124" height="13" fill="#4677c8"/>
<text x="225" y="331">8326  2.4%</text>
<text x="90" y="351" text-anchor="end">mov</text>
<rect x="96" y="341" width="123" height="13" fill="#4677c8"/>
<text x="224" y="351">8289  2.4%</text>
<text x="90" y="371" text-anchor="end">jmp</text>
<rect x="96" y="361" width="118" height="13" fill="#4677c8"/>
<text x="219" y="371">7929  2.3%</text>
<text x="90" y="391" text-anchor="end">cpi</text>
<rect x="96" y="381" width="105" height="13" fill="#4677c8"/>
<text x="206" y="391">7085  2.0%</text>
<text x="90" y="411" text-anchor="end">subi</text>
<rect x="96" y="401" width="80" height="13" fill="#4677c8"/>
<text x="181" y="411">5363  1.5%</text>
<text x="90" y="431" text-anchor="end">sbci</text>
<rect x="96" y="421" width="66" height="13" fill="#4677c8"/>
<text x="167" y="431">4455  1.3%</text>
<text x="90" y="451" text-anchor="end">cp</text>
<rect x="96" y="441" width="64" height="13" fill="#4677c8"/>
<text x="165" y="451">4290  1.2%</text>
</svg>
