<svg xmlns="http://www.w3.org/2000/svg" width="876" height="472" font-family="monospace" font-size="12">
<rect width="876" height="472" fill="white"/>
<text x="10" y="22" font-size="15" font-weight="bold">23-fft function-mix (cycles) — cat2-23-fft-i1-5284eee4-1781456867</text>
<text x="10" y="42" font-size="11" fill="#555">total 346173 across 26 entries; top 20 = 99.8%</text>
<text x="230" y="71" text-anchor="end">__addsf3x</text>
<rect x="236" y="61" width="470" height="13" fill="#4677c8"/>
<text x="711" y="71">72314  20.9%</text>
<text x="230" y="91" text-anchor="end">run_workload</text>
<rect x="236" y="81" width="467" height="13" fill="#4677c8"/>
<text x="708" y="91">71879  20.8%</text>
<text x="230" y="111" text-anchor="end">__mulsf3_pse</text>
<rect x="236" y="101" width="389" height="13" fill="#4677c8"/>
<text x="630" y="111">59870  17.3%</text>
<text x="230" y="131" text-anchor="end">__fp_splitA</text>
<rect x="236" y="121" width="196" height="13" fill="#4677c8"/>
<text x="437" y="131">30091  8.7%</text>
<text x="230" y="151" text-anchor="end">__fp_round</text>
<rect x="236" y="141" width="195" height="13" fill="#4677c8"/>
<text x="436" y="151">30044  8.7%</text>
<text x="230" y="171" text-anchor="end">__fp_split3</text>
<rect x="236" y="161" width="113" height="13" fill="#4677c8"/>
<text x="354" y="171">17457  5.0%</text>
<text x="230" y="191" text-anchor="end">__addsf3</text>
<rect x="236" y="181" width="75" height="13" fill="#4677c8"/>
<text x="316" y="191">11529  3.3%</text>
<text x="230" y="211" text-anchor="end">__USER_SIGNATURE_REGION_LENGTH__</text>
<rect x="236" y="201" width="63" height="13" fill="#4677c8"/>
<text x="304" y="211">9728  2.8%</text>
<text x="230" y="231" text-anchor="end">__mulsf3</text>
<rect x="236" y="221" width="51" height="13" fill="#4677c8"/>
<text x="292" y="231">7795  2.3%</text>
<text x="230" y="251" text-anchor="end">__udivmodhi4_loop</text>
<rect x="236" y="241" width="44" height="13" fill="#4677c8"/>
<text x="285" y="251">6790  2.0%</text>
<text x="230" y="271" text-anchor="end">__udivmodhi4_ep</text>
<rect x="236" y="261" width="42" height="13" fill="#4677c8"/>
<text x="283" y="271">6440  1.9%</text>
<text x="230" y="291" text-anchor="end">__mulsf3x</text>
<rect x="236" y="281" width="31" height="13" fill="#4677c8"/>
<text x="272" y="291">4805  1.4%</text>
<text x="230" y="311" text-anchor="end">__floatsisf</text>
<rect x="236" y="301" width="25" height="13" fill="#4677c8"/>
<text x="266" y="311">3819  1.1%</text>
<text x="230" y="331" text-anchor="end">__fp_szero</text>
<rect x="236" y="321" width="23" height="13" fill="#4677c8"/>
<text x="264" y="331">3600  1.0%</text>
<text x="230" y="351" text-anchor="end">.do_clear_bss_start</text>
<rect x="236" y="341" width="20" height="13" fill="#4677c8"/>
<text x="261" y="351">3079  0.9%</text>
<text x="230" y="371" text-anchor="end">__do_copy_data</text>
<rect x="236" y="361" width="13" height="13" fill="#4677c8"/>
<text x="254" y="371">2000  0.6%</text>
<text x="230" y="391" text-anchor="end">.do_clear_bss_loop</text>
<rect x="236" y="381" width="10" height="13" fill="#4677c8"/>
<text x="251" y="391">1536  0.4%</text>
<text x="230" y="411" text-anchor="end">main</text>
<rect x="236" y="401" width="7" height="13" fill="#4677c8"/>
<text x="248" y="411">1064  0.3%</text>
<text x="230" y="431" text-anchor="end">_div</text>
<rect x="236" y="421" width="6" height="13" fill="#4677c8"/>
<text x="247" y="431">980  0.3%</text>
<text x="230" y="451" text-anchor="end">__subsf3</text>
<rect x="236" y="441" width="4" height="13" fill="#4677c8"/>
<text x="245" y="451">576  0.2%</text>
</svg>
