<svg xmlns="http://www.w3.org/2000/svg" width="736" height="472" font-family="monospace" font-size="12">
<rect width="736" height="472" fill="white"/>
<text x="10" y="22" font-size="15" font-weight="bold">12-ahrs op-mix (insts) — cat1-12-ahrs-i11-ceaa8cd4-1781455747</text>
<text x="10" y="42" font-size="11" fill="#555">total 180818 across 53 entries; top 20 = 90.5%</text>
<text x="90" y="71" text-anchor="end">adc</text>
<rect x="96" y="61" width="470" height="13" fill="#4677c8"/>
<text x="571" y="71">25103  13.9%</text>
<text x="90" y="91" text-anchor="end">add</text>
<rect x="96" y="81" width="375" height="13" fill="#4677c8"/>
<text x="476" y="91">20040  11.1%</text>
<text x="90" y="111" text-anchor="end">brbs</text>
<rect x="96" y="101" width="330" height="13" fill="#4677c8"/>
<text x="431" y="111">17623  9.7%</text>
<text x="90" y="131" text-anchor="end">ror_inst</text>
<rect x="96" y="121" width="212" height="13" fill="#4677c8"/>
<text x="313" y="131">11320  6.3%</text>
<text x="90" y="151" text-anchor="end">mul</text>
<rect x="96" y="141" width="206" height="13" fill="#4677c8"/>
<text x="307" y="151">11026  6.1%</text>
<text x="90" y="171" text-anchor="end">eor</text>
<rect x="96" y="161" width="187" height="13" fill="#4677c8"/>
<text x="288" y="171">9993  5.5%</text>
<text x="90" y="191" text-anchor="end">brbc</text>
<rect x="96" y="181" width="166" height="13" fill="#4677c8"/>
<text x="267" y="191">8884  4.9%</text>
<text x="90" y="211" text-anchor="end">mov</text>
<rect x="96" y="201" width="139" height="13" fill="#4677c8"/>
<text x="240" y="211">7414  4.1%</text>
<text x="90" y="231" text-anchor="end">movw</text>
<rect x="96" y="221" width="130" height="13" fill="#4677c8"/>
<text x="231" y="231">6936  3.8%</text>
<text x="90" y="251" text-anchor="end">sbci</text>
<rect x="96" y="241" width="113" height="13" fill="#4677c8"/>
<text x="214" y="251">6024  3.3%</text>
<text x="90" y="271" text-anchor="end">cpi</text>
<rect x="96" y="261" width="109" height="13" fill="#4677c8"/>
<text x="210" y="271">5823  3.2%</text>
<text x="90" y="291" text-anchor="end">call</text>
<rect x="96" y="281" width="98" height="13" fill="#4677c8"/>
<text x="199" y="291">5248  2.9%</text>
<text x="90" y="311" text-anchor="end">ret</text>
<rect x="96" y="301" width="98" height="13" fill="#4677c8"/>
<text x="199" y="311">5247  2.9%</text>
<text x="90" y="331" text-anchor="end">ldd_y</text>
<rect x="96" y="321" width="93" height="13" fill="#4677c8"/>
<text x="194" y="331">4972  2.7%</text>
<text x="90" y="351" text-anchor="end">cpc</text>
<rect x="96" y="341" width="72" height="13" fill="#4677c8"/>
<text x="173" y="351">3821  2.1%</text>
<text x="90" y="371" text-anchor="end">subi</text>
<rect x="96" y="361" width="70" height="13" fill="#4677c8"/>
<text x="171" y="371">3761  2.1%</text>
<text x="90" y="391" text-anchor="end">inc</text>
<rect x="96" y="381" width="61" height="13" fill="#4677c8"/>
<text x="162" y="391">3265  1.8%</text>
<text x="90" y="411" text-anchor="end">lsr</text>
<rect x="96" y="401" width="52" height="13" fill="#4677c8"/>
<text x="153" y="411">2790  1.5%</text>
<text x="90" y="431" text-anchor="end">ldi</text>
<rect x="96" y="421" width="48" height="13" fill="#4677c8"/>
<text x="149" y="431">2576  1.4%</text>
<text x="90" y="451" text-anchor="end">or</text>
<rect x="96" y="441" width="34" height="13" fill="#4677c8"/>
<text x="135" y="451">1797  1.0%</text>
</svg>
