<svg xmlns="http://www.w3.org/2000/svg" width="736" height="472" font-family="monospace" font-size="12">
<rect width="736" height="472" fill="white"/>
<text x="10" y="22" font-size="15" font-weight="bold">12-ahrs op-mix (cycles) — cat1-12-ahrs-i11-ceaa8cd4-1781455747</text>
<text x="10" y="42" font-size="11" fill="#555">total 247412 across 53 entries; top 20 = 91.2%</text>
<text x="90" y="71" text-anchor="end">adc</text>
<rect x="96" y="61" width="470" height="13" fill="#4677c8"/>
<text x="571" y="71">25103  10.1%</text>
<text x="90" y="91" text-anchor="end">mul</text>
<rect x="96" y="81" width="413" height="13" fill="#4677c8"/>
<text x="514" y="91">22052  8.9%</text>
<text x="90" y="111" text-anchor="end">brbs</text>
<rect x="96" y="101" width="395" height="13" fill="#4677c8"/>
<text x="496" y="111">21104  8.5%</text>
<text x="90" y="131" text-anchor="end">call</text>
<rect x="96" y="121" width="393" height="13" fill="#4677c8"/>
<text x="494" y="131">20992  8.5%</text>
<text x="90" y="151" text-anchor="end">ret</text>
<rect x="96" y="141" width="393" height="13" fill="#4677c8"/>
<text x="494" y="151">20988  8.5%</text>
<text x="90" y="171" text-anchor="end">add</text>
<rect x="96" y="161" width="375" height="13" fill="#4677c8"/>
<text x="476" y="171">20040  8.1%</text>
<text x="90" y="191" text-anchor="end">brbc</text>
<rect x="96" y="181" width="291" height="13" fill="#4677c8"/>
<text x="392" y="191">15536  6.3%</text>
<text x="90" y="211" text-anchor="end">ror_inst</text>
<rect x="96" y="201" width="212" height="13" fill="#4677c8"/>
<text x="313" y="211">11320  4.6%</text>
<text x="90" y="231" text-anchor="end">eor</text>
<rect x="96" y="221" width="187" height="13" fill="#4677c8"/>
<text x="288" y="231">9993  4.0%</text>
<text x="90" y="251" text-anchor="end">ldd_y</text>
<rect x="96" y="241" width="186" height="13" fill="#4677c8"/>
<text x="287" y="251">9944  4.0%</text>
<text x="90" y="271" text-anchor="end">mov</text>
<rect x="96" y="261" width="139" height="13" fill="#4677c8"/>
<text x="240" y="271">7414  3.0%</text>
<text x="90" y="291" text-anchor="end">movw</text>
<rect x="96" y="281" width="130" height="13" fill="#4677c8"/>
<text x="231" y="291">6936  2.8%</text>
<text x="90" y="311" text-anchor="end">sbci</text>
<rect x="96" y="301" width="113" height="13" fill="#4677c8"/>
<text x="214" y="311">6024  2.4%</text>
<text x="90" y="331" text-anchor="end">cpi</text>
<rect x="96" y="321" width="109" height="13" fill="#4677c8"/>
<text x="210" y="331">5823  2.4%</text>
<text x="90" y="351" text-anchor="end">jmp</text>
<rect x="96" y="341" width="101" height="13" fill="#4677c8"/>
<text x="202" y="351">5376  2.2%</text>
<text x="90" y="371" text-anchor="end">cpc</text>
<rect x="96" y="361" width="72" height="13" fill="#4677c8"/>
<text x="173" y="371">3821  1.5%</text>
<text x="90" y="391" text-anchor="end">subi</text>
<rect x="96" y="381" width="70" height="13" fill="#4677c8"/>
<text x="171" y="391">3761  1.5%</text>
<text x="90" y="411" text-anchor="end">inc</text>
<rect x="96" y="401" width="61" height="13" fill="#4677c8"/>
<text x="162" y="411">3265  1.3%</text>
<text x="90" y="431" text-anchor="end">std_y</text>
<rect x="96" y="421" width="60" height="13" fill="#4677c8"/>
<text x="161" y="431">3200  1.3%</text>
<text x="90" y="451" text-anchor="end">sbrc</text>
<rect x="96" y="441" width="57" height="13" fill="#4677c8"/>
<text x="158" y="451">3069  1.2%</text>
</svg>
