<svg xmlns="http://www.w3.org/2000/svg" width="876" height="472" font-family="monospace" font-size="12">
<rect width="876" height="472" fill="white"/>
<text x="10" y="22" font-size="15" font-weight="bold">12-ahrs function-mix (insts) — cat1-12-ahrs-i1-21959139-1781455743</text>
<text x="10" y="42" font-size="11" fill="#555">total 17133 across 20 entries; top 20 = 100.0%</text>
<text x="230" y="71" text-anchor="end">main</text>
<rect x="236" y="61" width="470" height="13" fill="#4677c8"/>
<text x="711" y="71">4607  26.9%</text>
<text x="230" y="91" text-anchor="end">__mulsf3_pse</text>
<rect x="236" y="81" width="418" height="13" fill="#4677c8"/>
<text x="659" y="91">4095  23.9%</text>
<text x="230" y="111" text-anchor="end">__fp_splitA</text>
<rect x="236" y="101" width="175" height="13" fill="#4677c8"/>
<text x="416" y="111">1720  10.0%</text>
<text x="230" y="131" text-anchor="end">__USER_SIGNATURE_REGION_LENGTH__</text>
<rect x="236" y="121" width="132" height="13" fill="#4677c8"/>
<text x="373" y="131">1294  7.6%</text>
<text x="230" y="151" text-anchor="end">__fp_round</text>
<rect x="236" y="141" width="130" height="13" fill="#4677c8"/>
<text x="371" y="151">1278  7.5%</text>
<text x="230" y="171" text-anchor="end">__addsf3x</text>
<rect x="236" y="161" width="108" height="13" fill="#4677c8"/>
<text x="349" y="171">1058  6.2%</text>
<text x="230" y="191" text-anchor="end">__fp_split3</text>
<rect x="236" y="181" width="103" height="13" fill="#4677c8"/>
<text x="344" y="191">1013  5.9%</text>
<text x="230" y="211" text-anchor="end">__EEPROM_REGION_LENGTH__</text>
<rect x="236" y="201" width="61" height="13" fill="#4677c8"/>
<text x="302" y="211">601  3.5%</text>
<text x="230" y="231" text-anchor="end">__fp_szero</text>
<rect x="236" y="221" width="32" height="13" fill="#4677c8"/>
<text x="273" y="231">318  1.9%</text>
<text x="230" y="251" text-anchor="end">__mulsf3</text>
<rect x="236" y="241" width="31" height="13" fill="#4677c8"/>
<text x="272" y="251">300  1.8%</text>
<text x="230" y="271" text-anchor="end">__addsf3</text>
<rect x="236" y="261" width="22" height="13" fill="#4677c8"/>
<text x="263" y="271">216  1.3%</text>
<text x="230" y="291" text-anchor="end">__mulsf3x</text>
<rect x="236" y="281" width="21" height="13" fill="#4677c8"/>
<text x="262" y="291">208  1.2%</text>
<text x="230" y="311" text-anchor="end">ahrs_update_imu</text>
<rect x="236" y="301" width="21" height="13" fill="#4677c8"/>
<text x="262" y="311">204  1.2%</text>
<text x="230" y="331" text-anchor="end">__do_copy_data</text>
<rect x="236" y="321" width="16" height="13" fill="#4677c8"/>
<text x="257" y="331">152  0.9%</text>
<text x="230" y="351" text-anchor="end">__fp_cmp</text>
<rect x="236" y="341" width="3" height="13" fill="#4677c8"/>
<text x="244" y="351">29  0.2%</text>
<text x="230" y="371" text-anchor="end">__subsf3</text>
<rect x="236" y="361" width="2" height="13" fill="#4677c8"/>
<text x="243" y="371">23  0.1%</text>
<text x="230" y="391" text-anchor="end">__fp_zero</text>
<rect x="236" y="381" width="1" height="13" fill="#4677c8"/>
<text x="242" y="391">7  0.0%</text>
<text x="230" y="411" text-anchor="end">__ctors_end</text>
<rect x="236" y="401" width="1" height="13" fill="#4677c8"/>
<text x="242" y="411">6  0.0%</text>
<text x="230" y="431" text-anchor="end">__ltsf2</text>
<rect x="236" y="421" width="1" height="13" fill="#4677c8"/>
<text x="242" y="431">3  0.0%</text>
<text x="230" y="451" text-anchor="end">__heap_end</text>
<rect x="236" y="441" width="1" height="13" fill="#4677c8"/>
<text x="242" y="451">1  0.0%</text>
</svg>
