<svg xmlns="http://www.w3.org/2000/svg" width="896" height="472" font-family="monospace" font-size="12">
<rect width="896" height="472" fill="white"/>
<text x="10" y="22" font-size="15" font-weight="bold">12-ahrs runtime cost (calls x cyc/call) — cat1-12-ahrs-i1-21959139-1781455743</text>
<text x="10" y="42" font-size="11" fill="#555">cost = calls × cyc/call (= total cycles); total 23238; top 20 = 100.0%</text>
<text x="230" y="71" text-anchor="end">__mulsf3_pse</text>
<rect x="236" y="61" width="420" height="13" fill="#b5651d"/>
<text x="661" y="71">5094  (104x49)  21.9%</text>
<text x="230" y="91" text-anchor="end">main</text>
<rect x="236" y="81" width="408" height="13" fill="#b5651d"/>
<text x="649" y="91">4943  (1x4943)  21.3%</text>
<text x="230" y="111" text-anchor="end">__fp_splitA</text>
<rect x="236" y="101" width="194" height="13" fill="#b5651d"/>
<text x="435" y="111">2358  (158x15)  10.1%</text>
<text x="230" y="131" text-anchor="end">__USER_SIGNATURE_REGION_LENGTH__</text>
<rect x="236" y="121" width="194" height="13" fill="#b5651d"/>
<text x="435" y="131">2353  (1x2353)  10.1%</text>
<text x="230" y="151" text-anchor="end">__fp_round</text>
<rect x="236" y="141" width="171" height="13" fill="#b5651d"/>
<text x="412" y="151">2068  (158x13)  8.9%</text>
<text x="230" y="171" text-anchor="end">__addsf3x</text>
<rect x="236" y="161" width="110" height="13" fill="#b5651d"/>
<text x="351" y="171">1336  (54x25)  5.7%</text>
<text x="230" y="191" text-anchor="end">__fp_split3</text>
<rect x="236" y="181" width="99" height="13" fill="#b5651d"/>
<text x="340" y="191">1204  (158x8)  5.2%</text>
<text x="230" y="211" text-anchor="end">__mulsf3</text>
<rect x="236" y="201" width="75" height="13" fill="#b5651d"/>
<text x="316" y="211">912  (104x9)  3.9%</text>
<text x="230" y="231" text-anchor="end">__EEPROM_REGION_LENGTH__</text>
<rect x="236" y="221" width="68" height="13" fill="#b5651d"/>
<text x="309" y="231">829  (28x30)  3.6%</text>
<text x="230" y="251" text-anchor="end">__mulsf3x</text>
<rect x="236" y="241" width="43" height="13" fill="#b5651d"/>
<text x="284" y="251">520  (104x5)  2.2%</text>
<text x="230" y="271" text-anchor="end">__addsf3</text>
<rect x="236" y="261" width="40" height="13" fill="#b5651d"/>
<text x="281" y="271">486  (54x9)  2.1%</text>
<text x="230" y="291" text-anchor="end">__fp_szero</text>
<rect x="236" y="281" width="39" height="13" fill="#b5651d"/>
<text x="280" y="291">477  (53x9)  2.1%</text>
<text x="230" y="311" text-anchor="end">ahrs_update_imu</text>
<rect x="236" y="301" width="30" height="13" fill="#b5651d"/>
<text x="271" y="311">364  (1x364)  1.6%</text>
<text x="230" y="331" text-anchor="end">__do_copy_data</text>
<rect x="236" y="321" width="17" height="13" fill="#b5651d"/>
<text x="258" y="331">212  (1x212)  0.9%</text>
<text x="230" y="351" text-anchor="end">__fp_cmp</text>
<rect x="236" y="341" width="3" height="13" fill="#b5651d"/>
<text x="244" y="351">33  (1x33)  0.1%</text>
<text x="230" y="371" text-anchor="end">__subsf3</text>
<rect x="236" y="361" width="2" height="13" fill="#b5651d"/>
<text x="243" y="371">23  (23x1)  0.1%</text>
<text x="230" y="391" text-anchor="end">__ltsf2</text>
<rect x="236" y="381" width="1" height="13" fill="#b5651d"/>
<text x="242" y="391">10  (1x10)  0.0%</text>
<text x="230" y="411" text-anchor="end">__fp_zero</text>
<rect x="236" y="401" width="1" height="13" fill="#b5651d"/>
<text x="242" y="411">7  (7x1)  0.0%</text>
<text x="230" y="431" text-anchor="end">__ctors_end</text>
<rect x="236" y="421" width="1" height="13" fill="#b5651d"/>
<text x="242" y="431">6  (1x6)  0.0%</text>
<text x="230" y="451" text-anchor="end">__heap_end</text>
<rect x="236" y="441" width="1" height="13" fill="#b5651d"/>
<text x="242" y="451">3  (1x3)  0.0%</text>
</svg>
