<svg xmlns="http://www.w3.org/2000/svg" width="876" height="472" font-family="monospace" font-size="12">
<rect width="876" height="472" fill="white"/>
<text x="10" y="22" font-size="15" font-weight="bold">12-ahrs function calls (count) — cat1-12-ahrs-i1-21959139-1781455743</text>
<text x="10" y="42" font-size="11" fill="#555">total 1013 across 20 entries; top 20 = 100.0%</text>
<text x="230" y="71" text-anchor="end">__fp_split3</text>
<rect x="236" y="61" width="470" height="13" fill="#4677c8"/>
<text x="711" y="71">158  15.6%</text>
<text x="230" y="91" text-anchor="end">__fp_round</text>
<rect x="236" y="81" width="470" height="13" fill="#4677c8"/>
<text x="711" y="91">158  15.6%</text>
<text x="230" y="111" text-anchor="end">__fp_splitA</text>
<rect x="236" y="101" width="470" height="13" fill="#4677c8"/>
<text x="711" y="111">158  15.6%</text>
<text x="230" y="131" text-anchor="end">__mulsf3_pse</text>
<rect x="236" y="121" width="309" height="13" fill="#4677c8"/>
<text x="550" y="131">104  10.3%</text>
<text x="230" y="151" text-anchor="end">__mulsf3</text>
<rect x="236" y="141" width="309" height="13" fill="#4677c8"/>
<text x="550" y="151">104  10.3%</text>
<text x="230" y="171" text-anchor="end">__mulsf3x</text>
<rect x="236" y="161" width="309" height="13" fill="#4677c8"/>
<text x="550" y="171">104  10.3%</text>
<text x="230" y="191" text-anchor="end">__addsf3x</text>
<rect x="236" y="181" width="161" height="13" fill="#4677c8"/>
<text x="402" y="191">54  5.3%</text>
<text x="230" y="211" text-anchor="end">__addsf3</text>
<rect x="236" y="201" width="161" height="13" fill="#4677c8"/>
<text x="402" y="211">54  5.3%</text>
<text x="230" y="231" text-anchor="end">__fp_szero</text>
<rect x="236" y="221" width="158" height="13" fill="#4677c8"/>
<text x="399" y="231">53  5.2%</text>
<text x="230" y="251" text-anchor="end">__EEPROM_REGION_LENGTH__</text>
<rect x="236" y="241" width="83" height="13" fill="#4677c8"/>
<text x="324" y="251">28  2.8%</text>
<text x="230" y="271" text-anchor="end">__subsf3</text>
<rect x="236" y="261" width="68" height="13" fill="#4677c8"/>
<text x="309" y="271">23  2.3%</text>
<text x="230" y="291" text-anchor="end">__fp_zero</text>
<rect x="236" y="281" width="21" height="13" fill="#4677c8"/>
<text x="262" y="291">7  0.7%</text>
<text x="230" y="311" text-anchor="end">main</text>
<rect x="236" y="301" width="3" height="13" fill="#4677c8"/>
<text x="244" y="311">1  0.1%</text>
<text x="230" y="331" text-anchor="end">ahrs_update_imu</text>
<rect x="236" y="321" width="3" height="13" fill="#4677c8"/>
<text x="244" y="331">1  0.1%</text>
<text x="230" y="351" text-anchor="end">__ctors_end</text>
<rect x="236" y="341" width="3" height="13" fill="#4677c8"/>
<text x="244" y="351">1  0.1%</text>
<text x="230" y="371" text-anchor="end">__do_copy_data</text>
<rect x="236" y="361" width="3" height="13" fill="#4677c8"/>
<text x="244" y="371">1  0.1%</text>
<text x="230" y="391" text-anchor="end">__heap_end</text>
<rect x="236" y="381" width="3" height="13" fill="#4677c8"/>
<text x="244" y="391">1  0.1%</text>
<text x="230" y="411" text-anchor="end">__USER_SIGNATURE_REGION_LENGTH__</text>
<rect x="236" y="401" width="3" height="13" fill="#4677c8"/>
<text x="244" y="411">1  0.1%</text>
<text x="230" y="431" text-anchor="end">__ltsf2</text>
<rect x="236" y="421" width="3" height="13" fill="#4677c8"/>
<text x="244" y="431">1  0.1%</text>
<text x="230" y="451" text-anchor="end">__fp_cmp</text>
<rect x="236" y="441" width="3" height="13" fill="#4677c8"/>
<text x="244" y="451">1  0.1%</text>
</svg>
