<svg xmlns="http://www.w3.org/2000/svg" width="876" height="472" font-family="monospace" font-size="12">
<rect width="876" height="472" fill="white"/>
<text x="10" y="22" font-size="15" font-weight="bold">12-ahrs function-mix (insts) — cat1-12-ahrs-i11-ceaa8cd4-1781455747</text>
<text x="10" y="42" font-size="11" fill="#555">total 180818 across 20 entries; top 20 = 100.0%</text>
<text x="230" y="71" text-anchor="end">__mulsf3_pse</text>
<rect x="236" y="61" width="470" height="13" fill="#4677c8"/>
<text x="711" y="71">74251  41.1%</text>
<text x="230" y="91" text-anchor="end">__EEPROM_REGION_LENGTH__</text>
<rect x="236" y="81" width="168" height="13" fill="#4677c8"/>
<text x="409" y="91">26478  14.6%</text>
<text x="230" y="111" text-anchor="end">__fp_round</text>
<rect x="236" y="101" width="103" height="13" fill="#4677c8"/>
<text x="344" y="111">16335  9.0%</text>
<text x="230" y="131" text-anchor="end">__USER_SIGNATURE_REGION_LENGTH__</text>
<rect x="236" y="121" width="91" height="13" fill="#4677c8"/>
<text x="332" y="131">14421  8.0%</text>
<text x="230" y="151" text-anchor="end">__fp_splitA</text>
<rect x="236" y="141" width="91" height="13" fill="#4677c8"/>
<text x="332" y="151">14360  7.9%</text>
<text x="230" y="171" text-anchor="end">__fp_split3</text>
<rect x="236" y="161" width="79" height="13" fill="#4677c8"/>
<text x="320" y="171">12453  6.9%</text>
<text x="230" y="191" text-anchor="end">__addsf3x</text>
<rect x="236" y="181" width="45" height="13" fill="#4677c8"/>
<text x="286" y="191">7123  3.9%</text>
<text x="230" y="211" text-anchor="end">main</text>
<rect x="236" y="201" width="33" height="13" fill="#4677c8"/>
<text x="274" y="211">5207  2.9%</text>
<text x="230" y="231" text-anchor="end">__mulsf3</text>
<rect x="236" y="221" width="15" height="13" fill="#4677c8"/>
<text x="256" y="231">2380  1.3%</text>
<text x="230" y="251" text-anchor="end">__addsf3</text>
<rect x="236" y="241" width="15" height="13" fill="#4677c8"/>
<text x="256" y="251">2376  1.3%</text>
<text x="230" y="271" text-anchor="end">__mulsf3x</text>
<rect x="236" y="261" width="14" height="13" fill="#4677c8"/>
<text x="255" y="271">2288  1.3%</text>
<text x="230" y="291" text-anchor="end">ahrs_update_imu</text>
<rect x="236" y="281" width="13" height="13" fill="#4677c8"/>
<text x="254" y="291">2057  1.1%</text>
<text x="230" y="311" text-anchor="end">__fp_cmp</text>
<rect x="236" y="301" width="2" height="13" fill="#4677c8"/>
<text x="243" y="311">319  0.2%</text>
<text x="230" y="331" text-anchor="end">__fp_szero</text>
<rect x="236" y="321" width="2" height="13" fill="#4677c8"/>
<text x="243" y="331">318  0.2%</text>
<text x="230" y="351" text-anchor="end">__subsf3</text>
<rect x="236" y="341" width="2" height="13" fill="#4677c8"/>
<text x="243" y="351">253  0.1%</text>
<text x="230" y="371" text-anchor="end">__do_copy_data</text>
<rect x="236" y="361" width="1" height="13" fill="#4677c8"/>
<text x="242" y="371">152  0.1%</text>
<text x="230" y="391" text-anchor="end">__ltsf2</text>
<rect x="236" y="381" width="1" height="13" fill="#4677c8"/>
<text x="242" y="391">33  0.0%</text>
<text x="230" y="411" text-anchor="end">__fp_zero</text>
<rect x="236" y="401" width="1" height="13" fill="#4677c8"/>
<text x="242" y="411">7  0.0%</text>
<text x="230" y="431" text-anchor="end">__ctors_end</text>
<rect x="236" y="421" width="1" height="13" fill="#4677c8"/>
<text x="242" y="431">6  0.0%</text>
<text x="230" y="451" text-anchor="end">__heap_end</text>
<rect x="236" y="441" width="1" height="13" fill="#4677c8"/>
<text x="242" y="451">1  0.0%</text>
</svg>
