<svg xmlns="http://www.w3.org/2000/svg" width="876" height="472" font-family="monospace" font-size="12">
<rect width="876" height="472" fill="white"/>
<text x="10" y="22" font-size="15" font-weight="bold">12-ahrs function-mix (cycles) — cat1-12-ahrs-i11-ceaa8cd4-1781455747</text>
<text x="10" y="42" font-size="11" fill="#555">total 247412 across 20 entries; top 20 = 100.0%</text>
<text x="230" y="71" text-anchor="end">__mulsf3_pse</text>
<rect x="236" y="61" width="470" height="13" fill="#4677c8"/>
<text x="711" y="71">91366  36.9%</text>
<text x="230" y="91" text-anchor="end">__EEPROM_REGION_LENGTH__</text>
<rect x="236" y="81" width="162" height="13" fill="#4677c8"/>
<text x="403" y="91">31525  12.7%</text>
<text x="230" y="111" text-anchor="end">__USER_SIGNATURE_REGION_LENGTH__</text>
<rect x="236" y="101" width="135" height="13" fill="#4677c8"/>
<text x="376" y="111">26213  10.6%</text>
<text x="230" y="131" text-anchor="end">__fp_round</text>
<rect x="236" y="121" width="129" height="13" fill="#4677c8"/>
<text x="370" y="131">25025  10.1%</text>
<text x="230" y="151" text-anchor="end">__fp_splitA</text>
<rect x="236" y="141" width="102" height="13" fill="#4677c8"/>
<text x="343" y="151">19738  8.0%</text>
<text x="230" y="171" text-anchor="end">__fp_split3</text>
<rect x="236" y="161" width="71" height="13" fill="#4677c8"/>
<text x="312" y="171">13844  5.6%</text>
<text x="230" y="191" text-anchor="end">__addsf3x</text>
<rect x="236" y="181" width="49" height="13" fill="#4677c8"/>
<text x="290" y="191">9585  3.9%</text>
<text x="230" y="211" text-anchor="end">__mulsf3</text>
<rect x="236" y="201" width="42" height="13" fill="#4677c8"/>
<text x="283" y="211">8192  3.3%</text>
<text x="230" y="231" text-anchor="end">main</text>
<rect x="236" y="221" width="30" height="13" fill="#4677c8"/>
<text x="271" y="231">5753  2.3%</text>
<text x="230" y="251" text-anchor="end">__mulsf3x</text>
<rect x="236" y="241" width="29" height="13" fill="#4677c8"/>
<text x="270" y="251">5720  2.3%</text>
<text x="230" y="271" text-anchor="end">__addsf3</text>
<rect x="236" y="261" width="28" height="13" fill="#4677c8"/>
<text x="269" y="271">5346  2.2%</text>
<text x="230" y="291" text-anchor="end">ahrs_update_imu</text>
<rect x="236" y="281" width="19" height="13" fill="#4677c8"/>
<text x="260" y="291">3674  1.5%</text>
<text x="230" y="311" text-anchor="end">__fp_szero</text>
<rect x="236" y="301" width="2" height="13" fill="#4677c8"/>
<text x="243" y="311">477  0.2%</text>
<text x="230" y="331" text-anchor="end">__fp_cmp</text>
<rect x="236" y="321" width="2" height="13" fill="#4677c8"/>
<text x="243" y="331">363  0.1%</text>
<text x="230" y="351" text-anchor="end">__subsf3</text>
<rect x="236" y="341" width="1" height="13" fill="#4677c8"/>
<text x="242" y="351">253  0.1%</text>
<text x="230" y="371" text-anchor="end">__do_copy_data</text>
<rect x="236" y="361" width="1" height="13" fill="#4677c8"/>
<text x="242" y="371">212  0.1%</text>
<text x="230" y="391" text-anchor="end">__ltsf2</text>
<rect x="236" y="381" width="1" height="13" fill="#4677c8"/>
<text x="242" y="391">110  0.0%</text>
<text x="230" y="411" text-anchor="end">__fp_zero</text>
<rect x="236" y="401" width="1" height="13" fill="#4677c8"/>
<text x="242" y="411">7  0.0%</text>
<text x="230" y="431" text-anchor="end">__ctors_end</text>
<rect x="236" y="421" width="1" height="13" fill="#4677c8"/>
<text x="242" y="431">6  0.0%</text>
<text x="230" y="451" text-anchor="end">__heap_end</text>
<rect x="236" y="441" width="1" height="13" fill="#4677c8"/>
<text x="242" y="451">3  0.0%</text>
</svg>
