<svg xmlns="http://www.w3.org/2000/svg" width="736" height="472" font-family="monospace" font-size="12">
<rect width="736" height="472" fill="white"/>
<text x="10" y="22" font-size="15" font-weight="bold">12-ahrs op-mix (insts) — cat1-12-ahrs-i1-21959139-1781455743</text>
<text x="10" y="42" font-size="11" fill="#555">total 17133 across 52 entries; top 20 = 87.4%</text>
<text x="90" y="71" text-anchor="end">eor</text>
<rect x="96" y="61" width="470" height="13" fill="#4677c8"/>
<text x="571" y="71">1662  9.7%</text>
<text x="90" y="91" text-anchor="end">adc</text>
<rect x="96" y="81" width="452" height="13" fill="#4677c8"/>
<text x="553" y="91">1599  9.3%</text>
<text x="90" y="111" text-anchor="end">add</text>
<rect x="96" y="101" width="385" height="13" fill="#4677c8"/>
<text x="486" y="111">1363  8.0%</text>
<text x="90" y="131" text-anchor="end">ror_inst</text>
<rect x="96" y="121" width="366" height="13" fill="#4677c8"/>
<text x="467" y="131">1296  7.6%</text>
<text x="90" y="151" text-anchor="end">brbs</text>
<rect x="96" y="141" width="353" height="13" fill="#4677c8"/>
<text x="454" y="151">1249  7.3%</text>
<text x="90" y="171" text-anchor="end">brbc</text>
<rect x="96" y="161" width="245" height="13" fill="#4677c8"/>
<text x="346" y="171">865  5.0%</text>
<text x="90" y="191" text-anchor="end">movw</text>
<rect x="96" y="181" width="243" height="13" fill="#4677c8"/>
<text x="344" y="191">858  5.0%</text>
<text x="90" y="211" text-anchor="end">andi</text>
<rect x="96" y="201" width="183" height="13" fill="#4677c8"/>
<text x="284" y="211">648  3.8%</text>
<text x="90" y="231" text-anchor="end">sbci</text>
<rect x="96" y="221" width="177" height="13" fill="#4677c8"/>
<text x="278" y="231">627  3.7%</text>
<text x="90" y="251" text-anchor="end">mul</text>
<rect x="96" y="241" width="177" height="13" fill="#4677c8"/>
<text x="278" y="251">626  3.7%</text>
<text x="90" y="271" text-anchor="end">cpc</text>
<rect x="96" y="261" width="159" height="13" fill="#4677c8"/>
<text x="260" y="271">561  3.3%</text>
<text x="90" y="291" text-anchor="end">mov</text>
<rect x="96" y="281" width="136" height="13" fill="#4677c8"/>
<text x="237" y="291">481  2.8%</text>
<text x="90" y="311" text-anchor="end">call</text>
<rect x="96" y="301" width="135" height="13" fill="#4677c8"/>
<text x="236" y="311">478  2.8%</text>
<text x="90" y="331" text-anchor="end">ret</text>
<rect x="96" y="321" width="135" height="13" fill="#4677c8"/>
<text x="236" y="331">477  2.8%</text>
<text x="90" y="351" text-anchor="end">ldd_y</text>
<rect x="96" y="341" width="128" height="13" fill="#4677c8"/>
<text x="229" y="351">452  2.6%</text>
<text x="90" y="371" text-anchor="end">com</text>
<rect x="96" y="361" width="118" height="13" fill="#4677c8"/>
<text x="219" y="371">417  2.4%</text>
<text x="90" y="391" text-anchor="end">cpi</text>
<rect x="96" y="381" width="108" height="13" fill="#4677c8"/>
<text x="209" y="391">383  2.2%</text>
<text x="90" y="411" text-anchor="end">subi</text>
<rect x="96" y="401" width="99" height="13" fill="#4677c8"/>
<text x="200" y="411">350  2.0%</text>
<text x="90" y="431" text-anchor="end">lsr</text>
<rect x="96" y="421" width="92" height="13" fill="#4677c8"/>
<text x="193" y="431">327  1.9%</text>
<text x="90" y="451" text-anchor="end">ldi</text>
<rect x="96" y="441" width="72" height="13" fill="#4677c8"/>
<text x="173" y="451">255  1.5%</text>
</svg>
