<svg xmlns="http://www.w3.org/2000/svg" width="876" height="472" font-family="monospace" font-size="12">
<rect width="876" height="472" fill="white"/>
<text x="10" y="22" font-size="15" font-weight="bold">12-ahrs function-mix (cycles) — cat1-12-ahrs-i1-21959139-1781455743</text>
<text x="10" y="42" font-size="11" fill="#555">total 23238 across 20 entries; top 20 = 100.0%</text>
<text x="230" y="71" text-anchor="end">__mulsf3_pse</text>
<rect x="236" y="61" width="470" height="13" fill="#4677c8"/>
<text x="711" y="71">5094  21.9%</text>
<text x="230" y="91" text-anchor="end">main</text>
<rect x="236" y="81" width="456" height="13" fill="#4677c8"/>
<text x="697" y="91">4943  21.3%</text>
<text x="230" y="111" text-anchor="end">__fp_splitA</text>
<rect x="236" y="101" width="218" height="13" fill="#4677c8"/>
<text x="459" y="111">2358  10.1%</text>
<text x="230" y="131" text-anchor="end">__USER_SIGNATURE_REGION_LENGTH__</text>
<rect x="236" y="121" width="217" height="13" fill="#4677c8"/>
<text x="458" y="131">2353  10.1%</text>
<text x="230" y="151" text-anchor="end">__fp_round</text>
<rect x="236" y="141" width="191" height="13" fill="#4677c8"/>
<text x="432" y="151">2068  8.9%</text>
<text x="230" y="171" text-anchor="end">__addsf3x</text>
<rect x="236" y="161" width="123" height="13" fill="#4677c8"/>
<text x="364" y="171">1336  5.7%</text>
<text x="230" y="191" text-anchor="end">__fp_split3</text>
<rect x="236" y="181" width="111" height="13" fill="#4677c8"/>
<text x="352" y="191">1204  5.2%</text>
<text x="230" y="211" text-anchor="end">__mulsf3</text>
<rect x="236" y="201" width="84" height="13" fill="#4677c8"/>
<text x="325" y="211">912  3.9%</text>
<text x="230" y="231" text-anchor="end">__EEPROM_REGION_LENGTH__</text>
<rect x="236" y="221" width="76" height="13" fill="#4677c8"/>
<text x="317" y="231">829  3.6%</text>
<text x="230" y="251" text-anchor="end">__mulsf3x</text>
<rect x="236" y="241" width="48" height="13" fill="#4677c8"/>
<text x="289" y="251">520  2.2%</text>
<text x="230" y="271" text-anchor="end">__addsf3</text>
<rect x="236" y="261" width="45" height="13" fill="#4677c8"/>
<text x="286" y="271">486  2.1%</text>
<text x="230" y="291" text-anchor="end">__fp_szero</text>
<rect x="236" y="281" width="44" height="13" fill="#4677c8"/>
<text x="285" y="291">477  2.1%</text>
<text x="230" y="311" text-anchor="end">ahrs_update_imu</text>
<rect x="236" y="301" width="34" height="13" fill="#4677c8"/>
<text x="275" y="311">364  1.6%</text>
<text x="230" y="331" text-anchor="end">__do_copy_data</text>
<rect x="236" y="321" width="20" height="13" fill="#4677c8"/>
<text x="261" y="331">212  0.9%</text>
<text x="230" y="351" text-anchor="end">__fp_cmp</text>
<rect x="236" y="341" width="3" height="13" fill="#4677c8"/>
<text x="244" y="351">33  0.1%</text>
<text x="230" y="371" text-anchor="end">__subsf3</text>
<rect x="236" y="361" width="2" height="13" fill="#4677c8"/>
<text x="243" y="371">23  0.1%</text>
<text x="230" y="391" text-anchor="end">__ltsf2</text>
<rect x="236" y="381" width="1" height="13" fill="#4677c8"/>
<text x="242" y="391">10  0.0%</text>
<text x="230" y="411" text-anchor="end">__fp_zero</text>
<rect x="236" y="401" width="1" height="13" fill="#4677c8"/>
<text x="242" y="411">7  0.0%</text>
<text x="230" y="431" text-anchor="end">__ctors_end</text>
<rect x="236" y="421" width="1" height="13" fill="#4677c8"/>
<text x="242" y="431">6  0.0%</text>
<text x="230" y="451" text-anchor="end">__heap_end</text>
<rect x="236" y="441" width="1" height="13" fill="#4677c8"/>
<text x="242" y="451">3  0.0%</text>
</svg>
