<svg xmlns="http://www.w3.org/2000/svg" width="736" height="472" font-family="monospace" font-size="12">
<rect width="736" height="472" fill="white"/>
<text x="10" y="22" font-size="15" font-weight="bold">25-dotprod op-mix (insts) — cat2-25-dotprod-i1-880cc13b-1781456687</text>
<text x="10" y="42" font-size="11" fill="#555">total 47737 across 51 entries; top 20 = 89.4%</text>
<text x="90" y="71" text-anchor="end">adc</text>
<rect x="96" y="61" width="470" height="13" fill="#4677c8"/>
<text x="571" y="71">9594  20.1%</text>
<text x="90" y="91" text-anchor="end">brbs</text>
<rect x="96" y="81" width="209" height="13" fill="#4677c8"/>
<text x="310" y="91">4263  8.9%</text>
<text x="90" y="111" text-anchor="end">add</text>
<rect x="96" y="101" width="191" height="13" fill="#4677c8"/>
<text x="292" y="111">3907  8.2%</text>
<text x="90" y="131" text-anchor="end">brbc</text>
<rect x="96" y="121" width="182" height="13" fill="#4677c8"/>
<text x="283" y="131">3719  7.8%</text>
<text x="90" y="151" text-anchor="end">cpc</text>
<rect x="96" y="141" width="108" height="13" fill="#4677c8"/>
<text x="209" y="151">2205  4.6%</text>
<text x="90" y="171" text-anchor="end">mov</text>
<rect x="96" y="161" width="89" height="13" fill="#4677c8"/>
<text x="190" y="171">1819  3.8%</text>
<text x="90" y="191" text-anchor="end">mul</text>
<rect x="96" y="181" width="87" height="13" fill="#4677c8"/>
<text x="188" y="191">1768  3.7%</text>
<text x="90" y="211" text-anchor="end">dec</text>
<rect x="96" y="201" width="85" height="13" fill="#4677c8"/>
<text x="186" y="211">1740  3.6%</text>
<text x="90" y="231" text-anchor="end">movw</text>
<rect x="96" y="221" width="80" height="13" fill="#4677c8"/>
<text x="181" y="231">1623  3.4%</text>
<text x="90" y="251" text-anchor="end">ror_inst</text>
<rect x="96" y="241" width="79" height="13" fill="#4677c8"/>
<text x="180" y="251">1603  3.4%</text>
<text x="90" y="271" text-anchor="end">eor</text>
<rect x="96" y="261" width="79" height="13" fill="#4677c8"/>
<text x="180" y="271">1603  3.4%</text>
<text x="90" y="291" text-anchor="end">cpi</text>
<rect x="96" y="281" width="67" height="13" fill="#4677c8"/>
<text x="168" y="291">1360  2.8%</text>
<text x="90" y="311" text-anchor="end">ldi</text>
<rect x="96" y="301" width="61" height="13" fill="#4677c8"/>
<text x="162" y="311">1241  2.6%</text>
<text x="90" y="331" text-anchor="end">cp</text>
<rect x="96" y="321" width="60" height="13" fill="#4677c8"/>
<text x="161" y="331">1225  2.6%</text>
<text x="90" y="351" text-anchor="end">call</text>
<rect x="96" y="341" width="51" height="13" fill="#4677c8"/>
<text x="152" y="351">1035  2.2%</text>
<text x="90" y="371" text-anchor="end">ret</text>
<rect x="96" y="361" width="51" height="13" fill="#4677c8"/>
<text x="152" y="371">1034  2.2%</text>
<text x="90" y="391" text-anchor="end">and</text>
<rect x="96" y="381" width="41" height="13" fill="#4677c8"/>
<text x="142" y="391">833  1.7%</text>
<text x="90" y="411" text-anchor="end">st_x_postinc</text>
<rect x="96" y="401" width="39" height="13" fill="#4677c8"/>
<text x="140" y="411">796  1.7%</text>
<text x="90" y="431" text-anchor="end">sbci</text>
<rect x="96" y="421" width="34" height="13" fill="#4677c8"/>
<text x="135" y="431">697  1.5%</text>
<text x="90" y="451" text-anchor="end">sbc</text>
<rect x="96" y="441" width="31" height="13" fill="#4677c8"/>
<text x="132" y="451">626  1.3%</text>
</svg>
