<svg xmlns="http://www.w3.org/2000/svg" width="785" height="472" font-family="monospace" font-size="12">
<rect width="785" height="472" fill="white"/>
<text x="10" y="22" font-size="15" font-weight="bold">25-dotprod function calls (count) — cat2-25-dotprod-i1-880cc13b-1781456687</text>
<text x="10" y="42" font-size="11" fill="#555">total 4969 across 23 entries; top 20 = 99.9%</text>
<text x="139" y="71" text-anchor="end">__udivmodhi4_ep</text>
<rect x="145" y="61" width="470" height="13" fill="#4677c8"/>
<text x="620" y="71">1088  21.9%</text>
<text x="139" y="91" text-anchor="end">__udivmodhi4_loop</text>
<rect x="145" y="81" width="442" height="13" fill="#4677c8"/>
<text x="592" y="91">1024  20.6%</text>
<text x="139" y="111" text-anchor="end">.do_clear_bss_start</text>
<rect x="145" y="101" width="222" height="13" fill="#4677c8"/>
<text x="372" y="111">513  10.3%</text>
<text x="139" y="131" text-anchor="end">.do_clear_bss_loop</text>
<rect x="145" y="121" width="221" height="13" fill="#4677c8"/>
<text x="371" y="131">512  10.3%</text>
<text x="139" y="151" text-anchor="end">__fp_splitA</text>
<rect x="145" y="141" width="112" height="13" fill="#4677c8"/>
<text x="262" y="151">259  5.2%</text>
<text x="139" y="171" text-anchor="end">__fp_split3</text>
<rect x="145" y="161" width="112" height="13" fill="#4677c8"/>
<text x="262" y="171">259  5.2%</text>
<text x="139" y="191" text-anchor="end">__fp_round</text>
<rect x="145" y="181" width="112" height="13" fill="#4677c8"/>
<text x="262" y="191">259  5.2%</text>
<text x="139" y="211" text-anchor="end">__mulsf3_pse</text>
<rect x="145" y="201" width="83" height="13" fill="#4677c8"/>
<text x="233" y="211">193  3.9%</text>
<text x="139" y="231" text-anchor="end">__mulsf3</text>
<rect x="145" y="221" width="83" height="13" fill="#4677c8"/>
<text x="233" y="231">193  3.9%</text>
<text x="139" y="251" text-anchor="end">__mulsf3x</text>
<rect x="145" y="241" width="83" height="13" fill="#4677c8"/>
<text x="233" y="251">193  3.9%</text>
<text x="139" y="271" text-anchor="end">__floatsisf</text>
<rect x="145" y="261" width="55" height="13" fill="#4677c8"/>
<text x="205" y="271">128  2.6%</text>
<text x="139" y="291" text-anchor="end">__addsf3</text>
<rect x="145" y="281" width="29" height="13" fill="#4677c8"/>
<text x="179" y="291">66  1.3%</text>
<text x="139" y="311" text-anchor="end">__addsf3x</text>
<rect x="145" y="301" width="29" height="13" fill="#4677c8"/>
<text x="179" y="311">66  1.3%</text>
<text x="139" y="331" text-anchor="end">__udivmodhi4</text>
<rect x="145" y="321" width="28" height="13" fill="#4677c8"/>
<text x="178" y="331">64  1.3%</text>
<text x="139" y="351" text-anchor="end">_div</text>
<rect x="145" y="341" width="28" height="13" fill="#4677c8"/>
<text x="178" y="351">64  1.3%</text>
<text x="139" y="371" text-anchor="end">__divmodhi4_exit</text>
<rect x="145" y="361" width="28" height="13" fill="#4677c8"/>
<text x="178" y="371">64  1.3%</text>
<text x="139" y="391" text-anchor="end">__fp_szero</text>
<rect x="145" y="381" width="8" height="13" fill="#4677c8"/>
<text x="158" y="391">18  0.4%</text>
<text x="139" y="411" text-anchor="end">__heap_end</text>
<rect x="145" y="401" width="1" height="13" fill="#4677c8"/>
<text x="151" y="411">1  0.0%</text>
<text x="139" y="431" text-anchor="end">__ctors_end</text>
<rect x="145" y="421" width="1" height="13" fill="#4677c8"/>
<text x="151" y="431">1  0.0%</text>
<text x="139" y="451" text-anchor="end">__do_copy_data</text>
<rect x="145" y="441" width="1" height="13" fill="#4677c8"/>
<text x="151" y="451">1  0.0%</text>
</svg>
