<svg xmlns="http://www.w3.org/2000/svg" width="736" height="472" font-family="monospace" font-size="12">
<rect width="736" height="472" fill="white"/>
<text x="10" y="22" font-size="15" font-weight="bold">25-dotprod op-mix (insts) — cat2-25-dotprod-i11-fa998f2d-1781456691</text>
<text x="10" y="42" font-size="11" fill="#555">total 172941 across 51 entries; top 20 = 89.5%</text>
<text x="90" y="71" text-anchor="end">adc</text>
<rect x="96" y="61" width="470" height="13" fill="#4677c8"/>
<text x="571" y="71">26220  15.2%</text>
<text x="90" y="91" text-anchor="end">add</text>
<rect x="96" y="81" width="309" height="13" fill="#4677c8"/>
<text x="410" y="91">17226  10.0%</text>
<text x="90" y="111" text-anchor="end">brbs</text>
<rect x="96" y="101" width="305" height="13" fill="#4677c8"/>
<text x="406" y="111">17035  9.9%</text>
<text x="90" y="131" text-anchor="end">mov</text>
<rect x="96" y="121" width="208" height="13" fill="#4677c8"/>
<text x="309" y="131">11619  6.7%</text>
<text x="90" y="151" text-anchor="end">brbc</text>
<rect x="96" y="141" width="192" height="13" fill="#4677c8"/>
<text x="293" y="151">10730  6.2%</text>
<text x="90" y="171" text-anchor="end">ror_inst</text>
<rect x="96" y="161" width="153" height="13" fill="#4677c8"/>
<text x="254" y="171">8544  4.9%</text>
<text x="90" y="191" text-anchor="end">movw</text>
<rect x="96" y="181" width="141" height="13" fill="#4677c8"/>
<text x="242" y="191">7853  4.5%</text>
<text x="90" y="211" text-anchor="end">eor</text>
<rect x="96" y="201" width="136" height="13" fill="#4677c8"/>
<text x="237" y="211">7593  4.4%</text>
<text x="90" y="231" text-anchor="end">mul</text>
<rect x="96" y="221" width="134" height="13" fill="#4677c8"/>
<text x="235" y="231">7458  4.3%</text>
<text x="90" y="251" text-anchor="end">cpc</text>
<rect x="96" y="241" width="115" height="13" fill="#4677c8"/>
<text x="216" y="251">6435  3.7%</text>
<text x="90" y="271" text-anchor="end">cpi</text>
<rect x="96" y="261" width="93" height="13" fill="#4677c8"/>
<text x="194" y="271">5162  3.0%</text>
<text x="90" y="291" text-anchor="end">call</text>
<rect x="96" y="281" width="89" height="13" fill="#4677c8"/>
<text x="190" y="291">4965  2.9%</text>
<text x="90" y="311" text-anchor="end">ret</text>
<rect x="96" y="301" width="89" height="13" fill="#4677c8"/>
<text x="190" y="311">4964  2.9%</text>
<text x="90" y="331" text-anchor="end">cp</text>
<rect x="96" y="321" width="55" height="13" fill="#4677c8"/>
<text x="156" y="331">3085  1.8%</text>
<text x="90" y="351" text-anchor="end">sbci</text>
<rect x="96" y="341" width="52" height="13" fill="#4677c8"/>
<text x="153" y="351">2911  1.7%</text>
<text x="90" y="371" text-anchor="end">ld_x_postinc</text>
<rect x="96" y="361" width="51" height="13" fill="#4677c8"/>
<text x="152" y="371">2849  1.6%</text>
<text x="90" y="391" text-anchor="end">subi</text>
<rect x="96" y="381" width="51" height="13" fill="#4677c8"/>
<text x="152" y="391">2831  1.6%</text>
<text x="90" y="411" text-anchor="end">ld_z_postinc</text>
<rect x="96" y="401" width="51" height="13" fill="#4677c8"/>
<text x="152" y="411">2829  1.6%</text>
<text x="90" y="431" text-anchor="end">inc</text>
<rect x="96" y="421" width="42" height="13" fill="#4677c8"/>
<text x="143" y="431">2362  1.4%</text>
<text x="90" y="451" text-anchor="end">sbc</text>
<rect x="96" y="441" width="36" height="13" fill="#4677c8"/>
<text x="137" y="451">2036  1.2%</text>
</svg>
