<svg xmlns="http://www.w3.org/2000/svg" width="785" height="472" font-family="monospace" font-size="12">
<rect width="785" height="472" fill="white"/>
<text x="10" y="22" font-size="15" font-weight="bold">25-dotprod function calls (count) — cat2-25-dotprod-i11-fa998f2d-1781456691</text>
<text x="10" y="42" font-size="11" fill="#555">total 12259 across 23 entries; top 20 = 100.0%</text>
<text x="139" y="71" text-anchor="end">__fp_splitA</text>
<rect x="145" y="61" width="470" height="13" fill="#4677c8"/>
<text x="620" y="71">1569  12.8%</text>
<text x="139" y="91" text-anchor="end">__fp_split3</text>
<rect x="145" y="81" width="470" height="13" fill="#4677c8"/>
<text x="620" y="91">1569  12.8%</text>
<text x="139" y="111" text-anchor="end">__fp_round</text>
<rect x="145" y="101" width="470" height="13" fill="#4677c8"/>
<text x="620" y="111">1569  12.8%</text>
<text x="139" y="131" text-anchor="end">__udivmodhi4_ep</text>
<rect x="145" y="121" width="326" height="13" fill="#4677c8"/>
<text x="476" y="131">1088  8.9%</text>
<text x="139" y="151" text-anchor="end">__udivmodhi4_loop</text>
<rect x="145" y="141" width="307" height="13" fill="#4677c8"/>
<text x="457" y="151">1024  8.4%</text>
<text x="139" y="171" text-anchor="end">__mulsf3x</text>
<rect x="145" y="161" width="253" height="13" fill="#4677c8"/>
<text x="403" y="171">843  6.9%</text>
<text x="139" y="191" text-anchor="end">__mulsf3_pse</text>
<rect x="145" y="181" width="253" height="13" fill="#4677c8"/>
<text x="403" y="191">843  6.9%</text>
<text x="139" y="211" text-anchor="end">__mulsf3</text>
<rect x="145" y="201" width="253" height="13" fill="#4677c8"/>
<text x="403" y="211">843  6.9%</text>
<text x="139" y="231" text-anchor="end">__addsf3</text>
<rect x="145" y="221" width="217" height="13" fill="#4677c8"/>
<text x="367" y="231">726  5.9%</text>
<text x="139" y="251" text-anchor="end">__addsf3x</text>
<rect x="145" y="241" width="217" height="13" fill="#4677c8"/>
<text x="367" y="251">726  5.9%</text>
<text x="139" y="271" text-anchor="end">.do_clear_bss_start</text>
<rect x="145" y="261" width="154" height="13" fill="#4677c8"/>
<text x="304" y="271">513  4.2%</text>
<text x="139" y="291" text-anchor="end">.do_clear_bss_loop</text>
<rect x="145" y="281" width="153" height="13" fill="#4677c8"/>
<text x="303" y="291">512  4.2%</text>
<text x="139" y="311" text-anchor="end">__floatsisf</text>
<rect x="145" y="301" width="38" height="13" fill="#4677c8"/>
<text x="188" y="311">128  1.0%</text>
<text x="139" y="331" text-anchor="end">__fp_szero</text>
<rect x="145" y="321" width="32" height="13" fill="#4677c8"/>
<text x="182" y="331">108  0.9%</text>
<text x="139" y="351" text-anchor="end">_div</text>
<rect x="145" y="341" width="19" height="13" fill="#4677c8"/>
<text x="169" y="351">64  0.5%</text>
<text x="139" y="371" text-anchor="end">__udivmodhi4</text>
<rect x="145" y="361" width="19" height="13" fill="#4677c8"/>
<text x="169" y="371">64  0.5%</text>
<text x="139" y="391" text-anchor="end">__divmodhi4_exit</text>
<rect x="145" y="381" width="19" height="13" fill="#4677c8"/>
<text x="169" y="391">64  0.5%</text>
<text x="139" y="411" text-anchor="end">__do_copy_data</text>
<rect x="145" y="401" width="1" height="13" fill="#4677c8"/>
<text x="151" y="411">1  0.0%</text>
<text x="139" y="431" text-anchor="end">__do_clear_bss</text>
<rect x="145" y="421" width="1" height="13" fill="#4677c8"/>
<text x="151" y="431">1  0.0%</text>
<text x="139" y="451" text-anchor="end">run_workload</text>
<rect x="145" y="441" width="1" height="13" fill="#4677c8"/>
<text x="151" y="451">1  0.0%</text>
</svg>
