<svg xmlns="http://www.w3.org/2000/svg" width="785" height="472" font-family="monospace" font-size="12">
<rect width="785" height="472" fill="white"/>
<text x="10" y="22" font-size="15" font-weight="bold">25-dotprod function-mix (cycles) — cat2-25-dotprod-i1-880cc13b-1781456687</text>
<text x="10" y="42" font-size="11" fill="#555">total 63541 across 23 entries; top 20 = 100.0%</text>
<text x="139" y="71" text-anchor="end">__mulsf3_pse</text>
<rect x="145" y="61" width="470" height="13" fill="#4677c8"/>
<text x="620" y="71">15287  24.1%</text>
<text x="139" y="91" text-anchor="end">run_workload</text>
<rect x="145" y="81" width="259" height="13" fill="#4677c8"/>
<text x="409" y="91">8415  13.2%</text>
<text x="139" y="111" text-anchor="end">__floatsisf</text>
<rect x="145" y="101" width="204" height="13" fill="#4677c8"/>
<text x="354" y="111">6625  10.4%</text>
<text x="139" y="131" text-anchor="end">__udivmodhi4_loop</text>
<rect x="145" y="121" width="192" height="13" fill="#4677c8"/>
<text x="342" y="131">6237  9.8%</text>
<text x="139" y="151" text-anchor="end">__udivmodhi4_ep</text>
<rect x="145" y="141" width="181" height="13" fill="#4677c8"/>
<text x="331" y="151">5888  9.3%</text>
<text x="139" y="171" text-anchor="end">__addsf3x</text>
<rect x="145" y="161" width="112" height="13" fill="#4677c8"/>
<text x="262" y="171">3633  5.7%</text>
<text x="139" y="191" text-anchor="end">__fp_round</text>
<rect x="145" y="181" width="105" height="13" fill="#4677c8"/>
<text x="255" y="191">3409  5.4%</text>
<text x="139" y="211" text-anchor="end">__fp_splitA</text>
<rect x="145" y="201" width="93" height="13" fill="#4677c8"/>
<text x="243" y="211">3012  4.7%</text>
<text x="139" y="231" text-anchor="end">.do_clear_bss_start</text>
<rect x="145" y="221" width="63" height="13" fill="#4677c8"/>
<text x="213" y="231">2055  3.2%</text>
<text x="139" y="251" text-anchor="end">__fp_split3</text>
<rect x="145" y="241" width="63" height="13" fill="#4677c8"/>
<text x="213" y="251">2054  3.2%</text>
<text x="139" y="271" text-anchor="end">__mulsf3</text>
<rect x="145" y="261" width="44" height="13" fill="#4677c8"/>
<text x="194" y="271">1423  2.2%</text>
<text x="139" y="291" text-anchor="end">main</text>
<rect x="145" y="281" width="33" height="13" fill="#4677c8"/>
<text x="183" y="291">1064  1.7%</text>
<text x="139" y="311" text-anchor="end">.do_clear_bss_loop</text>
<rect x="145" y="301" width="31" height="13" fill="#4677c8"/>
<text x="181" y="311">1024  1.6%</text>
<text x="139" y="331" text-anchor="end">__mulsf3x</text>
<rect x="145" y="321" width="30" height="13" fill="#4677c8"/>
<text x="180" y="331">965  1.5%</text>
<text x="139" y="351" text-anchor="end">_div</text>
<rect x="145" y="341" width="28" height="13" fill="#4677c8"/>
<text x="178" y="351">896  1.4%</text>
<text x="139" y="371" text-anchor="end">__addsf3</text>
<rect x="145" y="361" width="18" height="13" fill="#4677c8"/>
<text x="168" y="371">594  0.9%</text>
<text x="139" y="391" text-anchor="end">__udivmodhi4</text>
<rect x="145" y="381" width="10" height="13" fill="#4677c8"/>
<text x="160" y="391">320  0.5%</text>
<text x="139" y="411" text-anchor="end">__divmodhi4_exit</text>
<rect x="145" y="401" width="8" height="13" fill="#4677c8"/>
<text x="158" y="411">256  0.4%</text>
<text x="139" y="431" text-anchor="end">__do_copy_data</text>
<rect x="145" y="421" width="6" height="13" fill="#4677c8"/>
<text x="156" y="431">208  0.3%</text>
<text x="139" y="451" text-anchor="end">__fp_szero</text>
<rect x="145" y="441" width="5" height="13" fill="#4677c8"/>
<text x="155" y="451">162  0.3%</text>
</svg>
