<svg xmlns="http://www.w3.org/2000/svg" width="896" height="412" font-family="monospace" font-size="12">
<rect width="896" height="412" fill="white"/>
<text x="10" y="22" font-size="15" font-weight="bold">15-control-allocation runtime cost (calls x cyc/call) — cat1-15-control-allocation-i1-774cadeb-1781456018</text>
<text x="10" y="42" font-size="11" fill="#555">cost = calls × cyc/call (= total cycles); total 11689; top 17 = 100.0%</text>
<text x="230" y="71" text-anchor="end">main</text>
<rect x="236" y="61" width="420" height="13" fill="#b5651d"/>
<text x="661" y="71">5132  (1x5132)  43.9%</text>
<text x="230" y="91" text-anchor="end">__mulsf3_pse</text>
<rect x="236" y="81" width="117" height="13" fill="#b5651d"/>
<text x="358" y="91">1424  (16x89)  12.2%</text>
<text x="230" y="111" text-anchor="end">__do_copy_data</text>
<rect x="236" y="101" width="91" height="13" fill="#b5651d"/>
<text x="332" y="111">1108  (1x1108)  9.5%</text>
<text x="230" y="131" text-anchor="end">allocate</text>
<rect x="236" y="121" width="86" height="13" fill="#b5651d"/>
<text x="327" y="131">1053  (1x1053)  9.0%</text>
<text x="230" y="151" text-anchor="end">__addsf3x</text>
<rect x="236" y="141" width="69" height="13" fill="#b5651d"/>
<text x="310" y="151">840  (20x42)  7.2%</text>
<text x="230" y="171" text-anchor="end">__fp_round</text>
<rect x="236" y="161" width="38" height="13" fill="#b5651d"/>
<text x="279" y="171">462  (36x13)  4.0%</text>
<text x="230" y="191" text-anchor="end">__fp_splitA</text>
<rect x="236" y="181" width="36" height="13" fill="#b5651d"/>
<text x="277" y="191">436  (36x12)  3.7%</text>
<text x="230" y="211" text-anchor="end">__fp_split3</text>
<rect x="236" y="201" width="24" height="13" fill="#b5651d"/>
<text x="265" y="211">288  (36x8)  2.5%</text>
<text x="230" y="231" text-anchor="end">__fp_cmp</text>
<rect x="236" y="221" width="22" height="13" fill="#b5651d"/>
<text x="263" y="231">264  (8x33)  2.3%</text>
<text x="230" y="251" text-anchor="end">__USER_SIGNATURE_REGION_LENGTH__</text>
<rect x="236" y="241" width="18" height="13" fill="#b5651d"/>
<text x="259" y="251">221  (3x74)  1.9%</text>
<text x="230" y="271" text-anchor="end">__addsf3</text>
<rect x="236" y="261" width="15" height="13" fill="#b5651d"/>
<text x="256" y="271">180  (20x9)  1.5%</text>
<text x="230" y="291" text-anchor="end">__mulsf3</text>
<rect x="236" y="281" width="9" height="13" fill="#b5651d"/>
<text x="250" y="291">112  (16x7)  1.0%</text>
<text x="230" y="311" text-anchor="end">__mulsf3x</text>
<rect x="236" y="301" width="7" height="13" fill="#b5651d"/>
<text x="248" y="311">80  (16x5)  0.7%</text>
<text x="230" y="331" text-anchor="end">__ltsf2</text>
<rect x="236" y="321" width="3" height="13" fill="#b5651d"/>
<text x="244" y="331">40  (4x10)  0.3%</text>
<text x="230" y="351" text-anchor="end">__gesf2</text>
<rect x="236" y="341" width="3" height="13" fill="#b5651d"/>
<text x="244" y="351">40  (4x10)  0.3%</text>
<text x="230" y="371" text-anchor="end">__ctors_end</text>
<rect x="236" y="361" width="1" height="13" fill="#b5651d"/>
<text x="242" y="371">6  (1x6)  0.1%</text>
<text x="230" y="391" text-anchor="end">__heap_end</text>
<rect x="236" y="381" width="1" height="13" fill="#b5651d"/>
<text x="242" y="391">3  (1x3)  0.0%</text>
</svg>
