<svg xmlns="http://www.w3.org/2000/svg" width="876" height="412" font-family="monospace" font-size="12">
<rect width="876" height="412" fill="white"/>
<text x="10" y="22" font-size="15" font-weight="bold">15-control-allocation function-mix (cycles) — cat1-15-control-allocation-i1-774cadeb-1781456018</text>
<text x="10" y="42" font-size="11" fill="#555">total 11689 across 17 entries; top 17 = 100.0%</text>
<text x="230" y="71" text-anchor="end">main</text>
<rect x="236" y="61" width="470" height="13" fill="#4677c8"/>
<text x="711" y="71">5132  43.9%</text>
<text x="230" y="91" text-anchor="end">__mulsf3_pse</text>
<rect x="236" y="81" width="130" height="13" fill="#4677c8"/>
<text x="371" y="91">1424  12.2%</text>
<text x="230" y="111" text-anchor="end">__do_copy_data</text>
<rect x="236" y="101" width="101" height="13" fill="#4677c8"/>
<text x="342" y="111">1108  9.5%</text>
<text x="230" y="131" text-anchor="end">allocate</text>
<rect x="236" y="121" width="96" height="13" fill="#4677c8"/>
<text x="337" y="131">1053  9.0%</text>
<text x="230" y="151" text-anchor="end">__addsf3x</text>
<rect x="236" y="141" width="77" height="13" fill="#4677c8"/>
<text x="318" y="151">840  7.2%</text>
<text x="230" y="171" text-anchor="end">__fp_round</text>
<rect x="236" y="161" width="42" height="13" fill="#4677c8"/>
<text x="283" y="171">462  4.0%</text>
<text x="230" y="191" text-anchor="end">__fp_splitA</text>
<rect x="236" y="181" width="40" height="13" fill="#4677c8"/>
<text x="281" y="191">436  3.7%</text>
<text x="230" y="211" text-anchor="end">__fp_split3</text>
<rect x="236" y="201" width="26" height="13" fill="#4677c8"/>
<text x="267" y="211">288  2.5%</text>
<text x="230" y="231" text-anchor="end">__fp_cmp</text>
<rect x="236" y="221" width="24" height="13" fill="#4677c8"/>
<text x="265" y="231">264  2.3%</text>
<text x="230" y="251" text-anchor="end">__USER_SIGNATURE_REGION_LENGTH__</text>
<rect x="236" y="241" width="20" height="13" fill="#4677c8"/>
<text x="261" y="251">221  1.9%</text>
<text x="230" y="271" text-anchor="end">__addsf3</text>
<rect x="236" y="261" width="16" height="13" fill="#4677c8"/>
<text x="257" y="271">180  1.5%</text>
<text x="230" y="291" text-anchor="end">__mulsf3</text>
<rect x="236" y="281" width="10" height="13" fill="#4677c8"/>
<text x="251" y="291">112  1.0%</text>
<text x="230" y="311" text-anchor="end">__mulsf3x</text>
<rect x="236" y="301" width="7" height="13" fill="#4677c8"/>
<text x="248" y="311">80  0.7%</text>
<text x="230" y="331" text-anchor="end">__ltsf2</text>
<rect x="236" y="321" width="4" height="13" fill="#4677c8"/>
<text x="245" y="331">40  0.3%</text>
<text x="230" y="351" text-anchor="end">__gesf2</text>
<rect x="236" y="341" width="4" height="13" fill="#4677c8"/>
<text x="245" y="351">40  0.3%</text>
<text x="230" y="371" text-anchor="end">__ctors_end</text>
<rect x="236" y="361" width="1" height="13" fill="#4677c8"/>
<text x="242" y="371">6  0.1%</text>
<text x="230" y="391" text-anchor="end">__heap_end</text>
<rect x="236" y="381" width="1" height="13" fill="#4677c8"/>
<text x="242" y="391">3  0.0%</text>
</svg>
