<svg xmlns="http://www.w3.org/2000/svg" width="736" height="472" font-family="monospace" font-size="12">
<rect width="736" height="472" fill="white"/>
<text x="10" y="22" font-size="15" font-weight="bold">15-control-allocation op-mix (cycles) — cat1-15-control-allocation-i11-ceac6e4a-1781456022</text>
<text x="10" y="42" font-size="11" fill="#555">total 68332 across 51 entries; top 20 = 85.9%</text>
<text x="90" y="71" text-anchor="end">call</text>
<rect x="96" y="61" width="470" height="13" fill="#4677c8"/>
<text x="571" y="71">5504  8.1%</text>
<text x="90" y="91" text-anchor="end">ret</text>
<rect x="96" y="81" width="470" height="13" fill="#4677c8"/>
<text x="571" y="91">5500  8.0%</text>
<text x="90" y="111" text-anchor="end">brbc</text>
<rect x="96" y="101" width="452" height="13" fill="#4677c8"/>
<text x="553" y="111">5299  7.8%</text>
<text x="90" y="131" text-anchor="end">adc</text>
<rect x="96" y="121" width="452" height="13" fill="#4677c8"/>
<text x="553" y="131">5290  7.7%</text>
<text x="90" y="151" text-anchor="end">brbs</text>
<rect x="96" y="141" width="428" height="13" fill="#4677c8"/>
<text x="529" y="151">5008  7.3%</text>
<text x="90" y="171" text-anchor="end">add</text>
<rect x="96" y="161" width="368" height="13" fill="#4677c8"/>
<text x="469" y="171">4304  6.3%</text>
<text x="90" y="191" text-anchor="end">mul</text>
<rect x="96" y="181" width="301" height="13" fill="#4677c8"/>
<text x="402" y="191">3520  5.2%</text>
<text x="90" y="211" text-anchor="end">movw</text>
<rect x="96" y="201" width="277" height="13" fill="#4677c8"/>
<text x="378" y="211">3244  4.7%</text>
<text x="90" y="231" text-anchor="end">ld_z_postinc</text>
<rect x="96" y="221" width="275" height="13" fill="#4677c8"/>
<text x="376" y="231">3218  4.7%</text>
<text x="90" y="251" text-anchor="end">ror_inst</text>
<rect x="96" y="241" width="262" height="13" fill="#4677c8"/>
<text x="363" y="251">3063  4.5%</text>
<text x="90" y="271" text-anchor="end">eor</text>
<rect x="96" y="261" width="246" height="13" fill="#4677c8"/>
<text x="347" y="271">2884  4.2%</text>
<text x="90" y="291" text-anchor="end">cpc</text>
<rect x="96" y="281" width="184" height="13" fill="#4677c8"/>
<text x="285" y="291">2160  3.2%</text>
<text x="90" y="311" text-anchor="end">mov</text>
<rect x="96" y="301" width="167" height="13" fill="#4677c8"/>
<text x="268" y="311">1961  2.9%</text>
<text x="90" y="331" text-anchor="end">cpi</text>
<rect x="96" y="321" width="116" height="13" fill="#4677c8"/>
<text x="217" y="331">1362  2.0%</text>
<text x="90" y="351" text-anchor="end">ldd_y</text>
<rect x="96" y="341" width="109" height="13" fill="#4677c8"/>
<text x="210" y="351">1280  1.9%</text>
<text x="90" y="371" text-anchor="end">sbci</text>
<rect x="96" y="361" width="108" height="13" fill="#4677c8"/>
<text x="209" y="371">1261  1.8%</text>
<text x="90" y="391" text-anchor="end">jmp</text>
<rect x="96" y="381" width="103" height="13" fill="#4677c8"/>
<text x="204" y="391">1203  1.8%</text>
<text x="90" y="411" text-anchor="end">std_y</text>
<rect x="96" y="401" width="86" height="13" fill="#4677c8"/>
<text x="187" y="411">1012  1.5%</text>
<text x="90" y="431" text-anchor="end">cp</text>
<rect x="96" y="421" width="73" height="13" fill="#4677c8"/>
<text x="174" y="431">851  1.2%</text>
<text x="90" y="451" text-anchor="end">subi</text>
<rect x="96" y="441" width="67" height="13" fill="#4677c8"/>
<text x="168" y="451">780  1.1%</text>
</svg>
