<svg xmlns="http://www.w3.org/2000/svg" width="876" height="452" font-family="monospace" font-size="12">
<rect width="876" height="452" fill="white"/>
<text x="10" y="22" font-size="15" font-weight="bold">15-control-allocation function-mix (cycles) — cat1-15-control-allocation-i11-ceac6e4a-1781456022</text>
<text x="10" y="42" font-size="11" fill="#555">total 68332 across 19 entries; top 19 = 100.0%</text>
<text x="230" y="71" text-anchor="end">__mulsf3_pse</text>
<rect x="236" y="61" width="470" height="13" fill="#4677c8"/>
<text x="711" y="71">15664  22.9%</text>
<text x="230" y="91" text-anchor="end">allocate</text>
<rect x="236" y="81" width="349" height="13" fill="#4677c8"/>
<text x="590" y="91">11637  17.0%</text>
<text x="230" y="111" text-anchor="end">__addsf3x</text>
<rect x="236" y="101" width="232" height="13" fill="#4677c8"/>
<text x="473" y="111">7723  11.3%</text>
<text x="230" y="131" text-anchor="end">main</text>
<rect x="236" y="121" width="219" height="13" fill="#4677c8"/>
<text x="460" y="131">7313  10.7%</text>
<text x="230" y="151" text-anchor="end">__fp_round</text>
<rect x="236" y="141" width="153" height="13" fill="#4677c8"/>
<text x="394" y="151">5112  7.5%</text>
<text x="230" y="171" text-anchor="end">__fp_splitA</text>
<rect x="236" y="161" width="140" height="13" fill="#4677c8"/>
<text x="381" y="171">4652  6.8%</text>
<text x="230" y="191" text-anchor="end">__USER_SIGNATURE_REGION_LENGTH__</text>
<rect x="236" y="181" width="121" height="13" fill="#4677c8"/>
<text x="362" y="191">4036  5.9%</text>
<text x="230" y="211" text-anchor="end">__fp_split3</text>
<rect x="236" y="201" width="95" height="13" fill="#4677c8"/>
<text x="336" y="211">3162  4.6%</text>
<text x="230" y="231" text-anchor="end">__fp_cmp</text>
<rect x="236" y="221" width="87" height="13" fill="#4677c8"/>
<text x="328" y="231">2904  4.2%</text>
<text x="230" y="251" text-anchor="end">__addsf3</text>
<rect x="236" y="241" width="59" height="13" fill="#4677c8"/>
<text x="300" y="251">1980  2.9%</text>
<text x="230" y="271" text-anchor="end">__mulsf3</text>
<rect x="236" y="261" width="37" height="13" fill="#4677c8"/>
<text x="278" y="271">1232  1.8%</text>
<text x="230" y="291" text-anchor="end">__do_copy_data</text>
<rect x="236" y="281" width="33" height="13" fill="#4677c8"/>
<text x="274" y="291">1108  1.6%</text>
<text x="230" y="311" text-anchor="end">__mulsf3x</text>
<rect x="236" y="301" width="26" height="13" fill="#4677c8"/>
<text x="267" y="311">880  1.3%</text>
<text x="230" y="331" text-anchor="end">__ltsf2</text>
<rect x="236" y="321" width="13" height="13" fill="#4677c8"/>
<text x="254" y="331">440  0.6%</text>
<text x="230" y="351" text-anchor="end">__gesf2</text>
<rect x="236" y="341" width="13" height="13" fill="#4677c8"/>
<text x="254" y="351">440  0.6%</text>
<text x="230" y="371" text-anchor="end">__fp_szero</text>
<rect x="236" y="361" width="1" height="13" fill="#4677c8"/>
<text x="242" y="371">36  0.1%</text>
<text x="230" y="391" text-anchor="end">__ctors_end</text>
<rect x="236" y="381" width="1" height="13" fill="#4677c8"/>
<text x="242" y="391">6  0.0%</text>
<text x="230" y="411" text-anchor="end">__fp_zero</text>
<rect x="236" y="401" width="1" height="13" fill="#4677c8"/>
<text x="242" y="411">4  0.0%</text>
<text x="230" y="431" text-anchor="end">__heap_end</text>
<rect x="236" y="421" width="1" height="13" fill="#4677c8"/>
<text x="242" y="431">3  0.0%</text>
</svg>
