<svg xmlns="http://www.w3.org/2000/svg" width="876" height="452" font-family="monospace" font-size="12">
<rect width="876" height="452" fill="white"/>
<text x="10" y="22" font-size="15" font-weight="bold">15-control-allocation function-mix (insts) — cat1-15-control-allocation-i11-ceac6e4a-1781456022</text>
<text x="10" y="42" font-size="11" fill="#555">total 49862 across 19 entries; top 19 = 100.0%</text>
<text x="230" y="71" text-anchor="end">__mulsf3_pse</text>
<rect x="236" y="61" width="470" height="13" fill="#4677c8"/>
<text x="711" y="71">12848  25.8%</text>
<text x="230" y="91" text-anchor="end">allocate</text>
<rect x="236" y="81" width="252" height="13" fill="#4677c8"/>
<text x="493" y="91">6899  13.8%</text>
<text x="230" y="111" text-anchor="end">__addsf3x</text>
<rect x="236" y="101" width="233" height="13" fill="#4677c8"/>
<text x="474" y="111">6362  12.8%</text>
<text x="230" y="131" text-anchor="end">main</text>
<rect x="236" y="121" width="226" height="13" fill="#4677c8"/>
<text x="467" y="131">6188  12.4%</text>
<text x="230" y="151" text-anchor="end">__fp_splitA</text>
<rect x="236" y="141" width="123" height="13" fill="#4677c8"/>
<text x="364" y="151">3354  6.7%</text>
<text x="230" y="171" text-anchor="end">__fp_round</text>
<rect x="236" y="161" width="115" height="13" fill="#4677c8"/>
<text x="356" y="171">3132  6.3%</text>
<text x="230" y="191" text-anchor="end">__USER_SIGNATURE_REGION_LENGTH__</text>
<rect x="236" y="181" width="109" height="13" fill="#4677c8"/>
<text x="350" y="191">2990  6.0%</text>
<text x="230" y="211" text-anchor="end">__fp_split3</text>
<rect x="236" y="201" width="105" height="13" fill="#4677c8"/>
<text x="346" y="211">2874  5.8%</text>
<text x="230" y="231" text-anchor="end">__fp_cmp</text>
<rect x="236" y="221" width="93" height="13" fill="#4677c8"/>
<text x="334" y="231">2540  5.1%</text>
<text x="230" y="251" text-anchor="end">__addsf3</text>
<rect x="236" y="241" width="32" height="13" fill="#4677c8"/>
<text x="273" y="251">880  1.8%</text>
<text x="230" y="271" text-anchor="end">__do_copy_data</text>
<rect x="236" y="261" width="29" height="13" fill="#4677c8"/>
<text x="270" y="271">792  1.6%</text>
<text x="230" y="291" text-anchor="end">__mulsf3</text>
<rect x="236" y="281" width="13" height="13" fill="#4677c8"/>
<text x="254" y="291">352  0.7%</text>
<text x="230" y="311" text-anchor="end">__mulsf3x</text>
<rect x="236" y="301" width="13" height="13" fill="#4677c8"/>
<text x="254" y="311">352  0.7%</text>
<text x="230" y="331" text-anchor="end">__ltsf2</text>
<rect x="236" y="321" width="5" height="13" fill="#4677c8"/>
<text x="246" y="331">132  0.3%</text>
<text x="230" y="351" text-anchor="end">__gesf2</text>
<rect x="236" y="341" width="5" height="13" fill="#4677c8"/>
<text x="246" y="351">132  0.3%</text>
<text x="230" y="371" text-anchor="end">__fp_szero</text>
<rect x="236" y="361" width="1" height="13" fill="#4677c8"/>
<text x="242" y="371">24  0.0%</text>
<text x="230" y="391" text-anchor="end">__ctors_end</text>
<rect x="236" y="381" width="1" height="13" fill="#4677c8"/>
<text x="242" y="391">6  0.0%</text>
<text x="230" y="411" text-anchor="end">__fp_zero</text>
<rect x="236" y="401" width="1" height="13" fill="#4677c8"/>
<text x="242" y="411">4  0.0%</text>
<text x="230" y="431" text-anchor="end">__heap_end</text>
<rect x="236" y="421" width="1" height="13" fill="#4677c8"/>
<text x="242" y="431">1  0.0%</text>
</svg>
