<svg xmlns="http://www.w3.org/2000/svg" width="876" height="452" font-family="monospace" font-size="12">
<rect width="876" height="452" fill="white"/>
<text x="10" y="22" font-size="15" font-weight="bold">15-control-allocation function calls (count) — cat1-15-control-allocation-i11-ceac6e4a-1781456022</text>
<text x="10" y="42" font-size="11" fill="#555">total 2413 across 19 entries; top 19 = 100.0%</text>
<text x="230" y="71" text-anchor="end">__fp_round</text>
<rect x="236" y="61" width="470" height="13" fill="#4677c8"/>
<text x="711" y="71">396  16.4%</text>
<text x="230" y="91" text-anchor="end">__fp_split3</text>
<rect x="236" y="81" width="470" height="13" fill="#4677c8"/>
<text x="711" y="91">396  16.4%</text>
<text x="230" y="111" text-anchor="end">__fp_splitA</text>
<rect x="236" y="101" width="470" height="13" fill="#4677c8"/>
<text x="711" y="111">396  16.4%</text>
<text x="230" y="131" text-anchor="end">__addsf3x</text>
<rect x="236" y="121" width="261" height="13" fill="#4677c8"/>
<text x="502" y="131">220  9.1%</text>
<text x="230" y="151" text-anchor="end">__addsf3</text>
<rect x="236" y="141" width="261" height="13" fill="#4677c8"/>
<text x="502" y="151">220  9.1%</text>
<text x="230" y="171" text-anchor="end">__mulsf3_pse</text>
<rect x="236" y="161" width="209" height="13" fill="#4677c8"/>
<text x="450" y="171">176  7.3%</text>
<text x="230" y="191" text-anchor="end">__mulsf3x</text>
<rect x="236" y="181" width="209" height="13" fill="#4677c8"/>
<text x="450" y="191">176  7.3%</text>
<text x="230" y="211" text-anchor="end">__mulsf3</text>
<rect x="236" y="201" width="209" height="13" fill="#4677c8"/>
<text x="450" y="211">176  7.3%</text>
<text x="230" y="231" text-anchor="end">__fp_cmp</text>
<rect x="236" y="221" width="104" height="13" fill="#4677c8"/>
<text x="345" y="231">88  3.6%</text>
<text x="230" y="251" text-anchor="end">__USER_SIGNATURE_REGION_LENGTH__</text>
<rect x="236" y="241" width="69" height="13" fill="#4677c8"/>
<text x="310" y="251">58  2.4%</text>
<text x="230" y="271" text-anchor="end">__gesf2</text>
<rect x="236" y="261" width="52" height="13" fill="#4677c8"/>
<text x="293" y="271">44  1.8%</text>
<text x="230" y="291" text-anchor="end">__ltsf2</text>
<rect x="236" y="281" width="52" height="13" fill="#4677c8"/>
<text x="293" y="291">44  1.8%</text>
<text x="230" y="311" text-anchor="end">allocate</text>
<rect x="236" y="301" width="13" height="13" fill="#4677c8"/>
<text x="254" y="311">11  0.5%</text>
<text x="230" y="331" text-anchor="end">__fp_szero</text>
<rect x="236" y="321" width="5" height="13" fill="#4677c8"/>
<text x="246" y="331">4  0.2%</text>
<text x="230" y="351" text-anchor="end">__fp_zero</text>
<rect x="236" y="341" width="5" height="13" fill="#4677c8"/>
<text x="246" y="351">4  0.2%</text>
<text x="230" y="371" text-anchor="end">main</text>
<rect x="236" y="361" width="1" height="13" fill="#4677c8"/>
<text x="242" y="371">1  0.0%</text>
<text x="230" y="391" text-anchor="end">__heap_end</text>
<rect x="236" y="381" width="1" height="13" fill="#4677c8"/>
<text x="242" y="391">1  0.0%</text>
<text x="230" y="411" text-anchor="end">__ctors_end</text>
<rect x="236" y="401" width="1" height="13" fill="#4677c8"/>
<text x="242" y="411">1  0.0%</text>
<text x="230" y="431" text-anchor="end">__do_copy_data</text>
<rect x="236" y="421" width="1" height="13" fill="#4677c8"/>
<text x="242" y="431">1  0.0%</text>
</svg>
