<svg xmlns="http://www.w3.org/2000/svg" width="876" height="412" font-family="monospace" font-size="12">
<rect width="876" height="412" fill="white"/>
<text x="10" y="22" font-size="15" font-weight="bold">15-control-allocation function-mix (insts) — cat1-15-control-allocation-i1-774cadeb-1781456018</text>
<text x="10" y="42" font-size="11" fill="#555">total 9429 across 17 entries; top 17 = 100.0%</text>
<text x="230" y="71" text-anchor="end">main</text>
<rect x="236" y="61" width="470" height="13" fill="#4677c8"/>
<text x="711" y="71">4734  50.2%</text>
<text x="230" y="91" text-anchor="end">__mulsf3_pse</text>
<rect x="236" y="81" width="116" height="13" fill="#4677c8"/>
<text x="357" y="91">1168  12.4%</text>
<text x="230" y="111" text-anchor="end">__do_copy_data</text>
<rect x="236" y="101" width="79" height="13" fill="#4677c8"/>
<text x="320" y="111">792  8.4%</text>
<text x="230" y="131" text-anchor="end">__addsf3x</text>
<rect x="236" y="121" width="70" height="13" fill="#4677c8"/>
<text x="311" y="131">709  7.5%</text>
<text x="230" y="151" text-anchor="end">allocate</text>
<rect x="236" y="141" width="62" height="13" fill="#4677c8"/>
<text x="303" y="151">625  6.6%</text>
<text x="230" y="171" text-anchor="end">__fp_splitA</text>
<rect x="236" y="161" width="31" height="13" fill="#4677c8"/>
<text x="272" y="171">312  3.3%</text>
<text x="230" y="191" text-anchor="end">__fp_round</text>
<rect x="236" y="181" width="28" height="13" fill="#4677c8"/>
<text x="269" y="191">282  3.0%</text>
<text x="230" y="211" text-anchor="end">__fp_split3</text>
<rect x="236" y="201" width="26" height="13" fill="#4677c8"/>
<text x="267" y="211">262  2.8%</text>
<text x="230" y="231" text-anchor="end">__fp_cmp</text>
<rect x="236" y="221" width="23" height="13" fill="#4677c8"/>
<text x="264" y="231">232  2.5%</text>
<text x="230" y="251" text-anchor="end">__USER_SIGNATURE_REGION_LENGTH__</text>
<rect x="236" y="241" width="14" height="13" fill="#4677c8"/>
<text x="255" y="251">138  1.5%</text>
<text x="230" y="271" text-anchor="end">__addsf3</text>
<rect x="236" y="261" width="8" height="13" fill="#4677c8"/>
<text x="249" y="271">80  0.8%</text>
<text x="230" y="291" text-anchor="end">__mulsf3</text>
<rect x="236" y="281" width="3" height="13" fill="#4677c8"/>
<text x="244" y="291">32  0.3%</text>
<text x="230" y="311" text-anchor="end">__mulsf3x</text>
<rect x="236" y="301" width="3" height="13" fill="#4677c8"/>
<text x="244" y="311">32  0.3%</text>
<text x="230" y="331" text-anchor="end">__gesf2</text>
<rect x="236" y="321" width="1" height="13" fill="#4677c8"/>
<text x="242" y="331">12  0.1%</text>
<text x="230" y="351" text-anchor="end">__ltsf2</text>
<rect x="236" y="341" width="1" height="13" fill="#4677c8"/>
<text x="242" y="351">12  0.1%</text>
<text x="230" y="371" text-anchor="end">__ctors_end</text>
<rect x="236" y="361" width="1" height="13" fill="#4677c8"/>
<text x="242" y="371">6  0.1%</text>
<text x="230" y="391" text-anchor="end">__heap_end</text>
<rect x="236" y="381" width="1" height="13" fill="#4677c8"/>
<text x="242" y="391">1  0.0%</text>
</svg>
