<svg xmlns="http://www.w3.org/2000/svg" width="750" height="472" font-family="monospace" font-size="12">
<rect width="750" height="472" fill="white"/>
<text x="10" y="22" font-size="15" font-weight="bold">15-control-allocation op-mix (insts) — cat1-15-control-allocation-i1-774cadeb-1781456018</text>
<text x="10" y="42" font-size="11" fill="#555">total 9429 across 48 entries; top 20 = 87.2%</text>
<text x="104" y="71" text-anchor="end">eor</text>
<rect x="110" y="61" width="470" height="13" fill="#4677c8"/>
<text x="585" y="71">1113  11.8%</text>
<text x="104" y="91" text-anchor="end">ror_inst</text>
<rect x="110" y="81" width="390" height="13" fill="#4677c8"/>
<text x="505" y="91">923  9.8%</text>
<text x="104" y="111" text-anchor="end">brbc</text>
<rect x="110" y="101" width="284" height="13" fill="#4677c8"/>
<text x="399" y="111">673  7.1%</text>
<text x="104" y="131" text-anchor="end">andi</text>
<rect x="110" y="121" width="274" height="13" fill="#4677c8"/>
<text x="389" y="131">648  6.9%</text>
<text x="104" y="151" text-anchor="end">movw</text>
<rect x="110" y="141" width="253" height="13" fill="#4677c8"/>
<text x="368" y="151">598  6.3%</text>
<text x="104" y="171" text-anchor="end">sbci</text>
<rect x="110" y="161" width="201" height="13" fill="#4677c8"/>
<text x="316" y="171">476  5.0%</text>
<text x="104" y="191" text-anchor="end">adc</text>
<rect x="110" y="181" width="199" height="13" fill="#4677c8"/>
<text x="314" y="191">471  5.0%</text>
<text x="104" y="211" text-anchor="end">com</text>
<rect x="110" y="201" width="177" height="13" fill="#4677c8"/>
<text x="292" y="211">420  4.5%</text>
<text x="104" y="231" text-anchor="end">add</text>
<rect x="110" y="221" width="164" height="13" fill="#4677c8"/>
<text x="279" y="231">388  4.1%</text>
<text x="104" y="251" text-anchor="end">brbs</text>
<rect x="110" y="241" width="158" height="13" fill="#4677c8"/>
<text x="273" y="251">374  4.0%</text>
<text x="104" y="271" text-anchor="end">cpc</text>
<rect x="110" y="261" width="156" height="13" fill="#4677c8"/>
<text x="271" y="271">369  3.9%</text>
<text x="104" y="291" text-anchor="end">lsr</text>
<rect x="110" y="281" width="120" height="13" fill="#4677c8"/>
<text x="235" y="291">284  3.0%</text>
<text x="104" y="311" text-anchor="end">cpi</text>
<rect x="110" y="301" width="117" height="13" fill="#4677c8"/>
<text x="232" y="311">276  2.9%</text>
<text x="104" y="331" text-anchor="end">mov</text>
<rect x="110" y="321" width="88" height="13" fill="#4677c8"/>
<text x="203" y="331">208  2.2%</text>
<text x="104" y="351" text-anchor="end">subi</text>
<rect x="110" y="341" width="87" height="13" fill="#4677c8"/>
<text x="202" y="351">205  2.2%</text>
<text x="104" y="371" text-anchor="end">ld_z_postinc</text>
<rect x="110" y="361" width="78" height="13" fill="#4677c8"/>
<text x="193" y="371">185  2.0%</text>
<text x="104" y="391" text-anchor="end">mul</text>
<rect x="110" y="381" width="68" height="13" fill="#4677c8"/>
<text x="183" y="391">160  1.7%</text>
<text x="104" y="411" text-anchor="end">st_x_postinc</text>
<rect x="110" y="401" width="66" height="13" fill="#4677c8"/>
<text x="181" y="411">156  1.7%</text>
<text x="104" y="431" text-anchor="end">elpm_z_postinc</text>
<rect x="110" y="421" width="66" height="13" fill="#4677c8"/>
<text x="181" y="431">156  1.7%</text>
<text x="104" y="451" text-anchor="end">dec</text>
<rect x="110" y="441" width="57" height="13" fill="#4677c8"/>
<text x="172" y="451">136  1.4%</text>
</svg>
