<svg xmlns="http://www.w3.org/2000/svg" width="896" height="452" font-family="monospace" font-size="12">
<rect width="896" height="452" fill="white"/>
<text x="10" y="22" font-size="15" font-weight="bold">15-control-allocation runtime cost (calls x cyc/call) — cat1-15-control-allocation-i11-ceac6e4a-1781456022</text>
<text x="10" y="42" font-size="11" fill="#555">cost = calls × cyc/call (= total cycles); total 68332; top 19 = 100.0%</text>
<text x="230" y="71" text-anchor="end">__mulsf3_pse</text>
<rect x="236" y="61" width="420" height="13" fill="#b5651d"/>
<text x="661" y="71">15664  (176x89)  22.9%</text>
<text x="230" y="91" text-anchor="end">allocate</text>
<rect x="236" y="81" width="312" height="13" fill="#b5651d"/>
<text x="553" y="91">11637  (11x1058)  17.0%</text>
<text x="230" y="111" text-anchor="end">__addsf3x</text>
<rect x="236" y="101" width="207" height="13" fill="#b5651d"/>
<text x="448" y="111">7723  (220x35)  11.3%</text>
<text x="230" y="131" text-anchor="end">main</text>
<rect x="236" y="121" width="196" height="13" fill="#b5651d"/>
<text x="437" y="131">7313  (1x7313)  10.7%</text>
<text x="230" y="151" text-anchor="end">__fp_round</text>
<rect x="236" y="141" width="137" height="13" fill="#b5651d"/>
<text x="378" y="151">5112  (396x13)  7.5%</text>
<text x="230" y="171" text-anchor="end">__fp_splitA</text>
<rect x="236" y="161" width="125" height="13" fill="#b5651d"/>
<text x="366" y="171">4652  (396x12)  6.8%</text>
<text x="230" y="191" text-anchor="end">__USER_SIGNATURE_REGION_LENGTH__</text>
<rect x="236" y="181" width="108" height="13" fill="#b5651d"/>
<text x="349" y="191">4036  (58x70)  5.9%</text>
<text x="230" y="211" text-anchor="end">__fp_split3</text>
<rect x="236" y="201" width="85" height="13" fill="#b5651d"/>
<text x="326" y="211">3162  (396x8)  4.6%</text>
<text x="230" y="231" text-anchor="end">__fp_cmp</text>
<rect x="236" y="221" width="78" height="13" fill="#b5651d"/>
<text x="319" y="231">2904  (88x33)  4.2%</text>
<text x="230" y="251" text-anchor="end">__addsf3</text>
<rect x="236" y="241" width="53" height="13" fill="#b5651d"/>
<text x="294" y="251">1980  (220x9)  2.9%</text>
<text x="230" y="271" text-anchor="end">__mulsf3</text>
<rect x="236" y="261" width="33" height="13" fill="#b5651d"/>
<text x="274" y="271">1232  (176x7)  1.8%</text>
<text x="230" y="291" text-anchor="end">__do_copy_data</text>
<rect x="236" y="281" width="30" height="13" fill="#b5651d"/>
<text x="271" y="291">1108  (1x1108)  1.6%</text>
<text x="230" y="311" text-anchor="end">__mulsf3x</text>
<rect x="236" y="301" width="24" height="13" fill="#b5651d"/>
<text x="265" y="311">880  (176x5)  1.3%</text>
<text x="230" y="331" text-anchor="end">__ltsf2</text>
<rect x="236" y="321" width="12" height="13" fill="#b5651d"/>
<text x="253" y="331">440  (44x10)  0.6%</text>
<text x="230" y="351" text-anchor="end">__gesf2</text>
<rect x="236" y="341" width="12" height="13" fill="#b5651d"/>
<text x="253" y="351">440  (44x10)  0.6%</text>
<text x="230" y="371" text-anchor="end">__fp_szero</text>
<rect x="236" y="361" width="1" height="13" fill="#b5651d"/>
<text x="242" y="371">36  (4x9)  0.1%</text>
<text x="230" y="391" text-anchor="end">__ctors_end</text>
<rect x="236" y="381" width="1" height="13" fill="#b5651d"/>
<text x="242" y="391">6  (1x6)  0.0%</text>
<text x="230" y="411" text-anchor="end">__fp_zero</text>
<rect x="236" y="401" width="1" height="13" fill="#b5651d"/>
<text x="242" y="411">4  (4x1)  0.0%</text>
<text x="230" y="431" text-anchor="end">__heap_end</text>
<rect x="236" y="421" width="1" height="13" fill="#b5651d"/>
<text x="242" y="431">3  (1x3)  0.0%</text>
</svg>
