<svg xmlns="http://www.w3.org/2000/svg" width="876" height="472" font-family="monospace" font-size="12">
<rect width="876" height="472" fill="white"/>
<text x="10" y="22" font-size="15" font-weight="bold">13-quaternion function-mix (cycles) — cat1-13-quaternion-i11-0908da41-1781455890</text>
<text x="10" y="42" font-size="11" fill="#555">total 172210 across 21 entries; top 20 = 100.0%</text>
<text x="230" y="71" text-anchor="end">__addsf3x</text>
<rect x="236" y="61" width="470" height="13" fill="#4677c8"/>
<text x="711" y="71">36204  21.0%</text>
<text x="230" y="91" text-anchor="end">__mulsf3_pse</text>
<rect x="236" y="81" width="292" height="13" fill="#4677c8"/>
<text x="533" y="91">22520  13.1%</text>
<text x="230" y="111" text-anchor="end">__fp_splitA</text>
<rect x="236" y="101" width="243" height="13" fill="#4677c8"/>
<text x="484" y="111">18680  10.8%</text>
<text x="230" y="131" text-anchor="end">__fp_round</text>
<rect x="236" y="121" width="240" height="13" fill="#4677c8"/>
<text x="481" y="131">18465  10.7%</text>
<text x="230" y="151" text-anchor="end">__EEPROM_REGION_LENGTH__</text>
<rect x="236" y="141" width="158" height="13" fill="#4677c8"/>
<text x="399" y="151">12138  7.0%</text>
<text x="230" y="171" text-anchor="end">main</text>
<rect x="236" y="161" width="141" height="13" fill="#4677c8"/>
<text x="382" y="171">10827  6.3%</text>
<text x="230" y="191" text-anchor="end">__fp_split3</text>
<rect x="236" y="181" width="138" height="13" fill="#4677c8"/>
<text x="379" y="191">10640  6.2%</text>
<text x="230" y="211" text-anchor="end">quat_rotate</text>
<rect x="236" y="201" width="94" height="13" fill="#4677c8"/>
<text x="335" y="211">7271  4.2%</text>
<text x="230" y="231" text-anchor="end">__addsf3</text>
<rect x="236" y="221" width="90" height="13" fill="#4677c8"/>
<text x="331" y="231">6930  4.0%</text>
<text x="230" y="251" text-anchor="end">quat_to_dcm</text>
<rect x="236" y="241" width="88" height="13" fill="#4677c8"/>
<text x="329" y="251">6743  3.9%</text>
<text x="230" y="271" text-anchor="end">__USER_SIGNATURE_REGION_LENGTH__</text>
<rect x="236" y="261" width="69" height="13" fill="#4677c8"/>
<text x="310" y="271">5324  3.1%</text>
<text x="230" y="291" text-anchor="end">__mulsf3</text>
<rect x="236" y="281" width="66" height="13" fill="#4677c8"/>
<text x="307" y="291">5047  2.9%</text>
<text x="230" y="311" text-anchor="end">quat_normalize</text>
<rect x="236" y="301" width="61" height="13" fill="#4677c8"/>
<text x="302" y="311">4675  2.7%</text>
<text x="230" y="331" text-anchor="end">__mulsf3x</text>
<rect x="236" y="321" width="39" height="13" fill="#4677c8"/>
<text x="280" y="331">3025  1.8%</text>
<text x="230" y="351" text-anchor="end">__fp_szero</text>
<rect x="236" y="341" width="30" height="13" fill="#4677c8"/>
<text x="271" y="351">2313  1.3%</text>
<text x="230" y="371" text-anchor="end">quat_mul</text>
<rect x="236" y="361" width="8" height="13" fill="#4677c8"/>
<text x="249" y="371">605  0.4%</text>
<text x="230" y="391" text-anchor="end">__do_copy_data</text>
<rect x="236" y="381" width="7" height="13" fill="#4677c8"/>
<text x="248" y="391">520  0.3%</text>
<text x="230" y="411" text-anchor="end">__subsf3</text>
<rect x="236" y="401" width="3" height="13" fill="#4677c8"/>
<text x="244" y="411">220  0.1%</text>
<text x="230" y="431" text-anchor="end">__fp_zero</text>
<rect x="236" y="421" width="1" height="13" fill="#4677c8"/>
<text x="242" y="431">54  0.0%</text>
<text x="230" y="451" text-anchor="end">__ctors_end</text>
<rect x="236" y="441" width="1" height="13" fill="#4677c8"/>
<text x="242" y="451">6  0.0%</text>
</svg>
