<svg xmlns="http://www.w3.org/2000/svg" width="896" height="472" font-family="monospace" font-size="12">
<rect width="896" height="472" fill="white"/>
<text x="10" y="22" font-size="15" font-weight="bold">13-quaternion runtime cost (calls x cyc/call) — cat1-13-quaternion-i11-0908da41-1781455890</text>
<text x="10" y="42" font-size="11" fill="#555">cost = calls × cyc/call (= total cycles); total 172210; top 20 = 100.0%</text>
<text x="230" y="71" text-anchor="end">__addsf3x</text>
<rect x="236" y="61" width="420" height="13" fill="#b5651d"/>
<text x="661" y="71">36204  (770x47)  21.0%</text>
<text x="230" y="91" text-anchor="end">__mulsf3_pse</text>
<rect x="236" y="81" width="261" height="13" fill="#b5651d"/>
<text x="502" y="91">22520  (605x37)  13.1%</text>
<text x="230" y="111" text-anchor="end">__fp_splitA</text>
<rect x="236" y="101" width="217" height="13" fill="#b5651d"/>
<text x="458" y="111">18680  (1375x14)  10.8%</text>
<text x="230" y="131" text-anchor="end">__fp_round</text>
<rect x="236" y="121" width="214" height="13" fill="#b5651d"/>
<text x="455" y="131">18465  (1375x13)  10.7%</text>
<text x="230" y="151" text-anchor="end">__EEPROM_REGION_LENGTH__</text>
<rect x="236" y="141" width="141" height="13" fill="#b5651d"/>
<text x="382" y="151">12138  (402x30)  7.0%</text>
<text x="230" y="171" text-anchor="end">main</text>
<rect x="236" y="161" width="126" height="13" fill="#b5651d"/>
<text x="367" y="171">10827  (1x10827)  6.3%</text>
<text x="230" y="191" text-anchor="end">__fp_split3</text>
<rect x="236" y="181" width="123" height="13" fill="#b5651d"/>
<text x="364" y="191">10640  (1375x8)  6.2%</text>
<text x="230" y="211" text-anchor="end">quat_rotate</text>
<rect x="236" y="201" width="84" height="13" fill="#b5651d"/>
<text x="325" y="211">7271  (11x661)  4.2%</text>
<text x="230" y="231" text-anchor="end">__addsf3</text>
<rect x="236" y="221" width="80" height="13" fill="#b5651d"/>
<text x="321" y="231">6930  (770x9)  4.0%</text>
<text x="230" y="251" text-anchor="end">quat_to_dcm</text>
<rect x="236" y="241" width="78" height="13" fill="#b5651d"/>
<text x="319" y="251">6743  (11x613)  3.9%</text>
<text x="230" y="271" text-anchor="end">__USER_SIGNATURE_REGION_LENGTH__</text>
<rect x="236" y="261" width="62" height="13" fill="#b5651d"/>
<text x="303" y="271">5324  (11x484)  3.1%</text>
<text x="230" y="291" text-anchor="end">__mulsf3</text>
<rect x="236" y="281" width="59" height="13" fill="#b5651d"/>
<text x="300" y="291">5047  (605x8)  2.9%</text>
<text x="230" y="311" text-anchor="end">quat_normalize</text>
<rect x="236" y="301" width="54" height="13" fill="#b5651d"/>
<text x="295" y="311">4675  (11x425)  2.7%</text>
<text x="230" y="331" text-anchor="end">__mulsf3x</text>
<rect x="236" y="321" width="35" height="13" fill="#b5651d"/>
<text x="276" y="331">3025  (605x5)  1.8%</text>
<text x="230" y="351" text-anchor="end">__fp_szero</text>
<rect x="236" y="341" width="27" height="13" fill="#b5651d"/>
<text x="268" y="351">2313  (257x9)  1.3%</text>
<text x="230" y="371" text-anchor="end">quat_mul</text>
<rect x="236" y="361" width="7" height="13" fill="#b5651d"/>
<text x="248" y="371">605  (11x55)  0.4%</text>
<text x="230" y="391" text-anchor="end">__do_copy_data</text>
<rect x="236" y="381" width="6" height="13" fill="#b5651d"/>
<text x="247" y="391">520  (1x520)  0.3%</text>
<text x="230" y="411" text-anchor="end">__subsf3</text>
<rect x="236" y="401" width="3" height="13" fill="#b5651d"/>
<text x="244" y="411">220  (220x1)  0.1%</text>
<text x="230" y="431" text-anchor="end">__fp_zero</text>
<rect x="236" y="421" width="1" height="13" fill="#b5651d"/>
<text x="242" y="431">54  (54x1)  0.0%</text>
<text x="230" y="451" text-anchor="end">__ctors_end</text>
<rect x="236" y="441" width="1" height="13" fill="#b5651d"/>
<text x="242" y="451">6  (1x6)  0.0%</text>
</svg>
