<svg xmlns="http://www.w3.org/2000/svg" width="736" height="472" font-family="monospace" font-size="12">
<rect width="736" height="472" fill="white"/>
<text x="10" y="22" font-size="15" font-weight="bold">13-quaternion op-mix (insts) — cat1-13-quaternion-i1-ec386a4d-1781455886</text>
<text x="10" y="42" font-size="11" fill="#555">total 16185 across 52 entries; top 20 = 86.0%</text>
<text x="90" y="71" text-anchor="end">eor</text>
<rect x="96" y="61" width="470" height="13" fill="#4677c8"/>
<text x="571" y="71">1465  9.1%</text>
<text x="90" y="91" text-anchor="end">ror_inst</text>
<rect x="96" y="81" width="454" height="13" fill="#4677c8"/>
<text x="555" y="91">1416  8.7%</text>
<text x="90" y="111" text-anchor="end">adc</text>
<rect x="96" y="101" width="450" height="13" fill="#4677c8"/>
<text x="551" y="111">1404  8.7%</text>
<text x="90" y="131" text-anchor="end">add</text>
<rect x="96" y="121" width="377" height="13" fill="#4677c8"/>
<text x="478" y="131">1176  7.3%</text>
<text x="90" y="151" text-anchor="end">brbs</text>
<rect x="96" y="141" width="365" height="13" fill="#4677c8"/>
<text x="466" y="151">1137  7.0%</text>
<text x="90" y="171" text-anchor="end">brbc</text>
<rect x="96" y="161" width="336" height="13" fill="#4677c8"/>
<text x="437" y="171">1047  6.5%</text>
<text x="90" y="191" text-anchor="end">movw</text>
<rect x="96" y="181" width="259" height="13" fill="#4677c8"/>
<text x="360" y="191">808  5.0%</text>
<text x="90" y="211" text-anchor="end">andi</text>
<rect x="96" y="201" width="208" height="13" fill="#4677c8"/>
<text x="309" y="211">648  4.0%</text>
<text x="90" y="231" text-anchor="end">sbci</text>
<rect x="96" y="221" width="207" height="13" fill="#4677c8"/>
<text x="308" y="231">644  4.0%</text>
<text x="90" y="251" text-anchor="end">cpc</text>
<rect x="96" y="241" width="163" height="13" fill="#4677c8"/>
<text x="264" y="251">509  3.1%</text>
<text x="90" y="271" text-anchor="end">mul</text>
<rect x="96" y="261" width="142" height="13" fill="#4677c8"/>
<text x="243" y="271">442  2.7%</text>
<text x="90" y="291" text-anchor="end">cpi</text>
<rect x="96" y="281" width="138" height="13" fill="#4677c8"/>
<text x="239" y="291">431  2.7%</text>
<text x="90" y="311" text-anchor="end">com</text>
<rect x="96" y="301" width="135" height="13" fill="#4677c8"/>
<text x="236" y="311">420  2.6%</text>
<text x="90" y="331" text-anchor="end">mov</text>
<rect x="96" y="321" width="133" height="13" fill="#4677c8"/>
<text x="234" y="331">414  2.6%</text>
<text x="90" y="351" text-anchor="end">call</text>
<rect x="96" y="341" width="122" height="13" fill="#4677c8"/>
<text x="223" y="351">380  2.3%</text>
<text x="90" y="371" text-anchor="end">ret</text>
<rect x="96" y="361" width="122" height="13" fill="#4677c8"/>
<text x="223" y="371">379  2.3%</text>
<text x="90" y="391" text-anchor="end">subi</text>
<rect x="96" y="381" width="117" height="13" fill="#4677c8"/>
<text x="218" y="391">364  2.2%</text>
<text x="90" y="411" text-anchor="end">lsr</text>
<rect x="96" y="401" width="108" height="13" fill="#4677c8"/>
<text x="209" y="411">336  2.1%</text>
<text x="90" y="431" text-anchor="end">ldd_y</text>
<rect x="96" y="421" width="98" height="13" fill="#4677c8"/>
<text x="199" y="431">304  1.9%</text>
<text x="90" y="451" text-anchor="end">inc</text>
<rect x="96" y="441" width="64" height="13" fill="#4677c8"/>
<text x="165" y="451">199  1.2%</text>
</svg>
