<svg xmlns="http://www.w3.org/2000/svg" width="736" height="472" font-family="monospace" font-size="12">
<rect width="736" height="472" fill="white"/>
<text x="10" y="22" font-size="15" font-weight="bold">13-quaternion op-mix (cycles) — cat1-13-quaternion-i1-ec386a4d-1781455886</text>
<text x="10" y="42" font-size="11" fill="#555">total 21493 across 52 entries; top 20 = 85.0%</text>
<text x="90" y="71" text-anchor="end">brbc</text>
<rect x="96" y="61" width="470" height="13" fill="#4677c8"/>
<text x="571" y="71">1890  8.8%</text>
<text x="90" y="91" text-anchor="end">call</text>
<rect x="96" y="81" width="378" height="13" fill="#4677c8"/>
<text x="479" y="91">1520  7.1%</text>
<text x="90" y="111" text-anchor="end">ret</text>
<rect x="96" y="101" width="377" height="13" fill="#4677c8"/>
<text x="478" y="111">1516  7.1%</text>
<text x="90" y="131" text-anchor="end">eor</text>
<rect x="96" y="121" width="364" height="13" fill="#4677c8"/>
<text x="465" y="131">1465  6.8%</text>
<text x="90" y="151" text-anchor="end">ror_inst</text>
<rect x="96" y="141" width="352" height="13" fill="#4677c8"/>
<text x="453" y="151">1416  6.6%</text>
<text x="90" y="171" text-anchor="end">brbs</text>
<rect x="96" y="161" width="349" height="13" fill="#4677c8"/>
<text x="450" y="171">1405  6.5%</text>
<text x="90" y="191" text-anchor="end">adc</text>
<rect x="96" y="181" width="349" height="13" fill="#4677c8"/>
<text x="450" y="191">1404  6.5%</text>
<text x="90" y="211" text-anchor="end">add</text>
<rect x="96" y="201" width="292" height="13" fill="#4677c8"/>
<text x="393" y="211">1176  5.5%</text>
<text x="90" y="231" text-anchor="end">mul</text>
<rect x="96" y="221" width="220" height="13" fill="#4677c8"/>
<text x="321" y="231">884  4.1%</text>
<text x="90" y="251" text-anchor="end">movw</text>
<rect x="96" y="241" width="201" height="13" fill="#4677c8"/>
<text x="302" y="251">808  3.8%</text>
<text x="90" y="271" text-anchor="end">andi</text>
<rect x="96" y="261" width="161" height="13" fill="#4677c8"/>
<text x="262" y="271">648  3.0%</text>
<text x="90" y="291" text-anchor="end">sbci</text>
<rect x="96" y="281" width="160" height="13" fill="#4677c8"/>
<text x="261" y="291">644  3.0%</text>
<text x="90" y="311" text-anchor="end">ldd_y</text>
<rect x="96" y="301" width="151" height="13" fill="#4677c8"/>
<text x="252" y="311">608  2.8%</text>
<text x="90" y="331" text-anchor="end">cpc</text>
<rect x="96" y="321" width="127" height="13" fill="#4677c8"/>
<text x="228" y="331">509  2.4%</text>
<text x="90" y="351" text-anchor="end">cpi</text>
<rect x="96" y="341" width="107" height="13" fill="#4677c8"/>
<text x="208" y="351">431  2.0%</text>
<text x="90" y="371" text-anchor="end">jmp</text>
<rect x="96" y="361" width="104" height="13" fill="#4677c8"/>
<text x="205" y="371">420  2.0%</text>
<text x="90" y="391" text-anchor="end">com</text>
<rect x="96" y="381" width="104" height="13" fill="#4677c8"/>
<text x="205" y="391">420  2.0%</text>
<text x="90" y="411" text-anchor="end">mov</text>
<rect x="96" y="401" width="103" height="13" fill="#4677c8"/>
<text x="204" y="411">414  1.9%</text>
<text x="90" y="431" text-anchor="end">subi</text>
<rect x="96" y="421" width="91" height="13" fill="#4677c8"/>
<text x="192" y="431">364  1.7%</text>
<text x="90" y="451" text-anchor="end">lsr</text>
<rect x="96" y="441" width="84" height="13" fill="#4677c8"/>
<text x="185" y="451">336  1.6%</text>
</svg>
