<svg xmlns="http://www.w3.org/2000/svg" width="876" height="472" font-family="monospace" font-size="12">
<rect width="876" height="472" fill="white"/>
<text x="10" y="22" font-size="15" font-weight="bold">13-quaternion function-mix (insts) — cat1-13-quaternion-i1-ec386a4d-1781455886</text>
<text x="10" y="42" font-size="11" fill="#555">total 16185 across 20 entries; top 20 = 100.0%</text>
<text x="230" y="71" text-anchor="end">main</text>
<rect x="236" y="61" width="470" height="13" fill="#4677c8"/>
<text x="711" y="71">4990  30.8%</text>
<text x="230" y="91" text-anchor="end">__mulsf3_pse</text>
<rect x="236" y="81" width="282" height="13" fill="#4677c8"/>
<text x="523" y="91">2998  18.5%</text>
<text x="230" y="111" text-anchor="end">__addsf3x</text>
<rect x="236" y="101" width="268" height="13" fill="#4677c8"/>
<text x="509" y="111">2843  17.6%</text>
<text x="230" y="131" text-anchor="end">__fp_splitA</text>
<rect x="236" y="121" width="109" height="13" fill="#4677c8"/>
<text x="350" y="131">1158  7.2%</text>
<text x="230" y="151" text-anchor="end">__fp_round</text>
<rect x="236" y="141" width="106" height="13" fill="#4677c8"/>
<text x="347" y="151">1123  6.9%</text>
<text x="230" y="171" text-anchor="end">__fp_split3</text>
<rect x="236" y="161" width="81" height="13" fill="#4677c8"/>
<text x="322" y="171">861  5.3%</text>
<text x="230" y="191" text-anchor="end">__do_copy_data</text>
<rect x="236" y="181" width="35" height="13" fill="#4677c8"/>
<text x="276" y="191">372  2.3%</text>
<text x="230" y="211" text-anchor="end">quat_rotate</text>
<rect x="236" y="201" width="33" height="13" fill="#4677c8"/>
<text x="274" y="211">346  2.1%</text>
<text x="230" y="231" text-anchor="end">quat_to_dcm</text>
<rect x="236" y="221" width="31" height="13" fill="#4677c8"/>
<text x="272" y="231">325  2.0%</text>
<text x="230" y="251" text-anchor="end">__addsf3</text>
<rect x="236" y="241" width="26" height="13" fill="#4677c8"/>
<text x="267" y="251">280  1.7%</text>
<text x="230" y="271" text-anchor="end">quat_normalize</text>
<rect x="236" y="261" width="23" height="13" fill="#4677c8"/>
<text x="264" y="271">244  1.5%</text>
<text x="230" y="291" text-anchor="end">__USER_SIGNATURE_REGION_LENGTH__</text>
<rect x="236" y="281" width="17" height="13" fill="#4677c8"/>
<text x="258" y="291">184  1.1%</text>
<text x="230" y="311" text-anchor="end">__mulsf3</text>
<rect x="236" y="301" width="13" height="13" fill="#4677c8"/>
<text x="254" y="311">134  0.8%</text>
<text x="230" y="331" text-anchor="end">__mulsf3x</text>
<rect x="236" y="321" width="10" height="13" fill="#4677c8"/>
<text x="251" y="331">110  0.7%</text>
<text x="230" y="351" text-anchor="end">quat_mul</text>
<rect x="236" y="341" width="10" height="13" fill="#4677c8"/>
<text x="251" y="351">104  0.6%</text>
<text x="230" y="371" text-anchor="end">__fp_szero</text>
<rect x="236" y="361" width="8" height="13" fill="#4677c8"/>
<text x="249" y="371">84  0.5%</text>
<text x="230" y="391" text-anchor="end">__subsf3</text>
<rect x="236" y="381" width="2" height="13" fill="#4677c8"/>
<text x="243" y="391">20  0.1%</text>
<text x="230" y="411" text-anchor="end">__ctors_end</text>
<rect x="236" y="401" width="1" height="13" fill="#4677c8"/>
<text x="242" y="411">6  0.0%</text>
<text x="230" y="431" text-anchor="end">__fp_zero</text>
<rect x="236" y="421" width="1" height="13" fill="#4677c8"/>
<text x="242" y="431">2  0.0%</text>
<text x="230" y="451" text-anchor="end">__heap_end</text>
<rect x="236" y="441" width="1" height="13" fill="#4677c8"/>
<text x="242" y="451">1  0.0%</text>
</svg>
