<svg xmlns="http://www.w3.org/2000/svg" width="876" height="472" font-family="monospace" font-size="12">
<rect width="876" height="472" fill="white"/>
<text x="10" y="22" font-size="15" font-weight="bold">13-quaternion function calls (count) — cat1-13-quaternion-i1-ec386a4d-1781455886</text>
<text x="10" y="42" font-size="11" fill="#555">total 725 across 20 entries; top 20 = 100.0%</text>
<text x="230" y="71" text-anchor="end">__fp_split3</text>
<rect x="236" y="61" width="470" height="13" fill="#4677c8"/>
<text x="711" y="71">125  17.2%</text>
<text x="230" y="91" text-anchor="end">__fp_round</text>
<rect x="236" y="81" width="470" height="13" fill="#4677c8"/>
<text x="711" y="91">125  17.2%</text>
<text x="230" y="111" text-anchor="end">__fp_splitA</text>
<rect x="236" y="101" width="470" height="13" fill="#4677c8"/>
<text x="711" y="111">125  17.2%</text>
<text x="230" y="131" text-anchor="end">__addsf3x</text>
<rect x="236" y="121" width="263" height="13" fill="#4677c8"/>
<text x="504" y="131">70  9.7%</text>
<text x="230" y="151" text-anchor="end">__addsf3</text>
<rect x="236" y="141" width="263" height="13" fill="#4677c8"/>
<text x="504" y="151">70  9.7%</text>
<text x="230" y="171" text-anchor="end">__mulsf3_pse</text>
<rect x="236" y="161" width="207" height="13" fill="#4677c8"/>
<text x="448" y="171">55  7.6%</text>
<text x="230" y="191" text-anchor="end">__mulsf3x</text>
<rect x="236" y="181" width="207" height="13" fill="#4677c8"/>
<text x="448" y="191">55  7.6%</text>
<text x="230" y="211" text-anchor="end">__mulsf3</text>
<rect x="236" y="201" width="207" height="13" fill="#4677c8"/>
<text x="448" y="211">55  7.6%</text>
<text x="230" y="231" text-anchor="end">__subsf3</text>
<rect x="236" y="221" width="75" height="13" fill="#4677c8"/>
<text x="316" y="231">20  2.8%</text>
<text x="230" y="251" text-anchor="end">__fp_szero</text>
<rect x="236" y="241" width="53" height="13" fill="#4677c8"/>
<text x="294" y="251">14  1.9%</text>
<text x="230" y="271" text-anchor="end">__fp_zero</text>
<rect x="236" y="261" width="8" height="13" fill="#4677c8"/>
<text x="249" y="271">2  0.3%</text>
<text x="230" y="291" text-anchor="end">main</text>
<rect x="236" y="281" width="4" height="13" fill="#4677c8"/>
<text x="245" y="291">1  0.1%</text>
<text x="230" y="311" text-anchor="end">quat_mul</text>
<rect x="236" y="301" width="4" height="13" fill="#4677c8"/>
<text x="245" y="311">1  0.1%</text>
<text x="230" y="331" text-anchor="end">__ctors_end</text>
<rect x="236" y="321" width="4" height="13" fill="#4677c8"/>
<text x="245" y="331">1  0.1%</text>
<text x="230" y="351" text-anchor="end">quat_to_dcm</text>
<rect x="236" y="341" width="4" height="13" fill="#4677c8"/>
<text x="245" y="351">1  0.1%</text>
<text x="230" y="371" text-anchor="end">__do_copy_data</text>
<rect x="236" y="361" width="4" height="13" fill="#4677c8"/>
<text x="245" y="371">1  0.1%</text>
<text x="230" y="391" text-anchor="end">__heap_end</text>
<rect x="236" y="381" width="4" height="13" fill="#4677c8"/>
<text x="245" y="391">1  0.1%</text>
<text x="230" y="411" text-anchor="end">quat_rotate</text>
<rect x="236" y="401" width="4" height="13" fill="#4677c8"/>
<text x="245" y="411">1  0.1%</text>
<text x="230" y="431" text-anchor="end">__USER_SIGNATURE_REGION_LENGTH__</text>
<rect x="236" y="421" width="4" height="13" fill="#4677c8"/>
<text x="245" y="431">1  0.1%</text>
<text x="230" y="451" text-anchor="end">quat_normalize</text>
<rect x="236" y="441" width="4" height="13" fill="#4677c8"/>
<text x="245" y="451">1  0.1%</text>
</svg>
