<svg xmlns="http://www.w3.org/2000/svg" width="896" height="472" font-family="monospace" font-size="12">
<rect width="896" height="472" fill="white"/>
<text x="10" y="22" font-size="15" font-weight="bold">13-quaternion runtime cost (calls x cyc/call) — cat1-13-quaternion-i1-ec386a4d-1781455886</text>
<text x="10" y="42" font-size="11" fill="#555">cost = calls × cyc/call (= total cycles); total 21493; top 20 = 100.0%</text>
<text x="230" y="71" text-anchor="end">main</text>
<rect x="236" y="61" width="420" height="13" fill="#b5651d"/>
<text x="661" y="71">5636  (1x5636)  26.2%</text>
<text x="230" y="91" text-anchor="end">__mulsf3_pse</text>
<rect x="236" y="81" width="275" height="13" fill="#b5651d"/>
<text x="516" y="91">3695  (55x67)  17.2%</text>
<text x="230" y="111" text-anchor="end">__addsf3x</text>
<rect x="236" y="101" width="268" height="13" fill="#b5651d"/>
<text x="509" y="111">3596  (70x51)  16.7%</text>
<text x="230" y="131" text-anchor="end">__fp_round</text>
<rect x="236" y="121" width="130" height="13" fill="#b5651d"/>
<text x="371" y="131">1748  (125x14)  8.1%</text>
<text x="230" y="151" text-anchor="end">__fp_splitA</text>
<rect x="236" y="141" width="118" height="13" fill="#b5651d"/>
<text x="359" y="151">1587  (125x13)  7.4%</text>
<text x="230" y="171" text-anchor="end">__fp_split3</text>
<rect x="236" y="161" width="73" height="13" fill="#b5651d"/>
<text x="314" y="171">978  (125x8)  4.6%</text>
<text x="230" y="191" text-anchor="end">quat_rotate</text>
<rect x="236" y="181" width="49" height="13" fill="#b5651d"/>
<text x="290" y="191">661  (1x661)  3.1%</text>
<text x="230" y="211" text-anchor="end">__addsf3</text>
<rect x="236" y="201" width="47" height="13" fill="#b5651d"/>
<text x="288" y="211">630  (70x9)  2.9%</text>
<text x="230" y="231" text-anchor="end">quat_to_dcm</text>
<rect x="236" y="221" width="46" height="13" fill="#b5651d"/>
<text x="287" y="231">613  (1x613)  2.9%</text>
<text x="230" y="251" text-anchor="end">__do_copy_data</text>
<rect x="236" y="241" width="39" height="13" fill="#b5651d"/>
<text x="280" y="251">520  (1x520)  2.4%</text>
<text x="230" y="271" text-anchor="end">__mulsf3</text>
<rect x="236" y="261" width="32" height="13" fill="#b5651d"/>
<text x="273" y="271">433  (55x8)  2.0%</text>
<text x="230" y="291" text-anchor="end">quat_normalize</text>
<rect x="236" y="281" width="32" height="13" fill="#b5651d"/>
<text x="273" y="291">425  (1x425)  2.0%</text>
<text x="230" y="311" text-anchor="end">__USER_SIGNATURE_REGION_LENGTH__</text>
<rect x="236" y="301" width="26" height="13" fill="#b5651d"/>
<text x="267" y="311">346  (1x346)  1.6%</text>
<text x="230" y="331" text-anchor="end">__mulsf3x</text>
<rect x="236" y="321" width="20" height="13" fill="#b5651d"/>
<text x="261" y="331">275  (55x5)  1.3%</text>
<text x="230" y="351" text-anchor="end">quat_mul</text>
<rect x="236" y="341" width="14" height="13" fill="#b5651d"/>
<text x="255" y="351">193  (1x193)  0.9%</text>
<text x="230" y="371" text-anchor="end">__fp_szero</text>
<rect x="236" y="361" width="9" height="13" fill="#b5651d"/>
<text x="250" y="371">126  (14x9)  0.6%</text>
<text x="230" y="391" text-anchor="end">__subsf3</text>
<rect x="236" y="381" width="1" height="13" fill="#b5651d"/>
<text x="242" y="391">20  (20x1)  0.1%</text>
<text x="230" y="411" text-anchor="end">__ctors_end</text>
<rect x="236" y="401" width="1" height="13" fill="#b5651d"/>
<text x="242" y="411">6  (1x6)  0.0%</text>
<text x="230" y="431" text-anchor="end">__heap_end</text>
<rect x="236" y="421" width="1" height="13" fill="#b5651d"/>
<text x="242" y="431">3  (1x3)  0.0%</text>
<text x="230" y="451" text-anchor="end">__fp_zero</text>
<rect x="236" y="441" width="1" height="13" fill="#b5651d"/>
<text x="242" y="451">2  (2x1)  0.0%</text>
</svg>
