<svg xmlns="http://www.w3.org/2000/svg" width="876" height="472" font-family="monospace" font-size="12">
<rect width="876" height="472" fill="white"/>
<text x="10" y="22" font-size="15" font-weight="bold">13-quaternion function-mix (insts) — cat1-13-quaternion-i11-0908da41-1781455890</text>
<text x="10" y="42" font-size="11" fill="#555">total 120144 across 21 entries; top 20 = 100.0%</text>
<text x="230" y="71" text-anchor="end">__addsf3x</text>
<rect x="236" y="61" width="470" height="13" fill="#4677c8"/>
<text x="711" y="71">28379  23.6%</text>
<text x="230" y="91" text-anchor="end">__mulsf3_pse</text>
<rect x="236" y="81" width="300" height="13" fill="#4677c8"/>
<text x="541" y="91">18094  15.1%</text>
<text x="230" y="111" text-anchor="end">__fp_splitA</text>
<rect x="236" y="101" width="226" height="13" fill="#4677c8"/>
<text x="467" y="111">13637  11.4%</text>
<text x="230" y="131" text-anchor="end">__fp_round</text>
<rect x="236" y="121" width="192" height="13" fill="#4677c8"/>
<text x="433" y="131">11590  9.6%</text>
<text x="230" y="151" text-anchor="end">__EEPROM_REGION_LENGTH__</text>
<rect x="236" y="141" width="164" height="13" fill="#4677c8"/>
<text x="405" y="151">9887  8.2%</text>
<text x="230" y="171" text-anchor="end">__fp_split3</text>
<rect x="236" y="161" width="154" height="13" fill="#4677c8"/>
<text x="395" y="171">9312  7.8%</text>
<text x="230" y="191" text-anchor="end">main</text>
<rect x="236" y="181" width="131" height="13" fill="#4677c8"/>
<text x="372" y="191">7911  6.6%</text>
<text x="230" y="211" text-anchor="end">quat_rotate</text>
<rect x="236" y="201" width="63" height="13" fill="#4677c8"/>
<text x="304" y="211">3806  3.2%</text>
<text x="230" y="231" text-anchor="end">quat_to_dcm</text>
<rect x="236" y="221" width="59" height="13" fill="#4677c8"/>
<text x="300" y="231">3575  3.0%</text>
<text x="230" y="251" text-anchor="end">__addsf3</text>
<rect x="236" y="241" width="51" height="13" fill="#4677c8"/>
<text x="292" y="251">3080  2.6%</text>
<text x="230" y="271" text-anchor="end">__USER_SIGNATURE_REGION_LENGTH__</text>
<rect x="236" y="261" width="47" height="13" fill="#4677c8"/>
<text x="288" y="271">2838  2.4%</text>
<text x="230" y="291" text-anchor="end">quat_normalize</text>
<rect x="236" y="281" width="44" height="13" fill="#4677c8"/>
<text x="285" y="291">2684  2.2%</text>
<text x="230" y="311" text-anchor="end">__mulsf3</text>
<rect x="236" y="301" width="27" height="13" fill="#4677c8"/>
<text x="268" y="311">1616  1.3%</text>
<text x="230" y="331" text-anchor="end">__fp_szero</text>
<rect x="236" y="321" width="26" height="13" fill="#4677c8"/>
<text x="267" y="331">1542  1.3%</text>
<text x="230" y="351" text-anchor="end">__mulsf3x</text>
<rect x="236" y="341" width="20" height="13" fill="#4677c8"/>
<text x="261" y="351">1210  1.0%</text>
<text x="230" y="371" text-anchor="end">__do_copy_data</text>
<rect x="236" y="361" width="6" height="13" fill="#4677c8"/>
<text x="247" y="371">372  0.3%</text>
<text x="230" y="391" text-anchor="end">quat_mul</text>
<rect x="236" y="381" width="5" height="13" fill="#4677c8"/>
<text x="246" y="391">330  0.3%</text>
<text x="230" y="411" text-anchor="end">__subsf3</text>
<rect x="236" y="401" width="4" height="13" fill="#4677c8"/>
<text x="245" y="411">220  0.2%</text>
<text x="230" y="431" text-anchor="end">__fp_zero</text>
<rect x="236" y="421" width="1" height="13" fill="#4677c8"/>
<text x="242" y="431">54  0.0%</text>
<text x="230" y="451" text-anchor="end">__ctors_end</text>
<rect x="236" y="441" width="1" height="13" fill="#4677c8"/>
<text x="242" y="451">6  0.0%</text>
</svg>
