<svg xmlns="http://www.w3.org/2000/svg" width="736" height="472" font-family="monospace" font-size="12">
<rect width="736" height="472" fill="white"/>
<text x="10" y="22" font-size="15" font-weight="bold">13-quaternion op-mix (cycles) — cat1-13-quaternion-i11-0908da41-1781455890</text>
<text x="10" y="42" font-size="11" fill="#555">total 172210 across 52 entries; top 20 = 87.6%</text>
<text x="90" y="71" text-anchor="end">call</text>
<rect x="96" y="61" width="470" height="13" fill="#4677c8"/>
<text x="571" y="71">16680  9.7%</text>
<text x="90" y="91" text-anchor="end">ret</text>
<rect x="96" y="81" width="470" height="13" fill="#4677c8"/>
<text x="571" y="91">16676  9.7%</text>
<text x="90" y="111" text-anchor="end">brbs</text>
<rect x="96" y="101" width="409" height="13" fill="#4677c8"/>
<text x="510" y="111">14524  8.4%</text>
<text x="90" y="131" text-anchor="end">adc</text>
<rect x="96" y="121" width="377" height="13" fill="#4677c8"/>
<text x="478" y="131">13369  7.8%</text>
<text x="90" y="151" text-anchor="end">brbc</text>
<rect x="96" y="141" width="343" height="13" fill="#4677c8"/>
<text x="444" y="151">12188  7.1%</text>
<text x="90" y="171" text-anchor="end">add</text>
<rect x="96" y="161" width="335" height="13" fill="#4677c8"/>
<text x="436" y="171">11875  6.9%</text>
<text x="90" y="191" text-anchor="end">mul</text>
<rect x="96" y="181" width="238" height="13" fill="#4677c8"/>
<text x="339" y="191">8446  4.9%</text>
<text x="90" y="211" text-anchor="end">ror_inst</text>
<rect x="96" y="201" width="226" height="13" fill="#4677c8"/>
<text x="327" y="211">8034  4.7%</text>
<text x="90" y="231" text-anchor="end">ldd_y</text>
<rect x="96" y="221" width="198" height="13" fill="#4677c8"/>
<text x="299" y="231">7040  4.1%</text>
<text x="90" y="251" text-anchor="end">eor</text>
<rect x="96" y="241" width="187" height="13" fill="#4677c8"/>
<text x="288" y="251">6638  3.9%</text>
<text x="90" y="271" text-anchor="end">movw</text>
<rect x="96" y="261" width="164" height="13" fill="#4677c8"/>
<text x="265" y="271">5832  3.4%</text>
<text x="90" y="291" text-anchor="end">cpc</text>
<rect x="96" y="281" width="140" height="13" fill="#4677c8"/>
<text x="241" y="291">4960  2.9%</text>
<text x="90" y="311" text-anchor="end">jmp</text>
<rect x="96" y="301" width="138" height="13" fill="#4677c8"/>
<text x="239" y="311">4899  2.8%</text>
<text x="90" y="331" text-anchor="end">mov</text>
<rect x="96" y="321" width="111" height="13" fill="#4677c8"/>
<text x="212" y="331">3945  2.3%</text>
<text x="90" y="351" text-anchor="end">cpi</text>
<rect x="96" y="341" width="99" height="13" fill="#4677c8"/>
<text x="200" y="351">3504  2.0%</text>
<text x="90" y="371" text-anchor="end">std_y</text>
<rect x="96" y="361" width="78" height="13" fill="#4677c8"/>
<text x="179" y="371">2772  1.6%</text>
<text x="90" y="391" text-anchor="end">sbci</text>
<rect x="96" y="381" width="78" height="13" fill="#4677c8"/>
<text x="179" y="391">2768  1.6%</text>
<text x="90" y="411" text-anchor="end">sbrc</text>
<rect x="96" y="401" width="66" height="13" fill="#4677c8"/>
<text x="167" y="411">2343  1.4%</text>
<text x="90" y="431" text-anchor="end">subi</text>
<rect x="96" y="421" width="64" height="13" fill="#4677c8"/>
<text x="165" y="431">2269  1.3%</text>
<text x="90" y="451" text-anchor="end">inc</text>
<rect x="96" y="441" width="61" height="13" fill="#4677c8"/>
<text x="162" y="451">2152  1.2%</text>
</svg>
