<svg xmlns="http://www.w3.org/2000/svg" width="736" height="472" font-family="monospace" font-size="12">
<rect width="736" height="472" fill="white"/>
<text x="10" y="22" font-size="15" font-weight="bold">13-quaternion op-mix (insts) — cat1-13-quaternion-i11-0908da41-1781455890</text>
<text x="10" y="42" font-size="11" fill="#555">total 120144 across 52 entries; top 20 = 87.1%</text>
<text x="90" y="71" text-anchor="end">adc</text>
<rect x="96" y="61" width="470" height="13" fill="#4677c8"/>
<text x="571" y="71">13369  11.1%</text>
<text x="90" y="91" text-anchor="end">add</text>
<rect x="96" y="81" width="417" height="13" fill="#4677c8"/>
<text x="518" y="91">11875  9.9%</text>
<text x="90" y="111" text-anchor="end">brbs</text>
<rect x="96" y="101" width="407" height="13" fill="#4677c8"/>
<text x="508" y="111">11581  9.6%</text>
<text x="90" y="131" text-anchor="end">ror_inst</text>
<rect x="96" y="121" width="282" height="13" fill="#4677c8"/>
<text x="383" y="131">8034  6.7%</text>
<text x="90" y="151" text-anchor="end">brbc</text>
<rect x="96" y="141" width="244" height="13" fill="#4677c8"/>
<text x="345" y="151">6947  5.8%</text>
<text x="90" y="171" text-anchor="end">eor</text>
<rect x="96" y="161" width="233" height="13" fill="#4677c8"/>
<text x="334" y="171">6638  5.5%</text>
<text x="90" y="191" text-anchor="end">movw</text>
<rect x="96" y="181" width="205" height="13" fill="#4677c8"/>
<text x="306" y="191">5832  4.9%</text>
<text x="90" y="211" text-anchor="end">cpc</text>
<rect x="96" y="201" width="174" height="13" fill="#4677c8"/>
<text x="275" y="211">4960  4.1%</text>
<text x="90" y="231" text-anchor="end">mul</text>
<rect x="96" y="221" width="148" height="13" fill="#4677c8"/>
<text x="249" y="231">4223  3.5%</text>
<text x="90" y="251" text-anchor="end">call</text>
<rect x="96" y="241" width="147" height="13" fill="#4677c8"/>
<text x="248" y="251">4170  3.5%</text>
<text x="90" y="271" text-anchor="end">ret</text>
<rect x="96" y="261" width="147" height="13" fill="#4677c8"/>
<text x="248" y="271">4169  3.5%</text>
<text x="90" y="291" text-anchor="end">mov</text>
<rect x="96" y="281" width="139" height="13" fill="#4677c8"/>
<text x="240" y="291">3945  3.3%</text>
<text x="90" y="311" text-anchor="end">ldd_y</text>
<rect x="96" y="301" width="124" height="13" fill="#4677c8"/>
<text x="225" y="311">3520  2.9%</text>
<text x="90" y="331" text-anchor="end">cpi</text>
<rect x="96" y="321" width="123" height="13" fill="#4677c8"/>
<text x="224" y="331">3504  2.9%</text>
<text x="90" y="351" text-anchor="end">sbci</text>
<rect x="96" y="341" width="97" height="13" fill="#4677c8"/>
<text x="198" y="351">2768  2.3%</text>
<text x="90" y="371" text-anchor="end">subi</text>
<rect x="96" y="361" width="80" height="13" fill="#4677c8"/>
<text x="181" y="371">2269  1.9%</text>
<text x="90" y="391" text-anchor="end">inc</text>
<rect x="96" y="381" width="76" height="13" fill="#4677c8"/>
<text x="177" y="391">2152  1.8%</text>
<text x="90" y="411" text-anchor="end">cp</text>
<rect x="96" y="401" width="59" height="13" fill="#4677c8"/>
<text x="160" y="411">1685  1.4%</text>
<text x="90" y="431" text-anchor="end">jmp</text>
<rect x="96" y="421" width="57" height="13" fill="#4677c8"/>
<text x="158" y="431">1633  1.4%</text>
<text x="90" y="451" text-anchor="end">std_y</text>
<rect x="96" y="441" width="49" height="13" fill="#4677c8"/>
<text x="150" y="451">1386  1.2%</text>
</svg>
